G04 #@! TF.FileFunction,Soldermask,Bot*
%FSLAX46Y46*%
G04 Gerber Fmt 4.6, Leading zero omitted, Abs format (unit mm)*
G04 Created by KiCad (PCBNEW 4.0.0-rc1-stable) date 20.6.2016 15:05:58*
%MOMM*%
G01*
G04 APERTURE LIST*
%ADD10C,0.150000*%
%ADD11O,2.600000X2.600000*%
%ADD12R,2.127200X2.432000*%
%ADD13O,2.127200X2.432000*%
%ADD14C,2.400000*%
%ADD15C,3.400000*%
%ADD16C,3.600000*%
%ADD17R,2.200860X3.549600*%
%ADD18R,1.300000X1.600000*%
%ADD19R,3.549600X2.200860*%
%ADD20R,1.600000X1.300000*%
%ADD21R,2.300000X2.400000*%
%ADD22C,2.300000*%
%ADD23R,1.000000X1.400000*%
%ADD24R,1.400000X1.000000*%
%ADD25C,1.900000*%
%ADD26R,1.650000X1.200100*%
%ADD27R,1.200100X1.650000*%
%ADD28C,1.700000*%
%ADD29R,1.460000X1.050000*%
%ADD30C,2.100000*%
%ADD31R,4.400000X2.900000*%
%ADD32R,1.600000X2.400000*%
%ADD33O,4.400000X2.400000*%
%ADD34C,2.000000*%
%ADD35O,3.800000X2.400000*%
%ADD36O,2.400000X2.100000*%
%ADD37O,1.700000X2.900000*%
%ADD38R,3.400000X4.400000*%
%ADD39R,1.620000X1.020000*%
%ADD40R,0.806000X1.200000*%
G04 APERTURE END LIST*
D10*
D11*
X40225000Y-31175000D03*
X17425000Y-31175000D03*
X40225000Y-7725000D03*
D12*
X25025000Y-7175000D03*
D13*
X27565000Y-7175000D03*
X30105000Y-7175000D03*
X32645000Y-7175000D03*
D11*
X17425000Y-7725000D03*
D14*
X37690000Y-4550000D03*
X35150000Y-4550000D03*
X32610000Y-4550000D03*
X30070000Y-4550000D03*
X27530000Y-4550000D03*
X24990000Y-4550000D03*
X22450000Y-4550000D03*
D15*
X43305000Y-34050000D03*
X14300000Y-34050000D03*
X43305000Y-4550000D03*
X14300000Y-4550000D03*
D14*
X19910000Y-4550000D03*
D16*
X57300000Y-95300000D03*
X0Y-95300000D03*
X57300000Y0D03*
X0Y0D03*
D17*
X37240000Y-74635980D03*
X37240000Y-70384020D03*
X51210000Y-74605980D03*
X51210000Y-70354020D03*
D18*
X20550000Y-82900000D03*
X20550000Y-80700000D03*
D19*
X31624020Y-96450000D03*
X35875980Y-96450000D03*
X31624020Y-92100000D03*
X35875980Y-92100000D03*
D18*
X54300000Y-8400000D03*
X54300000Y-10600000D03*
D20*
X53900000Y-55750000D03*
X51700000Y-55750000D03*
D21*
X47550000Y150000D03*
D22*
X50090000Y150000D03*
D23*
X56750000Y-8400000D03*
X56750000Y-10900000D03*
D24*
X49800000Y-97750000D03*
X47300000Y-97750000D03*
D25*
X13950000Y-84800000D03*
X15950000Y-84800000D03*
X17950000Y-84800000D03*
X49550000Y-92900000D03*
X47550000Y-92900000D03*
D26*
X39500000Y-82100000D03*
X39500000Y-84000000D03*
X37000000Y-83050000D03*
D27*
X4170000Y-23060000D03*
X2270000Y-23060000D03*
X3220000Y-20560000D03*
X48310000Y-45500000D03*
X46410000Y-45500000D03*
X47360000Y-43000000D03*
X50420000Y-43000000D03*
X52320000Y-43000000D03*
X51370000Y-45500000D03*
X49700000Y-10600000D03*
X47800000Y-10600000D03*
X48750000Y-8100000D03*
D26*
X25600000Y750000D03*
X25600000Y2650000D03*
X28100000Y1700000D03*
D20*
X3500000Y-67900000D03*
X1300000Y-67900000D03*
X3500000Y-70450000D03*
X1300000Y-70450000D03*
X30850000Y-78050000D03*
X28650000Y-78050000D03*
X52300000Y2300000D03*
X50100000Y2300000D03*
D18*
X6820000Y-20860000D03*
X6820000Y-23060000D03*
X59150000Y-8350000D03*
X59150000Y-10550000D03*
X52050000Y-10600000D03*
X52050000Y-8400000D03*
D20*
X46240000Y-47520000D03*
X48440000Y-47520000D03*
X50130000Y-40880000D03*
X52330000Y-40880000D03*
D18*
X59400000Y-39300000D03*
X59400000Y-41500000D03*
D20*
X36650000Y1700000D03*
X38850000Y1700000D03*
X28500000Y-1850000D03*
X26300000Y-1850000D03*
X23650000Y-1850000D03*
X21450000Y-1850000D03*
D28*
X6725000Y-48025000D03*
D29*
X42150000Y-93950000D03*
X42150000Y-94900000D03*
X42150000Y-95850000D03*
X39950000Y-95850000D03*
X39950000Y-93950000D03*
D30*
X35450000Y-87300000D03*
X37450000Y-87300000D03*
X39450000Y-87300000D03*
X41450000Y-87300000D03*
X43450000Y-87300000D03*
X45450000Y-87300000D03*
X47450000Y-87300000D03*
X49450000Y-87300000D03*
X51450000Y-87300000D03*
X53450000Y-87300000D03*
X35450000Y-65300000D03*
X37450000Y-65300000D03*
X45450000Y-65300000D03*
X43450000Y-65300000D03*
X41450000Y-65300000D03*
X39450000Y-65300000D03*
X47450000Y-65300000D03*
X49450000Y-65300000D03*
X51450000Y-65300000D03*
X53450000Y-65300000D03*
D31*
X44140000Y-75070000D03*
D32*
X46440000Y-69370000D03*
X41840000Y-69370000D03*
X44140000Y-69370000D03*
D33*
X6800000Y-67860000D03*
X6800000Y-70400000D03*
X6800000Y-72940000D03*
X6800000Y-80560000D03*
X6800000Y-78020000D03*
X6800000Y-75480000D03*
X6800000Y-83100000D03*
X6800000Y-85640000D03*
X6800000Y-88180000D03*
X6800000Y-90720000D03*
X6800000Y-93260000D03*
X6800000Y-95800000D03*
X24600000Y-67860000D03*
X24600000Y-70400000D03*
X24600000Y-72940000D03*
X24600000Y-75480000D03*
X24600000Y-78020000D03*
X24600000Y-80560000D03*
X24600000Y-83100000D03*
X24600000Y-85640000D03*
X24600000Y-88180000D03*
X24600000Y-90720000D03*
X24600000Y-93260000D03*
X24600000Y-95800000D03*
D34*
X3220000Y-18510000D03*
X3220000Y-26110000D03*
D35*
X55750000Y-47600000D03*
D36*
X55750000Y-43500000D03*
X55750000Y-41500000D03*
X55750000Y-45500000D03*
D35*
X55750000Y-39400000D03*
D37*
X6450000Y-9250000D03*
X4450000Y-9250000D03*
X2450000Y-9250000D03*
X450000Y-9250000D03*
D38*
X59400000Y-29075000D03*
D14*
X56300000Y-22075000D03*
X51300000Y-22075000D03*
X56300000Y-36575000D03*
X53800000Y-36575000D03*
X51300000Y-36575000D03*
D38*
X48200000Y-29075000D03*
D20*
X7475000Y-26100000D03*
X5275000Y-26100000D03*
D18*
X52750000Y-30850000D03*
X52750000Y-33050000D03*
X54950000Y-30850000D03*
X54950000Y-33050000D03*
D27*
X43900000Y-78650000D03*
X45800000Y-78650000D03*
X44850000Y-81150000D03*
D18*
X48350000Y-81150000D03*
X48350000Y-83350000D03*
D39*
X36990000Y-78350000D03*
X36990000Y-79300000D03*
X36990000Y-80250000D03*
X39610000Y-78350000D03*
X39610000Y-79300000D03*
X39610000Y-80250000D03*
D40*
X45498000Y-83154500D03*
X44850000Y-83154500D03*
X44202000Y-83154500D03*
X45498000Y-84945500D03*
X44202000Y-84945500D03*
X44850000Y-84945500D03*
D17*
X53950000Y-83925980D03*
X53950000Y-79674020D03*
M02*
