M48
;DRILL file {KiCad 4.0.0-rc1-stable} date 20.6.2016 14:38:49
;FORMAT={2:4/ absolute / inch / suppress leading zeros}
FMAT,2
INCH,TZ
T1C0.020
T2C0.028
T3C0.031
T4C0.035
T5C0.039
T6C0.039
T7C0.040
T8C0.047
T9C0.063
T10C0.079
T11C0.083
T12C0.098
T13C0.126
%
G90
G05
M72
T1
X-1063Y-24724
X-492Y-21102
X-256Y-24803
X-39Y-14469
X39Y-35768
X217Y-8366
X551Y-18110
X571Y-17441
X945Y-22953
X1594Y-19193
X1673Y-22933
X2303Y-12539
X2402Y-22992
X2933Y-19783
X3051Y-12539
X3169Y-23012
X3740Y-3327
X4469Y-14094
X4508Y-6358
X5748Y-6358
X5866Y-17500
X6575Y-17520
X6614Y-20669
X6929Y-18878
X7362Y-31772
X7461Y-19449
X7579Y-11083
X8406Y-8248
X8406Y-10276
X8465Y-17323
X8957Y-5413
X9331Y-18189
X9390Y138
X9390Y-16614
X9469Y1260
X9843Y-14823
X10197Y-24803
X10640Y-16093
X10768Y-24331
X11102Y-12018
X11358Y-20728
X11516Y-15020
X11764Y669
X11929Y-18524
X12224Y-35236
X12480Y-37165
X13031Y-20748
X13130Y-14045
X13445Y-4232
X13543Y-17244
X13760Y-32776
X13780Y-20689
X13917Y669
X14087Y-36268
X14104Y-15679
X14114Y-38012
X14508Y-20591
X14705Y-9173
X14724Y-17126
X15177Y-20571
X15335Y-13878
X15591Y-27311
X15748Y-29384
X15768Y-14469
X15945Y-19114
X16280Y-9173
X16280Y-15197
X16339Y-19685
X16378Y-31654
X16417Y-22500
X16713Y-30846
X16831Y-10728
X16831Y-33465
X16949Y-32421
X17146Y-22126
X17165Y-14429
X17224Y-37933
X17303Y-17362
X17323Y-37047
X17559Y-6339
X17559Y-18701
X17677Y-11181
X17854Y-4075
X17854Y-19961
X17913Y-20650
X17913Y-22382
X18366Y-32579
X18484Y-33248
X18878Y-31004
X18917Y-12736
X18996Y-27815
X19252Y-5846
X19311Y-14469
X19606Y-20807
X19626Y-21949
X19705Y-22854
X19902Y-2520
X21220Y-22559
X21909Y-19626
X21988Y-33091
X22165Y-13012
X22224Y-26575
X22382Y-28661
X22953Y-12933
T2
X5492Y-33386
X6280Y-33386
X7067Y-33386
X13957Y-25709
X13957Y-34370
X14744Y-25709
X14744Y-34370
X15531Y-25709
X15531Y-34370
X16319Y-25709
X16319Y-34370
X17106Y-25709
X17106Y-34370
X17894Y-25709
X17894Y-34370
X18681Y-25709
X18681Y-34370
X18720Y-36575
X19469Y-25709
X19469Y-34370
X19508Y-36575
X20256Y-25709
X20256Y-34370
X21043Y-25709
X21043Y-34370
T3
X1268Y-7287
X1268Y-10280
T4
X177Y-3642
X965Y-3642
X1752Y-3642
X2539Y-3642
X21949Y-16339
X21949Y-17126
X21949Y-17913
T5
X7839Y-1791
X8839Y-1791
X9839Y-1791
X10839Y-1791
X11839Y-1791
X12839Y-1791
X13839Y-1791
X14839Y-1791
X20197Y-8691
X20197Y-14400
X21181Y-14400
X22165Y-8691
X22165Y-14400
T6
X18720Y59
X19720Y59
T7
X9852Y-2825
X10852Y-2825
X11852Y-2825
X12852Y-2825
T8
X2648Y-18907
X2677Y-26717
X2677Y-27717
X2677Y-28717
X2677Y-29717
X2677Y-30717
X2677Y-31717
X2677Y-32717
X2677Y-33717
X2677Y-34717
X2677Y-35717
X2677Y-36717
X2677Y-37717
X9685Y-26717
X9685Y-27717
X9685Y-28717
X9685Y-29717
X9685Y-30717
X9685Y-31717
X9685Y-32717
X9685Y-33717
X9685Y-34717
X9685Y-35717
X9685Y-36717
X9685Y-37717
T9
X21949Y-15512
X21949Y-18740
T12
X5630Y-1791
X5630Y-13406
X17049Y-1791
X17049Y-13406
T13
X0Y0
X0Y-37520
X22559Y0
X22559Y-37520
T10
X18976Y-11329G85X18976Y-11565
G05
X23386Y-11329G85X23386Y-11565
G05
T11
X6860Y-3041G85X6860Y-3041
G05
X6860Y-12274G85X6860Y-12274
G05
X15837Y-3041G85X15837Y-3041
G05
X15837Y-12274G85X15837Y-12274
G05
T0
M30
