G04 #@! TF.FileFunction,Copper,L2,Bot,Signal*
%FSLAX46Y46*%
G04 Gerber Fmt 4.6, Leading zero omitted, Abs format (unit mm)*
G04 Created by KiCad (PCBNEW 4.0.0-rc1-stable) date 20.6.2016 14:39:27*
%MOMM*%
G01*
G04 APERTURE LIST*
%ADD10C,0.150000*%
%ADD11O,2.200000X2.200000*%
%ADD12R,1.727200X2.032000*%
%ADD13O,1.727200X2.032000*%
%ADD14C,2.000000*%
%ADD15C,3.000000*%
%ADD16R,1.800860X3.149600*%
%ADD17R,0.900000X1.200000*%
%ADD18R,3.149600X1.800860*%
%ADD19R,1.200000X0.900000*%
%ADD20R,1.900000X2.000000*%
%ADD21C,1.900000*%
%ADD22R,0.600000X1.000000*%
%ADD23R,1.000000X0.600000*%
%ADD24C,1.500000*%
%ADD25R,1.250000X0.800100*%
%ADD26R,0.800100X1.250000*%
%ADD27C,1.300000*%
%ADD28R,1.060000X0.650000*%
%ADD29C,1.700000*%
%ADD30R,4.000000X2.500000*%
%ADD31R,1.200000X2.000000*%
%ADD32O,4.000000X2.000000*%
%ADD33C,1.600000*%
%ADD34O,3.400000X2.000000*%
%ADD35O,2.000000X1.700000*%
%ADD36O,1.300000X2.500000*%
%ADD37R,3.000000X4.000000*%
%ADD38R,1.220000X0.620000*%
%ADD39R,0.406000X0.800000*%
%ADD40C,1.200000*%
%ADD41C,1.000000*%
%ADD42C,1.500000*%
%ADD43C,0.500000*%
%ADD44C,0.400000*%
%ADD45C,0.750000*%
%ADD46C,1.250000*%
%ADD47C,0.300000*%
G04 APERTURE END LIST*
D10*
D11*
X40225000Y-31175000D03*
X17425000Y-31175000D03*
X40225000Y-7725000D03*
D12*
X25025000Y-7175000D03*
D13*
X27565000Y-7175000D03*
X30105000Y-7175000D03*
X32645000Y-7175000D03*
D11*
X17425000Y-7725000D03*
D14*
X37690000Y-4550000D03*
X35150000Y-4550000D03*
X32610000Y-4550000D03*
X30070000Y-4550000D03*
X27530000Y-4550000D03*
X24990000Y-4550000D03*
X22450000Y-4550000D03*
D15*
X43305000Y-34050000D03*
X14300000Y-34050000D03*
X43305000Y-4550000D03*
X14300000Y-4550000D03*
D14*
X19910000Y-4550000D03*
D16*
X37240000Y-74635980D03*
X37240000Y-70384020D03*
X51210000Y-74605980D03*
X51210000Y-70354020D03*
D17*
X20550000Y-82900000D03*
X20550000Y-80700000D03*
D18*
X31624020Y-96450000D03*
X35875980Y-96450000D03*
X31624020Y-92100000D03*
X35875980Y-92100000D03*
D17*
X54300000Y-8400000D03*
X54300000Y-10600000D03*
D19*
X53900000Y-55750000D03*
X51700000Y-55750000D03*
D20*
X47550000Y150000D03*
D21*
X50090000Y150000D03*
D22*
X56750000Y-8400000D03*
X56750000Y-10900000D03*
D23*
X49800000Y-97750000D03*
X47300000Y-97750000D03*
D24*
X13950000Y-84800000D03*
X15950000Y-84800000D03*
X17950000Y-84800000D03*
X49550000Y-92900000D03*
X47550000Y-92900000D03*
D25*
X39500000Y-82100000D03*
X39500000Y-84000000D03*
X37000000Y-83050000D03*
D26*
X4170000Y-23060000D03*
X2270000Y-23060000D03*
X3220000Y-20560000D03*
X48310000Y-45500000D03*
X46410000Y-45500000D03*
X47360000Y-43000000D03*
X50420000Y-43000000D03*
X52320000Y-43000000D03*
X51370000Y-45500000D03*
X49700000Y-10600000D03*
X47800000Y-10600000D03*
X48750000Y-8100000D03*
D25*
X25600000Y750000D03*
X25600000Y2650000D03*
X28100000Y1700000D03*
D19*
X3500000Y-67900000D03*
X1300000Y-67900000D03*
X3500000Y-70450000D03*
X1300000Y-70450000D03*
X30850000Y-78050000D03*
X28650000Y-78050000D03*
X52300000Y2300000D03*
X50100000Y2300000D03*
D17*
X6820000Y-20860000D03*
X6820000Y-23060000D03*
X59150000Y-8350000D03*
X59150000Y-10550000D03*
X52050000Y-10600000D03*
X52050000Y-8400000D03*
D19*
X46240000Y-47520000D03*
X48440000Y-47520000D03*
X50130000Y-40880000D03*
X52330000Y-40880000D03*
D17*
X59400000Y-39300000D03*
X59400000Y-41500000D03*
D19*
X36650000Y1700000D03*
X38850000Y1700000D03*
X28500000Y-1850000D03*
X26300000Y-1850000D03*
X23650000Y-1850000D03*
X21450000Y-1850000D03*
D27*
X6725000Y-48025000D03*
D28*
X42150000Y-93950000D03*
X42150000Y-94900000D03*
X42150000Y-95850000D03*
X39950000Y-95850000D03*
X39950000Y-93950000D03*
D29*
X35450000Y-87300000D03*
X37450000Y-87300000D03*
X39450000Y-87300000D03*
X41450000Y-87300000D03*
X43450000Y-87300000D03*
X45450000Y-87300000D03*
X47450000Y-87300000D03*
X49450000Y-87300000D03*
X51450000Y-87300000D03*
X53450000Y-87300000D03*
X35450000Y-65300000D03*
X37450000Y-65300000D03*
X45450000Y-65300000D03*
X43450000Y-65300000D03*
X41450000Y-65300000D03*
X39450000Y-65300000D03*
X47450000Y-65300000D03*
X49450000Y-65300000D03*
X51450000Y-65300000D03*
X53450000Y-65300000D03*
D30*
X44140000Y-75070000D03*
D31*
X46440000Y-69370000D03*
X41840000Y-69370000D03*
X44140000Y-69370000D03*
D32*
X6800000Y-67860000D03*
X6800000Y-70400000D03*
X6800000Y-72940000D03*
X6800000Y-80560000D03*
X6800000Y-78020000D03*
X6800000Y-75480000D03*
X6800000Y-83100000D03*
X6800000Y-85640000D03*
X6800000Y-88180000D03*
X6800000Y-90720000D03*
X6800000Y-93260000D03*
X6800000Y-95800000D03*
X24600000Y-67860000D03*
X24600000Y-70400000D03*
X24600000Y-72940000D03*
X24600000Y-75480000D03*
X24600000Y-78020000D03*
X24600000Y-80560000D03*
X24600000Y-83100000D03*
X24600000Y-85640000D03*
X24600000Y-88180000D03*
X24600000Y-90720000D03*
X24600000Y-93260000D03*
X24600000Y-95800000D03*
D33*
X3220000Y-18510000D03*
X3220000Y-26110000D03*
D34*
X55750000Y-47600000D03*
D35*
X55750000Y-43500000D03*
X55750000Y-41500000D03*
X55750000Y-45500000D03*
D34*
X55750000Y-39400000D03*
D36*
X6450000Y-9250000D03*
X4450000Y-9250000D03*
X2450000Y-9250000D03*
X450000Y-9250000D03*
D37*
X59400000Y-29075000D03*
D14*
X56300000Y-22075000D03*
X51300000Y-22075000D03*
X56300000Y-36575000D03*
X53800000Y-36575000D03*
X51300000Y-36575000D03*
D37*
X48200000Y-29075000D03*
D19*
X7475000Y-26100000D03*
X5275000Y-26100000D03*
D17*
X52750000Y-30850000D03*
X52750000Y-33050000D03*
X54950000Y-30850000D03*
X54950000Y-33050000D03*
D26*
X43900000Y-78650000D03*
X45800000Y-78650000D03*
X44850000Y-81150000D03*
D17*
X48350000Y-81150000D03*
X48350000Y-83350000D03*
D38*
X36990000Y-78350000D03*
X36990000Y-79300000D03*
X36990000Y-80250000D03*
X39610000Y-78350000D03*
X39610000Y-79300000D03*
X39610000Y-80250000D03*
D39*
X45498000Y-83154500D03*
X44850000Y-83154500D03*
X44202000Y-83154500D03*
X45498000Y-84945500D03*
X44202000Y-84945500D03*
X44850000Y-84945500D03*
D16*
X53950000Y-83925980D03*
X53950000Y-79674020D03*
D40*
X33100000Y-52700000D03*
X27025000Y-40875000D03*
X55850000Y-84050000D03*
X-1250000Y-53600000D03*
X55650000Y-49850000D03*
X50050000Y-58050000D03*
X34950000Y-83250000D03*
X40000000Y-74635980D03*
X11450000Y-16150000D03*
X9500000Y-8450000D03*
X14600000Y-16150000D03*
X7450000Y-50250000D03*
X4050000Y-48750000D03*
X49050000Y-36750000D03*
X48050000Y-32350000D03*
X37400000Y-43500000D03*
X28200000Y-30525000D03*
X56850000Y-72800000D03*
X44000000Y-94100000D03*
X31700000Y-94400000D03*
X44600000Y-47500000D03*
X49800000Y-52850000D03*
X18700000Y-80700000D03*
X53900000Y-57300000D03*
X42750000Y-27250000D03*
X550000Y-21250000D03*
X44600000Y-16100000D03*
X24050000Y3200000D03*
X34150000Y-10750000D03*
X58300000Y-32850000D03*
X23850000Y-42200000D03*
X46650000Y-82750000D03*
X100000Y-90850000D03*
X48250000Y-70650000D03*
X49850000Y-55750000D03*
X41350000Y-38600000D03*
X29250000Y-38150000D03*
X25000000Y-37650000D03*
X22750000Y-13750000D03*
X27350000Y-61800000D03*
X23700000Y-46200000D03*
X11350000Y-35800000D03*
X35780000Y-92120000D03*
X34400000Y-43800000D03*
X35000000Y-52550000D03*
X35850000Y-96550000D03*
X25900000Y-63000000D03*
X21500000Y-44000000D03*
X35825000Y-39825000D03*
X33350000Y-35675000D03*
X16800000Y-52500000D03*
X28850000Y-52650000D03*
X16700000Y-44500000D03*
X5850000Y-31850000D03*
X30300000Y-47050000D03*
X7750000Y-31850000D03*
X14900000Y-44450000D03*
X43750000Y-96350000D03*
X-2700000Y-62800000D03*
X19250000Y-28150000D03*
X4250000Y-58250000D03*
X45500000Y-56850000D03*
X8050000Y-58450000D03*
X43550000Y-56200000D03*
X2400000Y-58300000D03*
X45500000Y-52450000D03*
X41700000Y-57150000D03*
X6100000Y-58400000D03*
X35350000Y1700000D03*
X1400000Y-46000000D03*
X18950000Y-49400000D03*
X17600000Y-47950000D03*
X1450000Y-44300000D03*
X45350000Y-50700000D03*
X56450000Y-67500000D03*
X39600000Y-69370000D03*
X29880000Y1700000D03*
X47950000Y-78750000D03*
X41600000Y-80400000D03*
X23850000Y350000D03*
X-100000Y-36750000D03*
X-650000Y-63000000D03*
X38550000Y-52250000D03*
X43950000Y-44100000D03*
X50550000Y-6400000D03*
X45350000Y-10350000D03*
X21350000Y-20950000D03*
X21350000Y-26100000D03*
X48900000Y-14850000D03*
X41500000Y-50000000D03*
X40050000Y-36750000D03*
X40500000Y-48550000D03*
X38950000Y-35250000D03*
X37350000Y-23300000D03*
X41350000Y-23300000D03*
X36850000Y-52300000D03*
X43600000Y-36650000D03*
X44900000Y-28400000D03*
X56300000Y-33050000D03*
X42750000Y-85000000D03*
X31050000Y-89500000D03*
X42450000Y-78350000D03*
X43050000Y-82350000D03*
X46950000Y-84450000D03*
D41*
X27025000Y-40875000D02*
X28175000Y-40875000D01*
X33100000Y-45800000D02*
X33100000Y-52700000D01*
X28175000Y-40875000D02*
X33100000Y-45800000D01*
X27025000Y-40875000D02*
X27000000Y-40900000D01*
D42*
X55850000Y-84050000D02*
X55725980Y-83925980D01*
X55725980Y-83925980D02*
X53950000Y-83925980D01*
D43*
X56850000Y-72800000D02*
X57900000Y-71750000D01*
X57900000Y-52100000D02*
X55650000Y-49850000D01*
X57900000Y-71750000D02*
X57900000Y-52100000D01*
D41*
X42975000Y-30075000D02*
X43000000Y-30100000D01*
X43700000Y-30100000D02*
X45950000Y-32350000D01*
X43000000Y-30100000D02*
X43700000Y-30100000D01*
X42975000Y-30075000D02*
X40850000Y-27950000D01*
X40850000Y-27200000D02*
X40850000Y-27950000D01*
X30075000Y-28650000D02*
X33125000Y-25600000D01*
X39250000Y-25600000D02*
X40850000Y-27200000D01*
X33125000Y-25600000D02*
X39250000Y-25600000D01*
X28200000Y-30525000D02*
X30075000Y-28650000D01*
X48050000Y-32350000D02*
X45950000Y-32350000D01*
X48650000Y-37150000D02*
X49050000Y-36750000D01*
X48650000Y-37150000D02*
X48650000Y-38950000D01*
X46410000Y-45500000D02*
X45600000Y-44690000D01*
X47400000Y-38950000D02*
X48650000Y-38950000D01*
X45600000Y-40750000D02*
X47400000Y-38950000D01*
X45600000Y-44690000D02*
X45600000Y-40750000D01*
X52250000Y-38950000D02*
X53800000Y-37400000D01*
X48650000Y-38950000D02*
X52250000Y-38950000D01*
X53800000Y-37400000D02*
X53800000Y-36575000D01*
X28200000Y-30500000D02*
X28200000Y-30525000D01*
X28200000Y-30500000D02*
X31350000Y-33650000D01*
X31350000Y-33650000D02*
X31350000Y-37950000D01*
X31350000Y-37950000D02*
X36900000Y-43500000D01*
X37400000Y-43500000D02*
X36900000Y-43500000D01*
D42*
X55044020Y-74605980D02*
X56850000Y-72800000D01*
X51210000Y-74605980D02*
X55044020Y-74605980D01*
D41*
X45800000Y-78650000D02*
X45800000Y-76730000D01*
X45800000Y-76730000D02*
X44140000Y-75070000D01*
D43*
X36990000Y-78350000D02*
X36990000Y-74885980D01*
X36990000Y-74885980D02*
X37240000Y-74635980D01*
X36990000Y-78350000D02*
X36990000Y-79300000D01*
D42*
X31700000Y-94400000D02*
X31624020Y-94400000D01*
X31624020Y-94400000D02*
X31700000Y-94400000D01*
X31700000Y-94400000D02*
X31624020Y-94400000D01*
X44000000Y-94100000D02*
X44800000Y-94900000D01*
X44800000Y-94900000D02*
X48400000Y-94900000D01*
X49550000Y-92900000D02*
X49550000Y-93750000D01*
X48400000Y-94900000D02*
X49550000Y-93750000D01*
D43*
X43200000Y-94900000D02*
X44000000Y-94100000D01*
X43200000Y-94900000D02*
X42150000Y-94900000D01*
D41*
X44600000Y-47500000D02*
X44620000Y-47520000D01*
X44620000Y-47520000D02*
X46240000Y-47520000D01*
X53900000Y-54800000D02*
X51950000Y-52850000D01*
X51950000Y-52850000D02*
X49800000Y-52850000D01*
X53900000Y-54800000D02*
X53900000Y-55750000D01*
D42*
X31624020Y-92825980D02*
X31624020Y-92100000D01*
X31624020Y-92100000D02*
X31624020Y-94400000D01*
X31624020Y-94400000D02*
X31624020Y-96450000D01*
X20550000Y-80700000D02*
X18700000Y-80700000D01*
X13950000Y-84800000D02*
X13950000Y-87950000D01*
X13950000Y-87950000D02*
X14180000Y-88180000D01*
X6800000Y-88180000D02*
X14180000Y-88180000D01*
X19260000Y-93260000D02*
X24600000Y-93260000D01*
X14180000Y-88180000D02*
X19260000Y-93260000D01*
D41*
X35450000Y-65300000D02*
X35450000Y-66650000D01*
X44140000Y-67540000D02*
X44140000Y-69370000D01*
X43750000Y-67150000D02*
X44140000Y-67540000D01*
X35950000Y-67150000D02*
X43750000Y-67150000D01*
X35450000Y-66650000D02*
X35950000Y-67150000D01*
D42*
X44140000Y-75070000D02*
X50745980Y-75070000D01*
X50745980Y-75070000D02*
X51210000Y-74605980D01*
X37240000Y-74635980D02*
X40000000Y-74635980D01*
X40000000Y-74635980D02*
X43705980Y-74635980D01*
X43705980Y-74635980D02*
X44140000Y-75070000D01*
D41*
X44140000Y-69370000D02*
X44140000Y-75070000D01*
X53900000Y-55750000D02*
X53900000Y-57300000D01*
X53800000Y-36575000D02*
X53800000Y-35700000D01*
X53800000Y-35700000D02*
X54850000Y-34650000D01*
X59400000Y-36000000D02*
X59400000Y-39300000D01*
X58050000Y-34650000D02*
X59400000Y-36000000D01*
X54850000Y-34650000D02*
X58050000Y-34650000D01*
X46410000Y-45500000D02*
X46240000Y-45670000D01*
X46240000Y-45670000D02*
X46240000Y-47520000D01*
X42750000Y-27250000D02*
X42750000Y-25100000D01*
X51300000Y-22075000D02*
X48475000Y-22075000D01*
X45775000Y-22075000D02*
X48475000Y-22075000D01*
X42750000Y-25100000D02*
X45775000Y-22075000D01*
X550000Y-21250000D02*
X540000Y-21240000D01*
X540000Y-21240000D02*
X450000Y-21240000D01*
X44600000Y-12650000D02*
X44600000Y-16100000D01*
X37690000Y-8510000D02*
X37690000Y-10500000D01*
X37650000Y-10700000D02*
X37650000Y-10500000D01*
X37650000Y-10540000D02*
X37650000Y-10700000D01*
X37690000Y-10500000D02*
X37650000Y-10540000D01*
X47800000Y-11800000D02*
X47800000Y-12650000D01*
X47850000Y-12700000D02*
X47850000Y-12650000D01*
X47800000Y-12650000D02*
X47850000Y-12700000D01*
X35700000Y-10500000D02*
X37650000Y-10500000D01*
X37650000Y-10500000D02*
X39750000Y-10500000D01*
X41900000Y-12650000D02*
X44600000Y-12650000D01*
X44600000Y-12650000D02*
X47850000Y-12650000D01*
X39750000Y-10500000D02*
X41900000Y-12650000D01*
X47850000Y-12650000D02*
X48650000Y-12650000D01*
X47800000Y-10600000D02*
X47800000Y-11800000D01*
X54300000Y-12050000D02*
X54300000Y-10600000D01*
X48650000Y-12650000D02*
X53700000Y-12650000D01*
X53700000Y-12650000D02*
X54300000Y-12050000D01*
X24050000Y2650000D02*
X24050000Y3200000D01*
X34150000Y-10750000D02*
X34150000Y-10500000D01*
X34150000Y-10500000D02*
X34150000Y-10750000D01*
X34150000Y-10750000D02*
X34150000Y-10500000D01*
X6820000Y-16150000D02*
X4870000Y-14200000D01*
X4750000Y-14150000D02*
X4750000Y-14200000D01*
X4800000Y-14200000D02*
X4750000Y-14150000D01*
X4870000Y-14200000D02*
X4800000Y-14200000D01*
X27565000Y-10450000D02*
X27565000Y-11885000D01*
X23300000Y-16150000D02*
X14600000Y-16150000D01*
X14600000Y-16150000D02*
X11450000Y-16150000D01*
X11450000Y-16150000D02*
X6820000Y-16150000D01*
X27565000Y-11885000D02*
X23300000Y-16150000D01*
X27565000Y-8985000D02*
X27565000Y-10450000D01*
X27565000Y-10450000D02*
X27565000Y-10485000D01*
X27565000Y-7175000D02*
X27565000Y-8985000D01*
X29080000Y-10500000D02*
X34150000Y-10500000D01*
X34150000Y-10500000D02*
X35700000Y-10500000D01*
X27580000Y-10500000D02*
X29080000Y-10500000D01*
X27565000Y-10485000D02*
X27580000Y-10500000D01*
X37690000Y-8510000D02*
X37690000Y-4550000D01*
X6820000Y-20860000D02*
X6820000Y-16150000D01*
X4750000Y-14200000D02*
X450000Y-14200000D01*
X450000Y-9250000D02*
X450000Y-14200000D01*
X450000Y-14200000D02*
X450000Y-21240000D01*
X450000Y-21240000D02*
X2270000Y-23060000D01*
D44*
X2270000Y-23060000D02*
X2270000Y-22080000D01*
X5540000Y-20860000D02*
X6820000Y-20860000D01*
X4600000Y-21800000D02*
X5540000Y-20860000D01*
X2550000Y-21800000D02*
X4600000Y-21800000D01*
X2270000Y-22080000D02*
X2550000Y-21800000D01*
D41*
X21450000Y-1850000D02*
X21450000Y1350000D01*
X22750000Y2650000D02*
X24050000Y2650000D01*
X24050000Y2650000D02*
X25600000Y2650000D01*
X21450000Y1350000D02*
X22750000Y2650000D01*
X56300000Y-30850000D02*
X58300000Y-32850000D01*
X54950000Y-30850000D02*
X56300000Y-30850000D01*
X23850000Y-42200000D02*
X23850000Y-40650000D01*
X23850000Y-40650000D02*
X25000000Y-39500000D01*
D45*
X46245500Y-83154500D02*
X46650000Y-82750000D01*
X45745500Y-83154500D02*
X46245500Y-83154500D01*
D41*
X5900000Y-60100000D02*
X22100000Y-60100000D01*
D46*
X1300000Y-64700000D02*
X5900000Y-60100000D01*
X1300000Y-67900000D02*
X1300000Y-64700000D01*
D41*
X22100000Y-60100000D02*
X53450000Y-60100000D01*
X53300000Y-60200000D02*
X53450000Y-60200000D01*
X53350000Y-60200000D02*
X53300000Y-60200000D01*
X53450000Y-60100000D02*
X53350000Y-60200000D01*
X22100000Y-60100000D02*
X22150000Y-60100000D01*
D44*
X45498000Y-83154500D02*
X45745500Y-83154500D01*
X45745500Y-83154500D02*
X45750000Y-83150000D01*
D46*
X1300000Y-89650000D02*
X100000Y-90850000D01*
X1300000Y-70450000D02*
X1300000Y-89650000D01*
D42*
X48250000Y-69370000D02*
X48250000Y-70650000D01*
X17950000Y-84800000D02*
X17950000Y-83850000D01*
X18900000Y-82900000D02*
X20550000Y-82900000D01*
X17950000Y-83850000D02*
X18900000Y-82900000D01*
X53450000Y-65300000D02*
X53450000Y-68114020D01*
X53450000Y-68114020D02*
X51210000Y-70354020D01*
X46440000Y-69370000D02*
X48250000Y-69370000D01*
X48250000Y-69370000D02*
X50225980Y-69370000D01*
X50225980Y-69370000D02*
X51210000Y-70354020D01*
D41*
X51700000Y-55750000D02*
X51700000Y-57850000D01*
X51700000Y-57850000D02*
X53450000Y-59600000D01*
X53450000Y-59600000D02*
X53450000Y-60200000D01*
X53450000Y-60200000D02*
X53450000Y-65300000D01*
X51700000Y-55750000D02*
X49850000Y-55750000D01*
X52750000Y-30850000D02*
X51800000Y-30850000D01*
X44050000Y-38600000D02*
X41350000Y-38600000D01*
X51800000Y-30850000D02*
X44050000Y-38600000D01*
X25000000Y-39500000D02*
X25000000Y-37650000D01*
X25500000Y-38150000D02*
X25000000Y-37650000D01*
X29250000Y-38150000D02*
X25500000Y-38150000D01*
X52750000Y-30850000D02*
X54950000Y-30850000D01*
X21600000Y-12650000D02*
X22700000Y-13750000D01*
X22700000Y-13750000D02*
X22750000Y-13750000D01*
X28500000Y-1850000D02*
X34400000Y-1850000D01*
X35150000Y-2600000D02*
X35150000Y-4550000D01*
X34400000Y-1850000D02*
X35150000Y-2600000D01*
X21700000Y-12550000D02*
X21600000Y-12650000D01*
X25025000Y-9225000D02*
X21700000Y-12550000D01*
X3150000Y-12550000D02*
X2450000Y-11850000D01*
X2450000Y-9250000D02*
X2450000Y-11850000D01*
X25025000Y-9225000D02*
X25025000Y-7175000D01*
X3250000Y-12650000D02*
X3150000Y-12550000D01*
X21600000Y-12650000D02*
X3250000Y-12650000D01*
D46*
X1300000Y-67900000D02*
X1300000Y-70450000D01*
D42*
X27350000Y-61800000D02*
X27900000Y-62350000D01*
X29850000Y-73700000D02*
X29850000Y-66300000D01*
X30850000Y-74700000D02*
X29850000Y-73700000D01*
X30850000Y-78050000D02*
X30850000Y-74700000D01*
X27900000Y-64350000D02*
X29850000Y-66300000D01*
X27900000Y-62350000D02*
X27900000Y-64350000D01*
D41*
X18900000Y-44250000D02*
X20850000Y-46200000D01*
X20850000Y-46200000D02*
X23700000Y-46200000D01*
X11350000Y-35800000D02*
X11350000Y-36700000D01*
X11350000Y-36700000D02*
X18900000Y-44250000D01*
D42*
X30850000Y-78050000D02*
X34050000Y-78050000D01*
X35600000Y-80800000D02*
X36700000Y-80800000D01*
X35000000Y-80200000D02*
X35600000Y-80800000D01*
X35000000Y-79000000D02*
X35000000Y-80200000D01*
X34050000Y-78050000D02*
X35000000Y-79000000D01*
D43*
X36990000Y-80250000D02*
X36700000Y-80540000D01*
X36700000Y-80540000D02*
X36700000Y-80800000D01*
X36700000Y-80800000D02*
X36700000Y-80700000D01*
D42*
X36700000Y-82750000D02*
X36700000Y-80700000D01*
X37000000Y-83050000D02*
X36700000Y-82750000D01*
X37000000Y-83050000D02*
X37000000Y-84000000D01*
X33100000Y-88750000D02*
X33100000Y-86500000D01*
X33100000Y-88750000D02*
X35875980Y-91525980D01*
X34600000Y-85000000D02*
X33100000Y-86500000D01*
X36000000Y-85000000D02*
X34600000Y-85000000D01*
X37000000Y-84000000D02*
X36000000Y-85000000D01*
X35875980Y-92100000D02*
X35875980Y-91525980D01*
D43*
X37000000Y-80260000D02*
X36990000Y-80250000D01*
D42*
X35875980Y-92100000D02*
X46750000Y-92100000D01*
X46750000Y-92100000D02*
X47550000Y-92900000D01*
X39950000Y-93950000D02*
X36250000Y-93950000D01*
X35875980Y-93575980D02*
X35875980Y-92100000D01*
X36250000Y-93950000D02*
X35875980Y-93575980D01*
X35780000Y-92120000D02*
X35800000Y-92100000D01*
X35800000Y-92100000D02*
X35875980Y-92100000D01*
D45*
X34400000Y-43800000D02*
X35000000Y-44400000D01*
X35000000Y-44400000D02*
X35000000Y-52550000D01*
D42*
X35850000Y-96550000D02*
X35875980Y-96524020D01*
X35875980Y-96524020D02*
X35875980Y-96450000D01*
X39450000Y-96450000D02*
X41300000Y-98300000D01*
X45850000Y-97750000D02*
X47300000Y-97750000D01*
X45300000Y-98300000D02*
X45850000Y-97750000D01*
X41300000Y-98300000D02*
X45300000Y-98300000D01*
D43*
X39950000Y-95850000D02*
X39950000Y-95950000D01*
X39950000Y-95950000D02*
X39450000Y-96450000D01*
D42*
X35875980Y-96450000D02*
X39450000Y-96450000D01*
X39450000Y-96450000D02*
X39800000Y-96450000D01*
D41*
X54300000Y-8400000D02*
X56750000Y-8400000D01*
X52050000Y-8400000D02*
X54300000Y-8400000D01*
X25900000Y-63000000D02*
X25900000Y-65200000D01*
X25900000Y-65200000D02*
X27850000Y-67150000D01*
X27850000Y-67150000D02*
X27850000Y-71750000D01*
X26660000Y-72940000D02*
X24600000Y-72940000D01*
X26660000Y-72940000D02*
X27850000Y-71750000D01*
X21500000Y-37950000D02*
X24090000Y-35360000D01*
X24090000Y-23060000D02*
X24090000Y-35360000D01*
X21500000Y-44000000D02*
X21500000Y-37950000D01*
X23040000Y-23060000D02*
X24090000Y-23060000D01*
X6820000Y-23060000D02*
X23040000Y-23060000D01*
X24090000Y-23060000D02*
X27350000Y-19800000D01*
X60800000Y-11950000D02*
X52950000Y-19800000D01*
X52950000Y-19800000D02*
X45350000Y-19800000D01*
X60200000Y-8350000D02*
X60800000Y-8950000D01*
X60200000Y-8350000D02*
X59150000Y-8350000D01*
X60800000Y-8950000D02*
X60800000Y-11950000D01*
X30900000Y-19800000D02*
X45350000Y-19800000D01*
X30900000Y-19800000D02*
X27350000Y-19800000D01*
D42*
X24600000Y-72940000D02*
X22910000Y-72940000D01*
X22910000Y-72940000D02*
X15950000Y-79900000D01*
X15950000Y-79900000D02*
X15950000Y-84800000D01*
D41*
X4170000Y-23060000D02*
X6820000Y-23060000D01*
X56750000Y-10900000D02*
X58800000Y-10900000D01*
X58800000Y-10900000D02*
X59150000Y-10550000D01*
X33350000Y-37350000D02*
X35825000Y-39825000D01*
X33350000Y-35675000D02*
X33350000Y-37350000D01*
X33350000Y-35675000D02*
X33350000Y-35650000D01*
D43*
X22700000Y-52500000D02*
X28700000Y-52500000D01*
X16800000Y-52500000D02*
X22700000Y-52500000D01*
X28700000Y-52500000D02*
X28850000Y-52650000D01*
D41*
X4450000Y-6950000D02*
X11000000Y-400000D01*
D43*
X5850000Y-31850000D02*
X5850000Y-31100000D01*
X9800000Y-37600000D02*
X16700000Y-44500000D01*
X9800000Y-31400000D02*
X9800000Y-37600000D01*
X8650000Y-30250000D02*
X9800000Y-31400000D01*
X6700000Y-30250000D02*
X8650000Y-30250000D01*
X5850000Y-31100000D02*
X6700000Y-30250000D01*
D41*
X4450000Y-9250000D02*
X4450000Y-6950000D01*
X15760000Y-400000D02*
X19910000Y-4550000D01*
X11000000Y-400000D02*
X15760000Y-400000D01*
X3500000Y-67900000D02*
X6760000Y-67900000D01*
X6760000Y-67900000D02*
X6800000Y-67860000D01*
D43*
X24600000Y-47550000D02*
X29800000Y-47550000D01*
X19600000Y-47550000D02*
X24600000Y-47550000D01*
X18650000Y-46600000D02*
X19600000Y-47550000D01*
X18650000Y-46600000D02*
X15500000Y-46600000D01*
X14900000Y-44450000D02*
X14900000Y-46000000D01*
X15500000Y-46600000D02*
X14900000Y-46000000D01*
X29800000Y-47550000D02*
X30300000Y-47050000D01*
X7750000Y-31850000D02*
X8550000Y-32650000D01*
X8750000Y-38300000D02*
X14900000Y-44450000D01*
X8550000Y-38100000D02*
X8750000Y-38300000D01*
X8550000Y-32650000D02*
X8550000Y-38100000D01*
D41*
X6450000Y-9250000D02*
X6450000Y-10450000D01*
X6450000Y-10450000D02*
X6950000Y-10950000D01*
X6950000Y-10950000D02*
X8150000Y-10950000D01*
X22450000Y-4550000D02*
X22450000Y-8750000D01*
X20250000Y-10950000D02*
X8150000Y-10950000D01*
X22450000Y-8750000D02*
X20250000Y-10950000D01*
X3500000Y-70450000D02*
X6750000Y-70450000D01*
X6750000Y-70450000D02*
X6800000Y-70400000D01*
D43*
X42650000Y-96350000D02*
X43750000Y-96350000D01*
X42650000Y-96350000D02*
X42150000Y-95850000D01*
D45*
X3400000Y-30200000D02*
X-2700000Y-36300000D01*
X-2700000Y-36300000D02*
X-2700000Y-42500000D01*
X-2700000Y-42500000D02*
X-2700000Y-54350000D01*
X9000000Y-28150000D02*
X14450000Y-28150000D01*
X-2700000Y-62800000D02*
X-2700000Y-54350000D01*
X19250000Y-28150000D02*
X14450000Y-28150000D01*
X5450000Y-28150000D02*
X9000000Y-28150000D01*
X3400000Y-30200000D02*
X5450000Y-28150000D01*
D43*
X4250000Y-58250000D02*
X4250000Y-57100000D01*
X42050000Y-54750000D02*
X44700000Y-54750000D01*
X40350000Y-56450000D02*
X42050000Y-54750000D01*
X10100000Y-56450000D02*
X40350000Y-56450000D01*
X9000000Y-55350000D02*
X10100000Y-56450000D01*
X6000000Y-55350000D02*
X9000000Y-55350000D01*
X4250000Y-57100000D02*
X6000000Y-55350000D01*
X45500000Y-56850000D02*
X45500000Y-55550000D01*
X45500000Y-55550000D02*
X44700000Y-54750000D01*
X42900000Y-58200000D02*
X42400000Y-58700000D01*
X42900000Y-58200000D02*
X43550000Y-57550000D01*
X43550000Y-57550000D02*
X43550000Y-56200000D01*
X8300000Y-58700000D02*
X8050000Y-58450000D01*
X9100000Y-58700000D02*
X8300000Y-58700000D01*
X42400000Y-58700000D02*
X9100000Y-58700000D01*
X45500000Y-52450000D02*
X45500000Y-52900000D01*
X44800000Y-53600000D02*
X41200000Y-53600000D01*
X45500000Y-52900000D02*
X44800000Y-53600000D01*
X2400000Y-58300000D02*
X2400000Y-57100000D01*
X2400000Y-57100000D02*
X5300000Y-54200000D01*
X5300000Y-54200000D02*
X9950000Y-54200000D01*
X9950000Y-54200000D02*
X11000000Y-55250000D01*
X11000000Y-55250000D02*
X39550000Y-55250000D01*
X39550000Y-55250000D02*
X41200000Y-53600000D01*
X41700000Y-57150000D02*
X41200000Y-57650000D01*
X8250000Y-56450000D02*
X6650000Y-56450000D01*
X9450000Y-57650000D02*
X8250000Y-56450000D01*
X41200000Y-57650000D02*
X9450000Y-57650000D01*
X6100000Y-57000000D02*
X6650000Y-56450000D01*
X6100000Y-58400000D02*
X6100000Y-57000000D01*
D41*
X48750000Y-8100000D02*
X48750000Y-2850000D01*
X47550000Y-1650000D02*
X47550000Y150000D01*
X48750000Y-2850000D02*
X47550000Y-1650000D01*
X50100000Y2300000D02*
X50100000Y160000D01*
X50100000Y160000D02*
X50090000Y150000D01*
X35350000Y1700000D02*
X36650000Y1700000D01*
D43*
X7350000Y-46000000D02*
X1400000Y-46000000D01*
X10750000Y-49400000D02*
X18950000Y-49400000D01*
X7350000Y-46000000D02*
X9150000Y-47800000D01*
X9150000Y-47800000D02*
X10750000Y-49400000D01*
X10950000Y-47950000D02*
X17600000Y-47950000D01*
X1450000Y-44300000D02*
X7300000Y-44300000D01*
X7300000Y-44300000D02*
X10150000Y-47150000D01*
X10150000Y-47150000D02*
X10950000Y-47950000D01*
D41*
X3220000Y-20560000D02*
X3220000Y-18510000D01*
X45350000Y-50700000D02*
X48800000Y-50700000D01*
X49600000Y-49900000D02*
X52600000Y-49900000D01*
X48800000Y-50700000D02*
X49600000Y-49900000D01*
D42*
X56450000Y-67500000D02*
X56450000Y-65400000D01*
X52550000Y-49850000D02*
X52600000Y-49900000D01*
X52600000Y-49900000D02*
X56450000Y-53750000D01*
X56450000Y-53750000D02*
X56450000Y-65400000D01*
X52550000Y-45500000D02*
X52550000Y-49850000D01*
X55750000Y-45500000D02*
X52550000Y-45500000D01*
X52550000Y-45500000D02*
X51370000Y-45500000D01*
X41840000Y-69370000D02*
X39600000Y-69370000D01*
X39600000Y-69370000D02*
X38254020Y-69370000D01*
X38254020Y-69370000D02*
X37240000Y-70384020D01*
D41*
X29880000Y1700000D02*
X28100000Y1700000D01*
D42*
X54750000Y-78750000D02*
X59350000Y-78750000D01*
D47*
X41175000Y-80775000D02*
X41550000Y-80400000D01*
X41550000Y-80400000D02*
X41600000Y-80400000D01*
D42*
X47950000Y-78750000D02*
X54750000Y-78750000D01*
X56200000Y-88600000D02*
X59350000Y-85450000D01*
X56200000Y-88650000D02*
X51900000Y-92950000D01*
X49800000Y-97750000D02*
X49800000Y-97150000D01*
X51900000Y-95050000D02*
X51900000Y-92950000D01*
X49800000Y-97150000D02*
X51900000Y-95050000D01*
X56200000Y-88600000D02*
X56200000Y-88650000D01*
X59350000Y-85450000D02*
X59350000Y-78600000D01*
X59350000Y-78600000D02*
X59350000Y-75850000D01*
X59350000Y-45200000D02*
X59350000Y-75850000D01*
X57650000Y-43500000D02*
X59350000Y-45200000D01*
X55750000Y-43500000D02*
X57650000Y-43500000D01*
D43*
X39610000Y-80250000D02*
X39610000Y-80600000D01*
D41*
X41400000Y-81000000D02*
X41175000Y-80775000D01*
X41175000Y-80775000D02*
X41000000Y-80600000D01*
X41000000Y-80600000D02*
X39500000Y-80600000D01*
X40750000Y-84000000D02*
X39500000Y-84000000D01*
X41400000Y-83350000D02*
X41400000Y-81700000D01*
X40750000Y-84000000D02*
X41400000Y-83350000D01*
X41400000Y-81700000D02*
X41400000Y-81000000D01*
D43*
X39610000Y-80600000D02*
X39500000Y-80600000D01*
X39610000Y-80250000D02*
X39610000Y-80260000D01*
D41*
X52320000Y-43000000D02*
X52820000Y-43500000D01*
X52820000Y-43500000D02*
X55750000Y-43500000D01*
X52330000Y-40880000D02*
X52330000Y-42990000D01*
X52330000Y-42990000D02*
X52320000Y-43000000D01*
D43*
X35750000Y-53950000D02*
X39000000Y-53950000D01*
X43850000Y-49800000D02*
X44790000Y-48860000D01*
X43850000Y-51950000D02*
X43850000Y-49800000D01*
X43300000Y-52500000D02*
X43850000Y-51950000D01*
X40450000Y-52500000D02*
X43300000Y-52500000D01*
X39000000Y-53950000D02*
X40450000Y-52500000D01*
X48440000Y-47520000D02*
X48440000Y-48310000D01*
X48440000Y-48310000D02*
X47890000Y-48860000D01*
X35750000Y-53950000D02*
X11750000Y-53950000D01*
X11750000Y-53950000D02*
X10950000Y-53150000D01*
X10950000Y-53150000D02*
X4250000Y-53150000D01*
X2825000Y-54575000D02*
X1950000Y-55450000D01*
X4250000Y-53150000D02*
X2825000Y-54575000D01*
X44790000Y-48860000D02*
X47890000Y-48860000D01*
X-100000Y-52600000D02*
X-100000Y-53400000D01*
D41*
X-100000Y-43350000D02*
X-100000Y-52600000D01*
X25600000Y750000D02*
X24250000Y750000D01*
X24250000Y750000D02*
X23850000Y350000D01*
X-100000Y-43350000D02*
X-100000Y-36750000D01*
D43*
X-100000Y-53400000D02*
X1950000Y-55450000D01*
X1950000Y-55450000D02*
X750000Y-56650000D01*
X750000Y-61600000D02*
X-650000Y-63000000D01*
X750000Y-56650000D02*
X750000Y-61600000D01*
D41*
X48310000Y-45500000D02*
X48440000Y-45630000D01*
X48440000Y-45630000D02*
X48440000Y-47520000D01*
X47360000Y-43000000D02*
X50420000Y-43000000D01*
X50130000Y-40880000D02*
X50130000Y-41780000D01*
X50420000Y-42070000D02*
X50420000Y-43000000D01*
X50130000Y-41780000D02*
X50420000Y-42070000D01*
X52050000Y-10600000D02*
X49700000Y-10600000D01*
D43*
X43950000Y-44100000D02*
X43350000Y-44700000D01*
X43350000Y-44700000D02*
X43350000Y-46750000D01*
X38550000Y-52250000D02*
X39350000Y-51450000D01*
X43350000Y-48750000D02*
X43350000Y-47150000D01*
X42750000Y-49350000D02*
X43350000Y-48750000D01*
X42750000Y-50950000D02*
X42750000Y-49350000D01*
X42250000Y-51450000D02*
X42750000Y-50950000D01*
X39350000Y-51450000D02*
X42250000Y-51450000D01*
X43350000Y-47150000D02*
X43350000Y-46750000D01*
D41*
X55750000Y-41500000D02*
X59400000Y-41500000D01*
D42*
X24600000Y-78020000D02*
X28620000Y-78020000D01*
X28620000Y-78020000D02*
X28650000Y-78050000D01*
D41*
X52300000Y-4650000D02*
X50550000Y-6400000D01*
X52300000Y2300000D02*
X52300000Y-4650000D01*
X41400000Y1700000D02*
X46550000Y-3450000D01*
X46550000Y-3450000D02*
X46550000Y-6350000D01*
X46550000Y-6350000D02*
X45350000Y-7550000D01*
X45350000Y-7550000D02*
X45350000Y-10350000D01*
X38850000Y1700000D02*
X41400000Y1700000D01*
X24990000Y-4550000D02*
X24990000Y-1850000D01*
X24980000Y-1860000D02*
X24980000Y-1850000D01*
X24990000Y-1850000D02*
X24980000Y-1860000D01*
X23650000Y-1850000D02*
X24980000Y-1850000D01*
X24980000Y-1850000D02*
X26300000Y-1850000D01*
X21350000Y-20950000D02*
X24250000Y-18050000D01*
X24250000Y-18050000D02*
X28750000Y-18050000D01*
X7475000Y-26100000D02*
X21350000Y-26100000D01*
X44000000Y-18050000D02*
X28750000Y-18050000D01*
X48900000Y-14850000D02*
X45700000Y-18050000D01*
X45700000Y-18050000D02*
X44000000Y-18050000D01*
D43*
X41500000Y-50000000D02*
X41500000Y-49300000D01*
X42350000Y-48450000D02*
X42350000Y-45900000D01*
X41500000Y-49300000D02*
X42350000Y-48450000D01*
X42350000Y-45900000D02*
X42350000Y-41950000D01*
X42350000Y-41800000D02*
X40050000Y-39500000D01*
X40050000Y-39500000D02*
X40050000Y-36750000D01*
X42350000Y-41950000D02*
X42350000Y-41800000D01*
X38450000Y-37350000D02*
X38450000Y-35750000D01*
X41300000Y-43150000D02*
X38450000Y-40300000D01*
X38450000Y-40300000D02*
X38450000Y-37350000D01*
X40500000Y-48550000D02*
X41300000Y-47750000D01*
X41300000Y-47750000D02*
X41300000Y-44300000D01*
X41300000Y-44300000D02*
X41300000Y-43150000D01*
X38450000Y-35750000D02*
X38950000Y-35250000D01*
X37350000Y-23300000D02*
X37400000Y-23300000D01*
D41*
X41350000Y-23300000D02*
X37400000Y-23300000D01*
X5275000Y-26100000D02*
X3230000Y-26100000D01*
X3230000Y-26100000D02*
X3220000Y-26110000D01*
D43*
X40750000Y-34350000D02*
X40750000Y-35200000D01*
X40350000Y-44500000D02*
X40350000Y-45950000D01*
X38600000Y-42750000D02*
X40350000Y-44500000D01*
X36850000Y-52300000D02*
X36850000Y-49450000D01*
X36850000Y-49450000D02*
X40350000Y-45950000D01*
X42200000Y-36650000D02*
X40850000Y-35300000D01*
X43600000Y-36650000D02*
X42200000Y-36650000D01*
X37250000Y-41400000D02*
X38600000Y-42750000D01*
X37250000Y-38850000D02*
X37250000Y-41400000D01*
X37250000Y-34600000D02*
X38250000Y-33600000D01*
X38250000Y-33600000D02*
X40000000Y-33600000D01*
X40000000Y-33600000D02*
X40750000Y-34350000D01*
X37250000Y-38850000D02*
X37250000Y-34600000D01*
X40750000Y-35200000D02*
X40850000Y-35300000D01*
D41*
X56300000Y-22075000D02*
X53425000Y-24950000D01*
X44900000Y-25850000D02*
X44900000Y-28400000D01*
X45800000Y-24950000D02*
X44900000Y-25850000D01*
X53425000Y-24950000D02*
X45800000Y-24950000D01*
X54950000Y-33050000D02*
X56300000Y-33050000D01*
X52750000Y-33050000D02*
X51300000Y-34500000D01*
X51300000Y-34500000D02*
X51300000Y-36575000D01*
D43*
X44000000Y-85000000D02*
X42750000Y-85000000D01*
D42*
X28400000Y-91550000D02*
X28400000Y-90500000D01*
X18300000Y-95800000D02*
X20900000Y-98400000D01*
X20900000Y-98400000D02*
X26800000Y-98400000D01*
X26800000Y-98400000D02*
X28400000Y-96800000D01*
X28400000Y-96800000D02*
X28400000Y-91550000D01*
X18300000Y-95800000D02*
X6800000Y-95800000D01*
X29400000Y-89500000D02*
X31050000Y-89500000D01*
X28400000Y-90500000D02*
X29400000Y-89500000D01*
D43*
X39610000Y-79300000D02*
X38700000Y-79300000D01*
X38600000Y-82100000D02*
X39500000Y-82100000D01*
X38300000Y-81800000D02*
X38600000Y-82100000D01*
X38300000Y-79700000D02*
X38300000Y-81800000D01*
X38700000Y-79300000D02*
X38300000Y-79700000D01*
D41*
X42450000Y-78350000D02*
X43600000Y-78350000D01*
X43600000Y-78350000D02*
X43900000Y-78650000D01*
D43*
X39610000Y-78350000D02*
X42450000Y-78350000D01*
D41*
X44850000Y-81150000D02*
X48350000Y-81150000D01*
D44*
X44850000Y-83154500D02*
X44850000Y-81150000D01*
X44850000Y-83154500D02*
X44850000Y-84945500D01*
D43*
X46950000Y-84450000D02*
X46450000Y-84950000D01*
X46450000Y-84950000D02*
X45700000Y-84950000D01*
D41*
X46950000Y-84450000D02*
X48050000Y-84450000D01*
D44*
X43854500Y-83154500D02*
X43050000Y-82350000D01*
X44202000Y-83154500D02*
X43854500Y-83154500D01*
D41*
X48350000Y-84150000D02*
X48350000Y-83350000D01*
X48050000Y-84450000D02*
X48350000Y-84150000D01*
D44*
G36*
X33689426Y-91248614D02*
X33689426Y-93000430D01*
X33731263Y-93222776D01*
X33862670Y-93426988D01*
X34063173Y-93563986D01*
X34301180Y-93612184D01*
X34533181Y-93612184D01*
X34628743Y-94092603D01*
X34867548Y-94450000D01*
X34921386Y-94530574D01*
X35295406Y-94904594D01*
X35345126Y-94937816D01*
X34301180Y-94937816D01*
X34078834Y-94979653D01*
X33874622Y-95111060D01*
X33737624Y-95311563D01*
X33689426Y-95549570D01*
X33689426Y-97350430D01*
X33731263Y-97572776D01*
X33862670Y-97776988D01*
X34063173Y-97913986D01*
X34301180Y-97962184D01*
X37450780Y-97962184D01*
X37673126Y-97920347D01*
X37860150Y-97800000D01*
X38890812Y-97800000D01*
X40345406Y-99254594D01*
X40525606Y-99375000D01*
X27724054Y-99375000D01*
X27754594Y-99354594D01*
X29354594Y-97754594D01*
X29647238Y-97316622D01*
X29750000Y-96800000D01*
X29750000Y-91059188D01*
X29959188Y-90850000D01*
X31050000Y-90850000D01*
X31566623Y-90747237D01*
X32004594Y-90454594D01*
X32297237Y-90016623D01*
X32323816Y-89883004D01*
X33689426Y-91248614D01*
X33689426Y-91248614D01*
G37*
X33689426Y-91248614D02*
X33689426Y-93000430D01*
X33731263Y-93222776D01*
X33862670Y-93426988D01*
X34063173Y-93563986D01*
X34301180Y-93612184D01*
X34533181Y-93612184D01*
X34628743Y-94092603D01*
X34867548Y-94450000D01*
X34921386Y-94530574D01*
X35295406Y-94904594D01*
X35345126Y-94937816D01*
X34301180Y-94937816D01*
X34078834Y-94979653D01*
X33874622Y-95111060D01*
X33737624Y-95311563D01*
X33689426Y-95549570D01*
X33689426Y-97350430D01*
X33731263Y-97572776D01*
X33862670Y-97776988D01*
X34063173Y-97913986D01*
X34301180Y-97962184D01*
X37450780Y-97962184D01*
X37673126Y-97920347D01*
X37860150Y-97800000D01*
X38890812Y-97800000D01*
X40345406Y-99254594D01*
X40525606Y-99375000D01*
X27724054Y-99375000D01*
X27754594Y-99354594D01*
X29354594Y-97754594D01*
X29647238Y-97316622D01*
X29750000Y-96800000D01*
X29750000Y-91059188D01*
X29959188Y-90850000D01*
X31050000Y-90850000D01*
X31566623Y-90747237D01*
X32004594Y-90454594D01*
X32297237Y-90016623D01*
X32323816Y-89883004D01*
X33689426Y-91248614D01*
G36*
X58854374Y3752592D02*
X60172109Y2872109D01*
X61052592Y1554374D01*
X61375000Y-66481D01*
X61375000Y-7969365D01*
X60977817Y-7572183D01*
X60869786Y-7499999D01*
X60620952Y-7333733D01*
X60200000Y-7250000D01*
X59931024Y-7250000D01*
X59838007Y-7186444D01*
X59600000Y-7138246D01*
X58700000Y-7138246D01*
X58477654Y-7180083D01*
X58273442Y-7311490D01*
X58136444Y-7511993D01*
X58088246Y-7750000D01*
X58088246Y-8157725D01*
X58050000Y-8350000D01*
X58088246Y-8542275D01*
X58088246Y-8950000D01*
X58130083Y-9172346D01*
X58261490Y-9376558D01*
X58368988Y-9450008D01*
X58273442Y-9511490D01*
X58136444Y-9711993D01*
X58118622Y-9800000D01*
X57108043Y-9800000D01*
X57050000Y-9788246D01*
X56450000Y-9788246D01*
X56227654Y-9830083D01*
X56023442Y-9961490D01*
X55886444Y-10161993D01*
X55860726Y-10288989D01*
X55733733Y-10479048D01*
X55650000Y-10900000D01*
X55733733Y-11320952D01*
X55858510Y-11507693D01*
X55880083Y-11622346D01*
X56011490Y-11826558D01*
X56211993Y-11963556D01*
X56450000Y-12011754D01*
X57050000Y-12011754D01*
X57112468Y-12000000D01*
X58800000Y-12000000D01*
X59220952Y-11916267D01*
X59393172Y-11801193D01*
X52494366Y-18700000D01*
X46605634Y-18700000D01*
X49338361Y-15967274D01*
X49578857Y-15867903D01*
X49916717Y-15530633D01*
X50099791Y-15089742D01*
X50100207Y-14612353D01*
X49917903Y-14171143D01*
X49580633Y-13833283D01*
X49139742Y-13650209D01*
X48662353Y-13649793D01*
X48221143Y-13832097D01*
X47883283Y-14169367D01*
X47782652Y-14411713D01*
X45244366Y-16950000D01*
X24250000Y-16950000D01*
X23829048Y-17033733D01*
X23472182Y-17272183D01*
X20911640Y-19832726D01*
X20671143Y-19932097D01*
X20333283Y-20269367D01*
X20150209Y-20710258D01*
X20149793Y-21187647D01*
X20332097Y-21628857D01*
X20662662Y-21960000D01*
X7601024Y-21960000D01*
X7508007Y-21896444D01*
X7270000Y-21848246D01*
X6370000Y-21848246D01*
X6147654Y-21890083D01*
X6039000Y-21960000D01*
X4937663Y-21960000D01*
X4808057Y-21871444D01*
X4570050Y-21823246D01*
X3769950Y-21823246D01*
X3547604Y-21865083D01*
X3343392Y-21996490D01*
X3206394Y-22196993D01*
X3158196Y-22435000D01*
X3158196Y-22632369D01*
X3153733Y-22639048D01*
X3070000Y-23060000D01*
X3153733Y-23480952D01*
X3158196Y-23487631D01*
X3158196Y-23685000D01*
X3200033Y-23907346D01*
X3331440Y-24111558D01*
X3531943Y-24248556D01*
X3769950Y-24296754D01*
X4570050Y-24296754D01*
X4792396Y-24254917D01*
X4939901Y-24160000D01*
X6038976Y-24160000D01*
X6131993Y-24223556D01*
X6370000Y-24271754D01*
X7270000Y-24271754D01*
X7492346Y-24229917D01*
X7601000Y-24160000D01*
X22990000Y-24160000D01*
X22990000Y-34904365D01*
X20722183Y-37172183D01*
X20483733Y-37529048D01*
X20400000Y-37950000D01*
X20400000Y-43519935D01*
X20300209Y-43760258D01*
X20299918Y-44094284D01*
X19677819Y-43472185D01*
X19677817Y-43472182D01*
X12460474Y-36254840D01*
X12549791Y-36039742D01*
X12550207Y-35562353D01*
X12367903Y-35121143D01*
X12030633Y-34783283D01*
X11589742Y-34600209D01*
X11112353Y-34599793D01*
X10671143Y-34782097D01*
X10650000Y-34803203D01*
X10650000Y-34465883D01*
X12199637Y-34465883D01*
X12518669Y-35238000D01*
X13108893Y-35829255D01*
X13880452Y-36149634D01*
X14715883Y-36150363D01*
X15488000Y-35831331D01*
X16079255Y-35241107D01*
X16399634Y-34469548D01*
X16400363Y-33634117D01*
X16081331Y-32862000D01*
X15491107Y-32270745D01*
X14719548Y-31950366D01*
X13884117Y-31949637D01*
X13112000Y-32268669D01*
X12520745Y-32858893D01*
X12200366Y-33630452D01*
X12199637Y-34465883D01*
X10650000Y-34465883D01*
X10650000Y-31400005D01*
X10650001Y-31400000D01*
X10605246Y-31175000D01*
X15691695Y-31175000D01*
X15821100Y-31825562D01*
X16189613Y-32377082D01*
X16741133Y-32745595D01*
X17391695Y-32875000D01*
X17458305Y-32875000D01*
X18108867Y-32745595D01*
X18660387Y-32377082D01*
X19028900Y-31825562D01*
X19158305Y-31175000D01*
X19028900Y-30524438D01*
X18660387Y-29972918D01*
X18108867Y-29604405D01*
X17458305Y-29475000D01*
X17391695Y-29475000D01*
X16741133Y-29604405D01*
X16189613Y-29972918D01*
X15821100Y-30524438D01*
X15691695Y-31175000D01*
X10605246Y-31175000D01*
X10585298Y-31074719D01*
X10435840Y-30851040D01*
X10401041Y-30798959D01*
X10401038Y-30798957D01*
X9251041Y-29648959D01*
X8975281Y-29464702D01*
X8650000Y-29400000D01*
X6700005Y-29400000D01*
X6700000Y-29399999D01*
X6374719Y-29464702D01*
X6098959Y-29648959D01*
X6098957Y-29648962D01*
X5248959Y-30498959D01*
X5064702Y-30774719D01*
X5024089Y-30978894D01*
X4833283Y-31169367D01*
X4650209Y-31610258D01*
X4649793Y-32087647D01*
X4832097Y-32528857D01*
X5169367Y-32866717D01*
X5610258Y-33049791D01*
X6087647Y-33050207D01*
X6528857Y-32867903D01*
X6800177Y-32597056D01*
X7069367Y-32866717D01*
X7510258Y-33049791D01*
X7700000Y-33049956D01*
X7700000Y-38100000D01*
X7764702Y-38425281D01*
X7948959Y-38701041D01*
X8148959Y-38901041D01*
X13699998Y-44452079D01*
X13699793Y-44687647D01*
X13882097Y-45128857D01*
X14050000Y-45297054D01*
X14050000Y-46000000D01*
X14114702Y-46325281D01*
X14298959Y-46601041D01*
X14797918Y-47100000D01*
X11302082Y-47100000D01*
X7901041Y-43698959D01*
X7625281Y-43514702D01*
X7300000Y-43450000D01*
X2297059Y-43450000D01*
X2130633Y-43283283D01*
X1689742Y-43100209D01*
X1212353Y-43099793D01*
X1000000Y-43187535D01*
X1000000Y-37230065D01*
X1099791Y-36989742D01*
X1100207Y-36512353D01*
X917903Y-36071143D01*
X580633Y-35733283D01*
X139742Y-35550209D01*
X-337647Y-35549793D01*
X-735201Y-35714059D01*
X5853858Y-29125000D01*
X18527723Y-29125000D01*
X18569367Y-29166717D01*
X19010258Y-29349791D01*
X19487647Y-29350207D01*
X19928857Y-29167903D01*
X20266717Y-28830633D01*
X20449791Y-28389742D01*
X20450207Y-27912353D01*
X20267903Y-27471143D01*
X19997233Y-27200000D01*
X20869935Y-27200000D01*
X21110258Y-27299791D01*
X21587647Y-27300207D01*
X22028857Y-27117903D01*
X22366717Y-26780633D01*
X22549791Y-26339742D01*
X22550207Y-25862353D01*
X22367903Y-25421143D01*
X22030633Y-25083283D01*
X21589742Y-24900209D01*
X21112353Y-24899793D01*
X20869833Y-25000000D01*
X7475000Y-25000000D01*
X7282725Y-25038246D01*
X6875000Y-25038246D01*
X6652654Y-25080083D01*
X6448442Y-25211490D01*
X6374992Y-25318988D01*
X6313510Y-25223442D01*
X6113007Y-25086444D01*
X5875000Y-25038246D01*
X5467275Y-25038246D01*
X5275000Y-25000000D01*
X4090109Y-25000000D01*
X4014072Y-24923830D01*
X3499699Y-24710243D01*
X2942744Y-24709757D01*
X2428000Y-24922445D01*
X2033830Y-25315928D01*
X1820243Y-25830301D01*
X1819757Y-26387256D01*
X2032445Y-26902000D01*
X2425928Y-27296170D01*
X2940301Y-27509757D01*
X3497256Y-27510243D01*
X4012000Y-27297555D01*
X4109725Y-27200000D01*
X5275000Y-27200000D01*
X5467275Y-27161754D01*
X5875000Y-27161754D01*
X6097346Y-27119917D01*
X6301558Y-26988510D01*
X6375008Y-26881012D01*
X6436490Y-26976558D01*
X6636993Y-27113556D01*
X6875000Y-27161754D01*
X7282725Y-27161754D01*
X7349317Y-27175000D01*
X5450000Y-27175000D01*
X5076883Y-27249217D01*
X4760571Y-27460571D01*
X-3389429Y-35610571D01*
X-3600783Y-35926883D01*
X-3645163Y-36150000D01*
X-3675000Y-36300000D01*
X-3675000Y-62077723D01*
X-3716717Y-62119367D01*
X-3899791Y-62560258D01*
X-3900207Y-63037647D01*
X-3717903Y-63478857D01*
X-3380633Y-63816717D01*
X-2939742Y-63999791D01*
X-2462353Y-64000207D01*
X-2021143Y-63817903D01*
X-1730381Y-63527649D01*
X-1667903Y-63678857D01*
X-1330633Y-64016717D01*
X-889742Y-64199791D01*
X-412353Y-64200207D01*
X28857Y-64017903D01*
X366717Y-63680633D01*
X549791Y-63239742D01*
X549998Y-63002084D01*
X1351041Y-62201041D01*
X1535298Y-61925281D01*
X1600000Y-61600000D01*
X1600000Y-59197141D01*
X1719367Y-59316717D01*
X2160258Y-59499791D01*
X2637647Y-59500207D01*
X3078857Y-59317903D01*
X3350134Y-59047100D01*
X3569367Y-59266717D01*
X4010258Y-59449791D01*
X4487647Y-59450207D01*
X4928857Y-59267903D01*
X5100134Y-59096925D01*
X5155551Y-59152439D01*
X5033794Y-59233794D01*
X433794Y-63833794D01*
X168248Y-64231213D01*
X75000Y-64700000D01*
X75000Y-89142588D01*
X-766206Y-89983794D01*
X-837089Y-90089878D01*
X-916717Y-90169367D01*
X-960246Y-90274196D01*
X-1031752Y-90381213D01*
X-1056642Y-90506344D01*
X-1099791Y-90610258D01*
X-1099890Y-90723764D01*
X-1125000Y-90850000D01*
X-1100109Y-90975135D01*
X-1100207Y-91087647D01*
X-1056862Y-91192549D01*
X-1031752Y-91318787D01*
X-960869Y-91424871D01*
X-917903Y-91528857D01*
X-837714Y-91609186D01*
X-766206Y-91716206D01*
X-660122Y-91787089D01*
X-580633Y-91866717D01*
X-475804Y-91910246D01*
X-368787Y-91981752D01*
X-243656Y-92006642D01*
X-139742Y-92049791D01*
X-26236Y-92049890D01*
X100000Y-92075000D01*
X225135Y-92050109D01*
X337647Y-92050207D01*
X442549Y-92006862D01*
X568787Y-91981752D01*
X674871Y-91910869D01*
X778857Y-91867903D01*
X859186Y-91787714D01*
X966206Y-91716206D01*
X2166206Y-90516206D01*
X2431752Y-90118787D01*
X2525000Y-89650000D01*
X2525000Y-71369953D01*
X2661993Y-71463556D01*
X2900000Y-71511754D01*
X3307725Y-71511754D01*
X3500000Y-71550000D01*
X4645572Y-71550000D01*
X4825165Y-71670000D01*
X4617692Y-71808629D01*
X4270856Y-72327707D01*
X4149063Y-72940000D01*
X4270856Y-73552293D01*
X4617692Y-74071371D01*
X4825165Y-74210000D01*
X4617692Y-74348629D01*
X4270856Y-74867707D01*
X4149063Y-75480000D01*
X4270856Y-76092293D01*
X4617692Y-76611371D01*
X4825165Y-76750000D01*
X4617692Y-76888629D01*
X4270856Y-77407707D01*
X4149063Y-78020000D01*
X4270856Y-78632293D01*
X4617692Y-79151371D01*
X4825165Y-79290000D01*
X4617692Y-79428629D01*
X4270856Y-79947707D01*
X4149063Y-80560000D01*
X4270856Y-81172293D01*
X4617692Y-81691371D01*
X4825165Y-81830000D01*
X4617692Y-81968629D01*
X4270856Y-82487707D01*
X4149063Y-83100000D01*
X4270856Y-83712293D01*
X4617692Y-84231371D01*
X4825165Y-84370000D01*
X4617692Y-84508629D01*
X4270856Y-85027707D01*
X4149063Y-85640000D01*
X4270856Y-86252293D01*
X4617692Y-86771371D01*
X5136770Y-87118207D01*
X5749063Y-87240000D01*
X7850937Y-87240000D01*
X8463230Y-87118207D01*
X8982308Y-86771371D01*
X9329144Y-86252293D01*
X9450937Y-85640000D01*
X9329144Y-85027707D01*
X8982308Y-84508629D01*
X8774835Y-84370000D01*
X8982308Y-84231371D01*
X9329144Y-83712293D01*
X9450937Y-83100000D01*
X9329144Y-82487707D01*
X8982308Y-81968629D01*
X8774835Y-81830000D01*
X8982308Y-81691371D01*
X9329144Y-81172293D01*
X9450937Y-80560000D01*
X9329144Y-79947707D01*
X8982308Y-79428629D01*
X8774835Y-79290000D01*
X8982308Y-79151371D01*
X9329144Y-78632293D01*
X9450937Y-78020000D01*
X9329144Y-77407707D01*
X8982308Y-76888629D01*
X8774835Y-76750000D01*
X8982308Y-76611371D01*
X9329144Y-76092293D01*
X9450937Y-75480000D01*
X9329144Y-74867707D01*
X8982308Y-74348629D01*
X8774835Y-74210000D01*
X8982308Y-74071371D01*
X9329144Y-73552293D01*
X9450937Y-72940000D01*
X9329144Y-72327707D01*
X8982308Y-71808629D01*
X8774835Y-71670000D01*
X8982308Y-71531371D01*
X9329144Y-71012293D01*
X9400000Y-70656077D01*
X9400000Y-72600000D01*
X9413678Y-72672691D01*
X9456638Y-72739454D01*
X9522189Y-72784243D01*
X9600000Y-72800000D01*
X21140812Y-72800000D01*
X14995406Y-78945406D01*
X14702763Y-79383377D01*
X14600000Y-79900000D01*
X14600000Y-84799394D01*
X14599766Y-85067353D01*
X14804858Y-85563715D01*
X15184288Y-85943807D01*
X15680290Y-86149765D01*
X16217353Y-86150234D01*
X16713715Y-85945142D01*
X16950079Y-85709190D01*
X17184288Y-85943807D01*
X17680290Y-86149765D01*
X18217353Y-86150234D01*
X18713715Y-85945142D01*
X19093807Y-85565712D01*
X19299765Y-85069710D01*
X19300234Y-84532647D01*
X19300000Y-84532081D01*
X19300000Y-84409188D01*
X19459188Y-84250000D01*
X20550000Y-84250000D01*
X21066623Y-84147237D01*
X21166659Y-84080395D01*
X21222346Y-84069917D01*
X21426558Y-83938510D01*
X21466507Y-83880043D01*
X21504594Y-83854594D01*
X21797237Y-83416623D01*
X21900000Y-82900000D01*
X21797237Y-82383377D01*
X21504594Y-81945406D01*
X21469901Y-81922225D01*
X21438510Y-81873442D01*
X21238007Y-81736444D01*
X21171793Y-81723035D01*
X21066623Y-81652763D01*
X20550000Y-81550000D01*
X18900000Y-81550000D01*
X18383377Y-81652763D01*
X17971730Y-81927817D01*
X17945406Y-81945406D01*
X17300000Y-82590812D01*
X17300000Y-80459188D01*
X22003834Y-75755354D01*
X22070856Y-76092293D01*
X22417692Y-76611371D01*
X22625165Y-76750000D01*
X22417692Y-76888629D01*
X22070856Y-77407707D01*
X21949063Y-78020000D01*
X22070856Y-78632293D01*
X22417692Y-79151371D01*
X22625165Y-79290000D01*
X22417692Y-79428629D01*
X22070856Y-79947707D01*
X21949063Y-80560000D01*
X22070856Y-81172293D01*
X22417692Y-81691371D01*
X22625165Y-81830000D01*
X22417692Y-81968629D01*
X22070856Y-82487707D01*
X21949063Y-83100000D01*
X22070856Y-83712293D01*
X22417692Y-84231371D01*
X22625165Y-84370000D01*
X22417692Y-84508629D01*
X22070856Y-85027707D01*
X21949063Y-85640000D01*
X22070856Y-86252293D01*
X22417692Y-86771371D01*
X22625165Y-86910000D01*
X22417692Y-87048629D01*
X22070856Y-87567707D01*
X21949063Y-88180000D01*
X22070856Y-88792293D01*
X22417692Y-89311371D01*
X22625165Y-89450000D01*
X22417692Y-89588629D01*
X22070856Y-90107707D01*
X21949063Y-90720000D01*
X22070856Y-91332293D01*
X22417692Y-91851371D01*
X22936770Y-92198207D01*
X23549063Y-92320000D01*
X25650937Y-92320000D01*
X26263230Y-92198207D01*
X26782308Y-91851371D01*
X27050000Y-91450741D01*
X27050000Y-95069259D01*
X26782308Y-94668629D01*
X26263230Y-94321793D01*
X25650937Y-94200000D01*
X23549063Y-94200000D01*
X22936770Y-94321793D01*
X22417692Y-94668629D01*
X22070856Y-95187707D01*
X21949063Y-95800000D01*
X22070856Y-96412293D01*
X22417692Y-96931371D01*
X22595233Y-97050000D01*
X21459188Y-97050000D01*
X19254594Y-94845406D01*
X19094984Y-94738758D01*
X18816623Y-94552763D01*
X18300000Y-94450000D01*
X8894563Y-94450000D01*
X8982308Y-94391371D01*
X9329144Y-93872293D01*
X9450937Y-93260000D01*
X9329144Y-92647707D01*
X8982308Y-92128629D01*
X8774835Y-91990000D01*
X8982308Y-91851371D01*
X9329144Y-91332293D01*
X9450937Y-90720000D01*
X9329144Y-90107707D01*
X8982308Y-89588629D01*
X8463230Y-89241793D01*
X7850937Y-89120000D01*
X5749063Y-89120000D01*
X5136770Y-89241793D01*
X4617692Y-89588629D01*
X4270856Y-90107707D01*
X4149063Y-90720000D01*
X4270856Y-91332293D01*
X4617692Y-91851371D01*
X4825165Y-91990000D01*
X4617692Y-92128629D01*
X4270856Y-92647707D01*
X4149063Y-93260000D01*
X4270856Y-93872293D01*
X4617692Y-94391371D01*
X4825165Y-94530000D01*
X4617692Y-94668629D01*
X4270856Y-95187707D01*
X4149063Y-95800000D01*
X4270856Y-96412293D01*
X4617692Y-96931371D01*
X5136770Y-97278207D01*
X5749063Y-97400000D01*
X7850937Y-97400000D01*
X8463230Y-97278207D01*
X8655106Y-97150000D01*
X17740812Y-97150000D01*
X19945406Y-99354594D01*
X19975946Y-99375000D01*
X66481Y-99375000D01*
X-1554374Y-99052592D01*
X-2872109Y-98172109D01*
X-3752592Y-96854374D01*
X-3975112Y-95735687D01*
X-2200381Y-95735687D01*
X-1866157Y-96544572D01*
X-1247827Y-97163982D01*
X-439527Y-97499618D01*
X435687Y-97500381D01*
X1244572Y-97166157D01*
X1863982Y-96547827D01*
X2199618Y-95739527D01*
X2200381Y-94864313D01*
X1866157Y-94055428D01*
X1247827Y-93436018D01*
X439527Y-93100382D01*
X-435687Y-93099619D01*
X-1244572Y-93433843D01*
X-1863982Y-94052173D01*
X-2199618Y-94860473D01*
X-2200381Y-95735687D01*
X-3975112Y-95735687D01*
X-4075000Y-95233519D01*
X-4075000Y-18787256D01*
X1819757Y-18787256D01*
X2032445Y-19302000D01*
X2120000Y-19389708D01*
X2120000Y-20560000D01*
X2203733Y-20980952D01*
X2208196Y-20987631D01*
X2208196Y-21185000D01*
X2250033Y-21407346D01*
X2381440Y-21611558D01*
X2581943Y-21748556D01*
X2819950Y-21796754D01*
X3620050Y-21796754D01*
X3842396Y-21754917D01*
X4046608Y-21623510D01*
X4183606Y-21423007D01*
X4231804Y-21185000D01*
X4231804Y-20987631D01*
X4236267Y-20980952D01*
X4320000Y-20560000D01*
X4320000Y-19390092D01*
X4406170Y-19304072D01*
X4619757Y-18789699D01*
X4620243Y-18232744D01*
X4407555Y-17718000D01*
X4014072Y-17323830D01*
X3499699Y-17110243D01*
X2942744Y-17109757D01*
X2428000Y-17322445D01*
X2033830Y-17715928D01*
X1820243Y-18230301D01*
X1819757Y-18787256D01*
X-4075000Y-18787256D01*
X-4075000Y-8613756D01*
X1200000Y-8613756D01*
X1200000Y-9886244D01*
X1295151Y-10364598D01*
X1350000Y-10446685D01*
X1350000Y-11850000D01*
X1433733Y-12270952D01*
X1500551Y-12370952D01*
X1672183Y-12627817D01*
X2372182Y-13327817D01*
X2372185Y-13327819D01*
X2472182Y-13427817D01*
X2829048Y-13666267D01*
X3250000Y-13750000D01*
X21144366Y-13750000D01*
X21667933Y-14273568D01*
X21732097Y-14428857D01*
X22069367Y-14766717D01*
X22510258Y-14949791D01*
X22987647Y-14950207D01*
X23428857Y-14767903D01*
X23766717Y-14430633D01*
X23949791Y-13989742D01*
X23950207Y-13512353D01*
X23767903Y-13071143D01*
X23430633Y-12733283D01*
X23177473Y-12628162D01*
X25802817Y-10002818D01*
X25953266Y-9777654D01*
X26041267Y-9645952D01*
X26125000Y-9225000D01*
X26125000Y-8751873D01*
X26315158Y-8629510D01*
X26452156Y-8429007D01*
X26500354Y-8191000D01*
X26500354Y-6159000D01*
X26458517Y-5936654D01*
X26327110Y-5732442D01*
X26174600Y-5628236D01*
X26260242Y-5542743D01*
X26622489Y-5905623D01*
X27210344Y-6149722D01*
X27846863Y-6150277D01*
X28435143Y-5907205D01*
X28885623Y-5457511D01*
X29129722Y-4869656D01*
X29130277Y-4233137D01*
X28887205Y-3644857D01*
X28437511Y-3194377D01*
X27849656Y-2950278D01*
X27213137Y-2949723D01*
X26624857Y-3192795D01*
X26259758Y-3557257D01*
X26090000Y-3387202D01*
X26090000Y-2950000D01*
X26300000Y-2950000D01*
X26492275Y-2911754D01*
X26900000Y-2911754D01*
X27122346Y-2869917D01*
X27326558Y-2738510D01*
X27400008Y-2631012D01*
X27461490Y-2726558D01*
X27661993Y-2863556D01*
X27900000Y-2911754D01*
X28307725Y-2911754D01*
X28500000Y-2950000D01*
X32292467Y-2950000D01*
X31704857Y-3192795D01*
X31254377Y-3642489D01*
X31010278Y-4230344D01*
X31009723Y-4866863D01*
X31252795Y-5455143D01*
X31695693Y-5898815D01*
X31610079Y-5956020D01*
X31375000Y-6307840D01*
X31139921Y-5956020D01*
X30665095Y-5638751D01*
X30105000Y-5527341D01*
X29544905Y-5638751D01*
X29070079Y-5956020D01*
X28752810Y-6430846D01*
X28641400Y-6990941D01*
X28641400Y-7359059D01*
X28752810Y-7919154D01*
X29070079Y-8393980D01*
X29544905Y-8711249D01*
X30105000Y-8822659D01*
X30665095Y-8711249D01*
X31139921Y-8393980D01*
X31375000Y-8042160D01*
X31610079Y-8393980D01*
X32084905Y-8711249D01*
X32645000Y-8822659D01*
X33205095Y-8711249D01*
X33679921Y-8393980D01*
X33997190Y-7919154D01*
X34035809Y-7725000D01*
X38491695Y-7725000D01*
X38621100Y-8375562D01*
X38989613Y-8927082D01*
X39541133Y-9295595D01*
X40191695Y-9425000D01*
X40258305Y-9425000D01*
X40908867Y-9295595D01*
X41460387Y-8927082D01*
X41828900Y-8375562D01*
X41958305Y-7725000D01*
X41828900Y-7074438D01*
X41460387Y-6522918D01*
X40908867Y-6154405D01*
X40258305Y-6025000D01*
X40191695Y-6025000D01*
X39541133Y-6154405D01*
X38989613Y-6522918D01*
X38621100Y-7074438D01*
X38491695Y-7725000D01*
X34035809Y-7725000D01*
X34108600Y-7359059D01*
X34108600Y-6990941D01*
X33997190Y-6430846D01*
X33679921Y-5956020D01*
X33551920Y-5870492D01*
X33880242Y-5542743D01*
X34242489Y-5905623D01*
X34830344Y-6149722D01*
X35466863Y-6150277D01*
X36055143Y-5907205D01*
X36505623Y-5457511D01*
X36749722Y-4869656D01*
X36750277Y-4233137D01*
X36507205Y-3644857D01*
X36250000Y-3387202D01*
X36250000Y-2600000D01*
X36166267Y-2179048D01*
X35957200Y-1866157D01*
X35927817Y-1822182D01*
X35177817Y-1072183D01*
X35030041Y-973442D01*
X34820952Y-833733D01*
X34400000Y-750000D01*
X28500000Y-750000D01*
X28307725Y-788246D01*
X27900000Y-788246D01*
X27677654Y-830083D01*
X27473442Y-961490D01*
X27399992Y-1068988D01*
X27338510Y-973442D01*
X27138007Y-836444D01*
X26900000Y-788246D01*
X26492275Y-788246D01*
X26300000Y-750000D01*
X24330167Y-750000D01*
X24528857Y-667903D01*
X24847316Y-350000D01*
X25600000Y-350000D01*
X26020952Y-266267D01*
X26027631Y-261804D01*
X26225000Y-261804D01*
X26447346Y-219967D01*
X26651558Y-88560D01*
X26788556Y111943D01*
X26836754Y349950D01*
X26836754Y1150050D01*
X26794917Y1372396D01*
X26663510Y1576608D01*
X26463007Y1713606D01*
X26225000Y1761804D01*
X26027631Y1761804D01*
X26020952Y1766267D01*
X25600000Y1850000D01*
X24250000Y1850000D01*
X23829048Y1766267D01*
X23472182Y1527817D01*
X23411639Y1467274D01*
X23171143Y1367903D01*
X22833283Y1030633D01*
X22650209Y589742D01*
X22649793Y112353D01*
X22832097Y-328857D01*
X23169367Y-666717D01*
X23460643Y-787666D01*
X23457725Y-788246D01*
X23050000Y-788246D01*
X22827654Y-830083D01*
X22623442Y-961490D01*
X22486444Y-1161993D01*
X22438246Y-1400000D01*
X22438246Y-2300000D01*
X22480083Y-2522346D01*
X22611490Y-2726558D01*
X22811993Y-2863556D01*
X23050000Y-2911754D01*
X23457725Y-2911754D01*
X23650000Y-2950000D01*
X23890000Y-2950000D01*
X23890000Y-3387312D01*
X23719758Y-3557257D01*
X23357511Y-3194377D01*
X22769656Y-2950278D01*
X22133137Y-2949723D01*
X21544857Y-3192795D01*
X21179758Y-3557257D01*
X20817511Y-3194377D01*
X20229656Y-2950278D01*
X19865595Y-2949961D01*
X16537816Y377818D01*
X16180952Y616267D01*
X15760000Y700000D01*
X11000000Y700000D01*
X10579048Y616267D01*
X10511228Y570951D01*
X10222183Y377818D01*
X3672183Y-6172183D01*
X3433733Y-6529048D01*
X3350000Y-6950000D01*
X3350000Y-7753994D01*
X3333883Y-7729873D01*
X2928354Y-7458907D01*
X2450000Y-7363756D01*
X1971646Y-7458907D01*
X1566117Y-7729873D01*
X1295151Y-8135402D01*
X1200000Y-8613756D01*
X-4075000Y-8613756D01*
X-4075000Y-435687D01*
X-2200381Y-435687D01*
X-1866157Y-1244572D01*
X-1247827Y-1863982D01*
X-439527Y-2199618D01*
X435687Y-2200381D01*
X1244572Y-1866157D01*
X1863982Y-1247827D01*
X2199618Y-439527D01*
X2200381Y435687D01*
X1866157Y1244572D01*
X1247827Y1863982D01*
X679314Y2100050D01*
X26863246Y2100050D01*
X26863246Y1299950D01*
X26905083Y1077604D01*
X27036490Y873392D01*
X27236993Y736394D01*
X27475000Y688196D01*
X27672369Y688196D01*
X27679048Y683733D01*
X28100000Y600000D01*
X29399935Y600000D01*
X29640258Y500209D01*
X30117647Y499793D01*
X30558857Y682097D01*
X30896717Y1019367D01*
X31079791Y1460258D01*
X31079792Y1462353D01*
X34149793Y1462353D01*
X34332097Y1021143D01*
X34669367Y683283D01*
X35110258Y500209D01*
X35587647Y499793D01*
X35830167Y600000D01*
X36650000Y600000D01*
X36842275Y638246D01*
X37250000Y638246D01*
X37472346Y680083D01*
X37676558Y811490D01*
X37750008Y918988D01*
X37811490Y823442D01*
X38011993Y686444D01*
X38250000Y638246D01*
X38657725Y638246D01*
X38850000Y600000D01*
X40944366Y600000D01*
X44186586Y-2642221D01*
X43724548Y-2450366D01*
X42889117Y-2449637D01*
X42117000Y-2768669D01*
X41525745Y-3358893D01*
X41205366Y-4130452D01*
X41204637Y-4965883D01*
X41523669Y-5738000D01*
X42113893Y-6329255D01*
X42885452Y-6649634D01*
X43720883Y-6650363D01*
X44493000Y-6331331D01*
X45084255Y-5741107D01*
X45404634Y-4969548D01*
X45405363Y-4134117D01*
X45213051Y-3668686D01*
X45450000Y-3905635D01*
X45450000Y-5894365D01*
X44572183Y-6772183D01*
X44333733Y-7129048D01*
X44250000Y-7550000D01*
X44250000Y-9869935D01*
X44150209Y-10110258D01*
X44149793Y-10587647D01*
X44332097Y-11028857D01*
X44669367Y-11366717D01*
X45110258Y-11549791D01*
X45587647Y-11550207D01*
X46028857Y-11367903D01*
X46366717Y-11030633D01*
X46549791Y-10589742D01*
X46550207Y-10112353D01*
X46450000Y-9869833D01*
X46450000Y-8005634D01*
X47327817Y-7127818D01*
X47504598Y-6863246D01*
X47566267Y-6770952D01*
X47650000Y-6350000D01*
X47650000Y-8100000D01*
X47733733Y-8520952D01*
X47738196Y-8527631D01*
X47738196Y-8725000D01*
X47780033Y-8947346D01*
X47911440Y-9151558D01*
X48111943Y-9288556D01*
X48349950Y-9336754D01*
X49150050Y-9336754D01*
X49372396Y-9294917D01*
X49576608Y-9163510D01*
X49713606Y-8963007D01*
X49761804Y-8725000D01*
X49761804Y-8527631D01*
X49766267Y-8520952D01*
X49850000Y-8100000D01*
X49850000Y-7397316D01*
X49869367Y-7416717D01*
X50310258Y-7599791D01*
X50787647Y-7600207D01*
X51097934Y-7471999D01*
X51036444Y-7561993D01*
X50988246Y-7800000D01*
X50988246Y-8207725D01*
X50950000Y-8400000D01*
X50988246Y-8592275D01*
X50988246Y-9000000D01*
X51030083Y-9222346D01*
X51161490Y-9426558D01*
X51268976Y-9500000D01*
X50467663Y-9500000D01*
X50338057Y-9411444D01*
X50100050Y-9363246D01*
X49299950Y-9363246D01*
X49077604Y-9405083D01*
X48873392Y-9536490D01*
X48736394Y-9736993D01*
X48688196Y-9975000D01*
X48688196Y-10172369D01*
X48683733Y-10179048D01*
X48600000Y-10600000D01*
X48683733Y-11020952D01*
X48688196Y-11027631D01*
X48688196Y-11225000D01*
X48730033Y-11447346D01*
X48861440Y-11651558D01*
X49061943Y-11788556D01*
X49299950Y-11836754D01*
X50100050Y-11836754D01*
X50322396Y-11794917D01*
X50469901Y-11700000D01*
X51268976Y-11700000D01*
X51361993Y-11763556D01*
X51600000Y-11811754D01*
X52500000Y-11811754D01*
X52722346Y-11769917D01*
X52926558Y-11638510D01*
X53063556Y-11438007D01*
X53111754Y-11200000D01*
X53111754Y-10792275D01*
X53150000Y-10600000D01*
X53111754Y-10407725D01*
X53111754Y-10000000D01*
X53069917Y-9777654D01*
X52938510Y-9573442D01*
X52831024Y-9500000D01*
X53518976Y-9500000D01*
X53611993Y-9563556D01*
X53850000Y-9611754D01*
X54750000Y-9611754D01*
X54972346Y-9569917D01*
X55081000Y-9500000D01*
X56391957Y-9500000D01*
X56450000Y-9511754D01*
X57050000Y-9511754D01*
X57272346Y-9469917D01*
X57476558Y-9338510D01*
X57613556Y-9138007D01*
X57639274Y-9011011D01*
X57766267Y-8820952D01*
X57850000Y-8400000D01*
X57766267Y-7979048D01*
X57641490Y-7792307D01*
X57619917Y-7677654D01*
X57488510Y-7473442D01*
X57288007Y-7336444D01*
X57050000Y-7288246D01*
X56450000Y-7288246D01*
X56387532Y-7300000D01*
X55081024Y-7300000D01*
X54988007Y-7236444D01*
X54750000Y-7188246D01*
X53850000Y-7188246D01*
X53627654Y-7230083D01*
X53519000Y-7300000D01*
X52831024Y-7300000D01*
X52738007Y-7236444D01*
X52500000Y-7188246D01*
X51600000Y-7188246D01*
X51426146Y-7220959D01*
X51566717Y-7080633D01*
X51667348Y-6838286D01*
X53077818Y-5427817D01*
X53230178Y-5199793D01*
X53316267Y-5070952D01*
X53400000Y-4650000D01*
X53400000Y-435687D01*
X55099619Y-435687D01*
X55433843Y-1244572D01*
X56052173Y-1863982D01*
X56860473Y-2199618D01*
X57735687Y-2200381D01*
X58544572Y-1866157D01*
X59163982Y-1247827D01*
X59499618Y-439527D01*
X59500381Y435687D01*
X59166157Y1244572D01*
X58547827Y1863982D01*
X57739527Y2199618D01*
X56864313Y2200381D01*
X56055428Y1866157D01*
X55436018Y1247827D01*
X55100382Y439527D01*
X55099619Y-435687D01*
X53400000Y-435687D01*
X53400000Y1518976D01*
X53463556Y1611993D01*
X53511754Y1850000D01*
X53511754Y2750000D01*
X53469917Y2972346D01*
X53338510Y3176558D01*
X53138007Y3313556D01*
X52900000Y3361754D01*
X52492275Y3361754D01*
X52300000Y3400000D01*
X52107725Y3361754D01*
X51700000Y3361754D01*
X51477654Y3319917D01*
X51273442Y3188510D01*
X51199992Y3081012D01*
X51138510Y3176558D01*
X50938007Y3313556D01*
X50700000Y3361754D01*
X50292275Y3361754D01*
X50100000Y3400000D01*
X49907725Y3361754D01*
X49500000Y3361754D01*
X49277654Y3319917D01*
X49073442Y3188510D01*
X48936444Y2988007D01*
X48888246Y2750000D01*
X48888246Y1850000D01*
X48930083Y1627654D01*
X49000000Y1519000D01*
X49000000Y1481000D01*
X48938510Y1576558D01*
X48738007Y1713556D01*
X48500000Y1761754D01*
X46600000Y1761754D01*
X46377654Y1719917D01*
X46173442Y1588510D01*
X46036444Y1388007D01*
X45988246Y1150000D01*
X45988246Y-850000D01*
X46030083Y-1072346D01*
X46161490Y-1276558D01*
X46361993Y-1413556D01*
X46450000Y-1431378D01*
X46450000Y-1650000D01*
X46485847Y-1830212D01*
X42177817Y2477817D01*
X42030041Y2576558D01*
X41820952Y2716267D01*
X41400000Y2800000D01*
X38850000Y2800000D01*
X38657725Y2761754D01*
X38250000Y2761754D01*
X38027654Y2719917D01*
X37823442Y2588510D01*
X37749992Y2481012D01*
X37688510Y2576558D01*
X37488007Y2713556D01*
X37250000Y2761754D01*
X36842275Y2761754D01*
X36650000Y2800000D01*
X35830065Y2800000D01*
X35589742Y2899791D01*
X35112353Y2900207D01*
X34671143Y2717903D01*
X34333283Y2380633D01*
X34150209Y1939742D01*
X34149793Y1462353D01*
X31079792Y1462353D01*
X31080207Y1937647D01*
X30897903Y2378857D01*
X30560633Y2716717D01*
X30119742Y2899791D01*
X29642353Y2900207D01*
X29399833Y2800000D01*
X28100000Y2800000D01*
X27679048Y2716267D01*
X27672369Y2711804D01*
X27475000Y2711804D01*
X27252654Y2669967D01*
X27048442Y2538560D01*
X26911444Y2338057D01*
X26863246Y2100050D01*
X679314Y2100050D01*
X439527Y2199618D01*
X-435687Y2200381D01*
X-1244572Y1866157D01*
X-1863982Y1247827D01*
X-2199618Y439527D01*
X-2200381Y-435687D01*
X-4075000Y-435687D01*
X-4075000Y-66481D01*
X-3752592Y1554374D01*
X-2872109Y2872109D01*
X-1554374Y3752592D01*
X66481Y4075000D01*
X57233519Y4075000D01*
X58854374Y3752592D01*
X58854374Y3752592D01*
G37*
X58854374Y3752592D02*
X60172109Y2872109D01*
X61052592Y1554374D01*
X61375000Y-66481D01*
X61375000Y-7969365D01*
X60977817Y-7572183D01*
X60869786Y-7499999D01*
X60620952Y-7333733D01*
X60200000Y-7250000D01*
X59931024Y-7250000D01*
X59838007Y-7186444D01*
X59600000Y-7138246D01*
X58700000Y-7138246D01*
X58477654Y-7180083D01*
X58273442Y-7311490D01*
X58136444Y-7511993D01*
X58088246Y-7750000D01*
X58088246Y-8157725D01*
X58050000Y-8350000D01*
X58088246Y-8542275D01*
X58088246Y-8950000D01*
X58130083Y-9172346D01*
X58261490Y-9376558D01*
X58368988Y-9450008D01*
X58273442Y-9511490D01*
X58136444Y-9711993D01*
X58118622Y-9800000D01*
X57108043Y-9800000D01*
X57050000Y-9788246D01*
X56450000Y-9788246D01*
X56227654Y-9830083D01*
X56023442Y-9961490D01*
X55886444Y-10161993D01*
X55860726Y-10288989D01*
X55733733Y-10479048D01*
X55650000Y-10900000D01*
X55733733Y-11320952D01*
X55858510Y-11507693D01*
X55880083Y-11622346D01*
X56011490Y-11826558D01*
X56211993Y-11963556D01*
X56450000Y-12011754D01*
X57050000Y-12011754D01*
X57112468Y-12000000D01*
X58800000Y-12000000D01*
X59220952Y-11916267D01*
X59393172Y-11801193D01*
X52494366Y-18700000D01*
X46605634Y-18700000D01*
X49338361Y-15967274D01*
X49578857Y-15867903D01*
X49916717Y-15530633D01*
X50099791Y-15089742D01*
X50100207Y-14612353D01*
X49917903Y-14171143D01*
X49580633Y-13833283D01*
X49139742Y-13650209D01*
X48662353Y-13649793D01*
X48221143Y-13832097D01*
X47883283Y-14169367D01*
X47782652Y-14411713D01*
X45244366Y-16950000D01*
X24250000Y-16950000D01*
X23829048Y-17033733D01*
X23472182Y-17272183D01*
X20911640Y-19832726D01*
X20671143Y-19932097D01*
X20333283Y-20269367D01*
X20150209Y-20710258D01*
X20149793Y-21187647D01*
X20332097Y-21628857D01*
X20662662Y-21960000D01*
X7601024Y-21960000D01*
X7508007Y-21896444D01*
X7270000Y-21848246D01*
X6370000Y-21848246D01*
X6147654Y-21890083D01*
X6039000Y-21960000D01*
X4937663Y-21960000D01*
X4808057Y-21871444D01*
X4570050Y-21823246D01*
X3769950Y-21823246D01*
X3547604Y-21865083D01*
X3343392Y-21996490D01*
X3206394Y-22196993D01*
X3158196Y-22435000D01*
X3158196Y-22632369D01*
X3153733Y-22639048D01*
X3070000Y-23060000D01*
X3153733Y-23480952D01*
X3158196Y-23487631D01*
X3158196Y-23685000D01*
X3200033Y-23907346D01*
X3331440Y-24111558D01*
X3531943Y-24248556D01*
X3769950Y-24296754D01*
X4570050Y-24296754D01*
X4792396Y-24254917D01*
X4939901Y-24160000D01*
X6038976Y-24160000D01*
X6131993Y-24223556D01*
X6370000Y-24271754D01*
X7270000Y-24271754D01*
X7492346Y-24229917D01*
X7601000Y-24160000D01*
X22990000Y-24160000D01*
X22990000Y-34904365D01*
X20722183Y-37172183D01*
X20483733Y-37529048D01*
X20400000Y-37950000D01*
X20400000Y-43519935D01*
X20300209Y-43760258D01*
X20299918Y-44094284D01*
X19677819Y-43472185D01*
X19677817Y-43472182D01*
X12460474Y-36254840D01*
X12549791Y-36039742D01*
X12550207Y-35562353D01*
X12367903Y-35121143D01*
X12030633Y-34783283D01*
X11589742Y-34600209D01*
X11112353Y-34599793D01*
X10671143Y-34782097D01*
X10650000Y-34803203D01*
X10650000Y-34465883D01*
X12199637Y-34465883D01*
X12518669Y-35238000D01*
X13108893Y-35829255D01*
X13880452Y-36149634D01*
X14715883Y-36150363D01*
X15488000Y-35831331D01*
X16079255Y-35241107D01*
X16399634Y-34469548D01*
X16400363Y-33634117D01*
X16081331Y-32862000D01*
X15491107Y-32270745D01*
X14719548Y-31950366D01*
X13884117Y-31949637D01*
X13112000Y-32268669D01*
X12520745Y-32858893D01*
X12200366Y-33630452D01*
X12199637Y-34465883D01*
X10650000Y-34465883D01*
X10650000Y-31400005D01*
X10650001Y-31400000D01*
X10605246Y-31175000D01*
X15691695Y-31175000D01*
X15821100Y-31825562D01*
X16189613Y-32377082D01*
X16741133Y-32745595D01*
X17391695Y-32875000D01*
X17458305Y-32875000D01*
X18108867Y-32745595D01*
X18660387Y-32377082D01*
X19028900Y-31825562D01*
X19158305Y-31175000D01*
X19028900Y-30524438D01*
X18660387Y-29972918D01*
X18108867Y-29604405D01*
X17458305Y-29475000D01*
X17391695Y-29475000D01*
X16741133Y-29604405D01*
X16189613Y-29972918D01*
X15821100Y-30524438D01*
X15691695Y-31175000D01*
X10605246Y-31175000D01*
X10585298Y-31074719D01*
X10435840Y-30851040D01*
X10401041Y-30798959D01*
X10401038Y-30798957D01*
X9251041Y-29648959D01*
X8975281Y-29464702D01*
X8650000Y-29400000D01*
X6700005Y-29400000D01*
X6700000Y-29399999D01*
X6374719Y-29464702D01*
X6098959Y-29648959D01*
X6098957Y-29648962D01*
X5248959Y-30498959D01*
X5064702Y-30774719D01*
X5024089Y-30978894D01*
X4833283Y-31169367D01*
X4650209Y-31610258D01*
X4649793Y-32087647D01*
X4832097Y-32528857D01*
X5169367Y-32866717D01*
X5610258Y-33049791D01*
X6087647Y-33050207D01*
X6528857Y-32867903D01*
X6800177Y-32597056D01*
X7069367Y-32866717D01*
X7510258Y-33049791D01*
X7700000Y-33049956D01*
X7700000Y-38100000D01*
X7764702Y-38425281D01*
X7948959Y-38701041D01*
X8148959Y-38901041D01*
X13699998Y-44452079D01*
X13699793Y-44687647D01*
X13882097Y-45128857D01*
X14050000Y-45297054D01*
X14050000Y-46000000D01*
X14114702Y-46325281D01*
X14298959Y-46601041D01*
X14797918Y-47100000D01*
X11302082Y-47100000D01*
X7901041Y-43698959D01*
X7625281Y-43514702D01*
X7300000Y-43450000D01*
X2297059Y-43450000D01*
X2130633Y-43283283D01*
X1689742Y-43100209D01*
X1212353Y-43099793D01*
X1000000Y-43187535D01*
X1000000Y-37230065D01*
X1099791Y-36989742D01*
X1100207Y-36512353D01*
X917903Y-36071143D01*
X580633Y-35733283D01*
X139742Y-35550209D01*
X-337647Y-35549793D01*
X-735201Y-35714059D01*
X5853858Y-29125000D01*
X18527723Y-29125000D01*
X18569367Y-29166717D01*
X19010258Y-29349791D01*
X19487647Y-29350207D01*
X19928857Y-29167903D01*
X20266717Y-28830633D01*
X20449791Y-28389742D01*
X20450207Y-27912353D01*
X20267903Y-27471143D01*
X19997233Y-27200000D01*
X20869935Y-27200000D01*
X21110258Y-27299791D01*
X21587647Y-27300207D01*
X22028857Y-27117903D01*
X22366717Y-26780633D01*
X22549791Y-26339742D01*
X22550207Y-25862353D01*
X22367903Y-25421143D01*
X22030633Y-25083283D01*
X21589742Y-24900209D01*
X21112353Y-24899793D01*
X20869833Y-25000000D01*
X7475000Y-25000000D01*
X7282725Y-25038246D01*
X6875000Y-25038246D01*
X6652654Y-25080083D01*
X6448442Y-25211490D01*
X6374992Y-25318988D01*
X6313510Y-25223442D01*
X6113007Y-25086444D01*
X5875000Y-25038246D01*
X5467275Y-25038246D01*
X5275000Y-25000000D01*
X4090109Y-25000000D01*
X4014072Y-24923830D01*
X3499699Y-24710243D01*
X2942744Y-24709757D01*
X2428000Y-24922445D01*
X2033830Y-25315928D01*
X1820243Y-25830301D01*
X1819757Y-26387256D01*
X2032445Y-26902000D01*
X2425928Y-27296170D01*
X2940301Y-27509757D01*
X3497256Y-27510243D01*
X4012000Y-27297555D01*
X4109725Y-27200000D01*
X5275000Y-27200000D01*
X5467275Y-27161754D01*
X5875000Y-27161754D01*
X6097346Y-27119917D01*
X6301558Y-26988510D01*
X6375008Y-26881012D01*
X6436490Y-26976558D01*
X6636993Y-27113556D01*
X6875000Y-27161754D01*
X7282725Y-27161754D01*
X7349317Y-27175000D01*
X5450000Y-27175000D01*
X5076883Y-27249217D01*
X4760571Y-27460571D01*
X-3389429Y-35610571D01*
X-3600783Y-35926883D01*
X-3645163Y-36150000D01*
X-3675000Y-36300000D01*
X-3675000Y-62077723D01*
X-3716717Y-62119367D01*
X-3899791Y-62560258D01*
X-3900207Y-63037647D01*
X-3717903Y-63478857D01*
X-3380633Y-63816717D01*
X-2939742Y-63999791D01*
X-2462353Y-64000207D01*
X-2021143Y-63817903D01*
X-1730381Y-63527649D01*
X-1667903Y-63678857D01*
X-1330633Y-64016717D01*
X-889742Y-64199791D01*
X-412353Y-64200207D01*
X28857Y-64017903D01*
X366717Y-63680633D01*
X549791Y-63239742D01*
X549998Y-63002084D01*
X1351041Y-62201041D01*
X1535298Y-61925281D01*
X1600000Y-61600000D01*
X1600000Y-59197141D01*
X1719367Y-59316717D01*
X2160258Y-59499791D01*
X2637647Y-59500207D01*
X3078857Y-59317903D01*
X3350134Y-59047100D01*
X3569367Y-59266717D01*
X4010258Y-59449791D01*
X4487647Y-59450207D01*
X4928857Y-59267903D01*
X5100134Y-59096925D01*
X5155551Y-59152439D01*
X5033794Y-59233794D01*
X433794Y-63833794D01*
X168248Y-64231213D01*
X75000Y-64700000D01*
X75000Y-89142588D01*
X-766206Y-89983794D01*
X-837089Y-90089878D01*
X-916717Y-90169367D01*
X-960246Y-90274196D01*
X-1031752Y-90381213D01*
X-1056642Y-90506344D01*
X-1099791Y-90610258D01*
X-1099890Y-90723764D01*
X-1125000Y-90850000D01*
X-1100109Y-90975135D01*
X-1100207Y-91087647D01*
X-1056862Y-91192549D01*
X-1031752Y-91318787D01*
X-960869Y-91424871D01*
X-917903Y-91528857D01*
X-837714Y-91609186D01*
X-766206Y-91716206D01*
X-660122Y-91787089D01*
X-580633Y-91866717D01*
X-475804Y-91910246D01*
X-368787Y-91981752D01*
X-243656Y-92006642D01*
X-139742Y-92049791D01*
X-26236Y-92049890D01*
X100000Y-92075000D01*
X225135Y-92050109D01*
X337647Y-92050207D01*
X442549Y-92006862D01*
X568787Y-91981752D01*
X674871Y-91910869D01*
X778857Y-91867903D01*
X859186Y-91787714D01*
X966206Y-91716206D01*
X2166206Y-90516206D01*
X2431752Y-90118787D01*
X2525000Y-89650000D01*
X2525000Y-71369953D01*
X2661993Y-71463556D01*
X2900000Y-71511754D01*
X3307725Y-71511754D01*
X3500000Y-71550000D01*
X4645572Y-71550000D01*
X4825165Y-71670000D01*
X4617692Y-71808629D01*
X4270856Y-72327707D01*
X4149063Y-72940000D01*
X4270856Y-73552293D01*
X4617692Y-74071371D01*
X4825165Y-74210000D01*
X4617692Y-74348629D01*
X4270856Y-74867707D01*
X4149063Y-75480000D01*
X4270856Y-76092293D01*
X4617692Y-76611371D01*
X4825165Y-76750000D01*
X4617692Y-76888629D01*
X4270856Y-77407707D01*
X4149063Y-78020000D01*
X4270856Y-78632293D01*
X4617692Y-79151371D01*
X4825165Y-79290000D01*
X4617692Y-79428629D01*
X4270856Y-79947707D01*
X4149063Y-80560000D01*
X4270856Y-81172293D01*
X4617692Y-81691371D01*
X4825165Y-81830000D01*
X4617692Y-81968629D01*
X4270856Y-82487707D01*
X4149063Y-83100000D01*
X4270856Y-83712293D01*
X4617692Y-84231371D01*
X4825165Y-84370000D01*
X4617692Y-84508629D01*
X4270856Y-85027707D01*
X4149063Y-85640000D01*
X4270856Y-86252293D01*
X4617692Y-86771371D01*
X5136770Y-87118207D01*
X5749063Y-87240000D01*
X7850937Y-87240000D01*
X8463230Y-87118207D01*
X8982308Y-86771371D01*
X9329144Y-86252293D01*
X9450937Y-85640000D01*
X9329144Y-85027707D01*
X8982308Y-84508629D01*
X8774835Y-84370000D01*
X8982308Y-84231371D01*
X9329144Y-83712293D01*
X9450937Y-83100000D01*
X9329144Y-82487707D01*
X8982308Y-81968629D01*
X8774835Y-81830000D01*
X8982308Y-81691371D01*
X9329144Y-81172293D01*
X9450937Y-80560000D01*
X9329144Y-79947707D01*
X8982308Y-79428629D01*
X8774835Y-79290000D01*
X8982308Y-79151371D01*
X9329144Y-78632293D01*
X9450937Y-78020000D01*
X9329144Y-77407707D01*
X8982308Y-76888629D01*
X8774835Y-76750000D01*
X8982308Y-76611371D01*
X9329144Y-76092293D01*
X9450937Y-75480000D01*
X9329144Y-74867707D01*
X8982308Y-74348629D01*
X8774835Y-74210000D01*
X8982308Y-74071371D01*
X9329144Y-73552293D01*
X9450937Y-72940000D01*
X9329144Y-72327707D01*
X8982308Y-71808629D01*
X8774835Y-71670000D01*
X8982308Y-71531371D01*
X9329144Y-71012293D01*
X9400000Y-70656077D01*
X9400000Y-72600000D01*
X9413678Y-72672691D01*
X9456638Y-72739454D01*
X9522189Y-72784243D01*
X9600000Y-72800000D01*
X21140812Y-72800000D01*
X14995406Y-78945406D01*
X14702763Y-79383377D01*
X14600000Y-79900000D01*
X14600000Y-84799394D01*
X14599766Y-85067353D01*
X14804858Y-85563715D01*
X15184288Y-85943807D01*
X15680290Y-86149765D01*
X16217353Y-86150234D01*
X16713715Y-85945142D01*
X16950079Y-85709190D01*
X17184288Y-85943807D01*
X17680290Y-86149765D01*
X18217353Y-86150234D01*
X18713715Y-85945142D01*
X19093807Y-85565712D01*
X19299765Y-85069710D01*
X19300234Y-84532647D01*
X19300000Y-84532081D01*
X19300000Y-84409188D01*
X19459188Y-84250000D01*
X20550000Y-84250000D01*
X21066623Y-84147237D01*
X21166659Y-84080395D01*
X21222346Y-84069917D01*
X21426558Y-83938510D01*
X21466507Y-83880043D01*
X21504594Y-83854594D01*
X21797237Y-83416623D01*
X21900000Y-82900000D01*
X21797237Y-82383377D01*
X21504594Y-81945406D01*
X21469901Y-81922225D01*
X21438510Y-81873442D01*
X21238007Y-81736444D01*
X21171793Y-81723035D01*
X21066623Y-81652763D01*
X20550000Y-81550000D01*
X18900000Y-81550000D01*
X18383377Y-81652763D01*
X17971730Y-81927817D01*
X17945406Y-81945406D01*
X17300000Y-82590812D01*
X17300000Y-80459188D01*
X22003834Y-75755354D01*
X22070856Y-76092293D01*
X22417692Y-76611371D01*
X22625165Y-76750000D01*
X22417692Y-76888629D01*
X22070856Y-77407707D01*
X21949063Y-78020000D01*
X22070856Y-78632293D01*
X22417692Y-79151371D01*
X22625165Y-79290000D01*
X22417692Y-79428629D01*
X22070856Y-79947707D01*
X21949063Y-80560000D01*
X22070856Y-81172293D01*
X22417692Y-81691371D01*
X22625165Y-81830000D01*
X22417692Y-81968629D01*
X22070856Y-82487707D01*
X21949063Y-83100000D01*
X22070856Y-83712293D01*
X22417692Y-84231371D01*
X22625165Y-84370000D01*
X22417692Y-84508629D01*
X22070856Y-85027707D01*
X21949063Y-85640000D01*
X22070856Y-86252293D01*
X22417692Y-86771371D01*
X22625165Y-86910000D01*
X22417692Y-87048629D01*
X22070856Y-87567707D01*
X21949063Y-88180000D01*
X22070856Y-88792293D01*
X22417692Y-89311371D01*
X22625165Y-89450000D01*
X22417692Y-89588629D01*
X22070856Y-90107707D01*
X21949063Y-90720000D01*
X22070856Y-91332293D01*
X22417692Y-91851371D01*
X22936770Y-92198207D01*
X23549063Y-92320000D01*
X25650937Y-92320000D01*
X26263230Y-92198207D01*
X26782308Y-91851371D01*
X27050000Y-91450741D01*
X27050000Y-95069259D01*
X26782308Y-94668629D01*
X26263230Y-94321793D01*
X25650937Y-94200000D01*
X23549063Y-94200000D01*
X22936770Y-94321793D01*
X22417692Y-94668629D01*
X22070856Y-95187707D01*
X21949063Y-95800000D01*
X22070856Y-96412293D01*
X22417692Y-96931371D01*
X22595233Y-97050000D01*
X21459188Y-97050000D01*
X19254594Y-94845406D01*
X19094984Y-94738758D01*
X18816623Y-94552763D01*
X18300000Y-94450000D01*
X8894563Y-94450000D01*
X8982308Y-94391371D01*
X9329144Y-93872293D01*
X9450937Y-93260000D01*
X9329144Y-92647707D01*
X8982308Y-92128629D01*
X8774835Y-91990000D01*
X8982308Y-91851371D01*
X9329144Y-91332293D01*
X9450937Y-90720000D01*
X9329144Y-90107707D01*
X8982308Y-89588629D01*
X8463230Y-89241793D01*
X7850937Y-89120000D01*
X5749063Y-89120000D01*
X5136770Y-89241793D01*
X4617692Y-89588629D01*
X4270856Y-90107707D01*
X4149063Y-90720000D01*
X4270856Y-91332293D01*
X4617692Y-91851371D01*
X4825165Y-91990000D01*
X4617692Y-92128629D01*
X4270856Y-92647707D01*
X4149063Y-93260000D01*
X4270856Y-93872293D01*
X4617692Y-94391371D01*
X4825165Y-94530000D01*
X4617692Y-94668629D01*
X4270856Y-95187707D01*
X4149063Y-95800000D01*
X4270856Y-96412293D01*
X4617692Y-96931371D01*
X5136770Y-97278207D01*
X5749063Y-97400000D01*
X7850937Y-97400000D01*
X8463230Y-97278207D01*
X8655106Y-97150000D01*
X17740812Y-97150000D01*
X19945406Y-99354594D01*
X19975946Y-99375000D01*
X66481Y-99375000D01*
X-1554374Y-99052592D01*
X-2872109Y-98172109D01*
X-3752592Y-96854374D01*
X-3975112Y-95735687D01*
X-2200381Y-95735687D01*
X-1866157Y-96544572D01*
X-1247827Y-97163982D01*
X-439527Y-97499618D01*
X435687Y-97500381D01*
X1244572Y-97166157D01*
X1863982Y-96547827D01*
X2199618Y-95739527D01*
X2200381Y-94864313D01*
X1866157Y-94055428D01*
X1247827Y-93436018D01*
X439527Y-93100382D01*
X-435687Y-93099619D01*
X-1244572Y-93433843D01*
X-1863982Y-94052173D01*
X-2199618Y-94860473D01*
X-2200381Y-95735687D01*
X-3975112Y-95735687D01*
X-4075000Y-95233519D01*
X-4075000Y-18787256D01*
X1819757Y-18787256D01*
X2032445Y-19302000D01*
X2120000Y-19389708D01*
X2120000Y-20560000D01*
X2203733Y-20980952D01*
X2208196Y-20987631D01*
X2208196Y-21185000D01*
X2250033Y-21407346D01*
X2381440Y-21611558D01*
X2581943Y-21748556D01*
X2819950Y-21796754D01*
X3620050Y-21796754D01*
X3842396Y-21754917D01*
X4046608Y-21623510D01*
X4183606Y-21423007D01*
X4231804Y-21185000D01*
X4231804Y-20987631D01*
X4236267Y-20980952D01*
X4320000Y-20560000D01*
X4320000Y-19390092D01*
X4406170Y-19304072D01*
X4619757Y-18789699D01*
X4620243Y-18232744D01*
X4407555Y-17718000D01*
X4014072Y-17323830D01*
X3499699Y-17110243D01*
X2942744Y-17109757D01*
X2428000Y-17322445D01*
X2033830Y-17715928D01*
X1820243Y-18230301D01*
X1819757Y-18787256D01*
X-4075000Y-18787256D01*
X-4075000Y-8613756D01*
X1200000Y-8613756D01*
X1200000Y-9886244D01*
X1295151Y-10364598D01*
X1350000Y-10446685D01*
X1350000Y-11850000D01*
X1433733Y-12270952D01*
X1500551Y-12370952D01*
X1672183Y-12627817D01*
X2372182Y-13327817D01*
X2372185Y-13327819D01*
X2472182Y-13427817D01*
X2829048Y-13666267D01*
X3250000Y-13750000D01*
X21144366Y-13750000D01*
X21667933Y-14273568D01*
X21732097Y-14428857D01*
X22069367Y-14766717D01*
X22510258Y-14949791D01*
X22987647Y-14950207D01*
X23428857Y-14767903D01*
X23766717Y-14430633D01*
X23949791Y-13989742D01*
X23950207Y-13512353D01*
X23767903Y-13071143D01*
X23430633Y-12733283D01*
X23177473Y-12628162D01*
X25802817Y-10002818D01*
X25953266Y-9777654D01*
X26041267Y-9645952D01*
X26125000Y-9225000D01*
X26125000Y-8751873D01*
X26315158Y-8629510D01*
X26452156Y-8429007D01*
X26500354Y-8191000D01*
X26500354Y-6159000D01*
X26458517Y-5936654D01*
X26327110Y-5732442D01*
X26174600Y-5628236D01*
X26260242Y-5542743D01*
X26622489Y-5905623D01*
X27210344Y-6149722D01*
X27846863Y-6150277D01*
X28435143Y-5907205D01*
X28885623Y-5457511D01*
X29129722Y-4869656D01*
X29130277Y-4233137D01*
X28887205Y-3644857D01*
X28437511Y-3194377D01*
X27849656Y-2950278D01*
X27213137Y-2949723D01*
X26624857Y-3192795D01*
X26259758Y-3557257D01*
X26090000Y-3387202D01*
X26090000Y-2950000D01*
X26300000Y-2950000D01*
X26492275Y-2911754D01*
X26900000Y-2911754D01*
X27122346Y-2869917D01*
X27326558Y-2738510D01*
X27400008Y-2631012D01*
X27461490Y-2726558D01*
X27661993Y-2863556D01*
X27900000Y-2911754D01*
X28307725Y-2911754D01*
X28500000Y-2950000D01*
X32292467Y-2950000D01*
X31704857Y-3192795D01*
X31254377Y-3642489D01*
X31010278Y-4230344D01*
X31009723Y-4866863D01*
X31252795Y-5455143D01*
X31695693Y-5898815D01*
X31610079Y-5956020D01*
X31375000Y-6307840D01*
X31139921Y-5956020D01*
X30665095Y-5638751D01*
X30105000Y-5527341D01*
X29544905Y-5638751D01*
X29070079Y-5956020D01*
X28752810Y-6430846D01*
X28641400Y-6990941D01*
X28641400Y-7359059D01*
X28752810Y-7919154D01*
X29070079Y-8393980D01*
X29544905Y-8711249D01*
X30105000Y-8822659D01*
X30665095Y-8711249D01*
X31139921Y-8393980D01*
X31375000Y-8042160D01*
X31610079Y-8393980D01*
X32084905Y-8711249D01*
X32645000Y-8822659D01*
X33205095Y-8711249D01*
X33679921Y-8393980D01*
X33997190Y-7919154D01*
X34035809Y-7725000D01*
X38491695Y-7725000D01*
X38621100Y-8375562D01*
X38989613Y-8927082D01*
X39541133Y-9295595D01*
X40191695Y-9425000D01*
X40258305Y-9425000D01*
X40908867Y-9295595D01*
X41460387Y-8927082D01*
X41828900Y-8375562D01*
X41958305Y-7725000D01*
X41828900Y-7074438D01*
X41460387Y-6522918D01*
X40908867Y-6154405D01*
X40258305Y-6025000D01*
X40191695Y-6025000D01*
X39541133Y-6154405D01*
X38989613Y-6522918D01*
X38621100Y-7074438D01*
X38491695Y-7725000D01*
X34035809Y-7725000D01*
X34108600Y-7359059D01*
X34108600Y-6990941D01*
X33997190Y-6430846D01*
X33679921Y-5956020D01*
X33551920Y-5870492D01*
X33880242Y-5542743D01*
X34242489Y-5905623D01*
X34830344Y-6149722D01*
X35466863Y-6150277D01*
X36055143Y-5907205D01*
X36505623Y-5457511D01*
X36749722Y-4869656D01*
X36750277Y-4233137D01*
X36507205Y-3644857D01*
X36250000Y-3387202D01*
X36250000Y-2600000D01*
X36166267Y-2179048D01*
X35957200Y-1866157D01*
X35927817Y-1822182D01*
X35177817Y-1072183D01*
X35030041Y-973442D01*
X34820952Y-833733D01*
X34400000Y-750000D01*
X28500000Y-750000D01*
X28307725Y-788246D01*
X27900000Y-788246D01*
X27677654Y-830083D01*
X27473442Y-961490D01*
X27399992Y-1068988D01*
X27338510Y-973442D01*
X27138007Y-836444D01*
X26900000Y-788246D01*
X26492275Y-788246D01*
X26300000Y-750000D01*
X24330167Y-750000D01*
X24528857Y-667903D01*
X24847316Y-350000D01*
X25600000Y-350000D01*
X26020952Y-266267D01*
X26027631Y-261804D01*
X26225000Y-261804D01*
X26447346Y-219967D01*
X26651558Y-88560D01*
X26788556Y111943D01*
X26836754Y349950D01*
X26836754Y1150050D01*
X26794917Y1372396D01*
X26663510Y1576608D01*
X26463007Y1713606D01*
X26225000Y1761804D01*
X26027631Y1761804D01*
X26020952Y1766267D01*
X25600000Y1850000D01*
X24250000Y1850000D01*
X23829048Y1766267D01*
X23472182Y1527817D01*
X23411639Y1467274D01*
X23171143Y1367903D01*
X22833283Y1030633D01*
X22650209Y589742D01*
X22649793Y112353D01*
X22832097Y-328857D01*
X23169367Y-666717D01*
X23460643Y-787666D01*
X23457725Y-788246D01*
X23050000Y-788246D01*
X22827654Y-830083D01*
X22623442Y-961490D01*
X22486444Y-1161993D01*
X22438246Y-1400000D01*
X22438246Y-2300000D01*
X22480083Y-2522346D01*
X22611490Y-2726558D01*
X22811993Y-2863556D01*
X23050000Y-2911754D01*
X23457725Y-2911754D01*
X23650000Y-2950000D01*
X23890000Y-2950000D01*
X23890000Y-3387312D01*
X23719758Y-3557257D01*
X23357511Y-3194377D01*
X22769656Y-2950278D01*
X22133137Y-2949723D01*
X21544857Y-3192795D01*
X21179758Y-3557257D01*
X20817511Y-3194377D01*
X20229656Y-2950278D01*
X19865595Y-2949961D01*
X16537816Y377818D01*
X16180952Y616267D01*
X15760000Y700000D01*
X11000000Y700000D01*
X10579048Y616267D01*
X10511228Y570951D01*
X10222183Y377818D01*
X3672183Y-6172183D01*
X3433733Y-6529048D01*
X3350000Y-6950000D01*
X3350000Y-7753994D01*
X3333883Y-7729873D01*
X2928354Y-7458907D01*
X2450000Y-7363756D01*
X1971646Y-7458907D01*
X1566117Y-7729873D01*
X1295151Y-8135402D01*
X1200000Y-8613756D01*
X-4075000Y-8613756D01*
X-4075000Y-435687D01*
X-2200381Y-435687D01*
X-1866157Y-1244572D01*
X-1247827Y-1863982D01*
X-439527Y-2199618D01*
X435687Y-2200381D01*
X1244572Y-1866157D01*
X1863982Y-1247827D01*
X2199618Y-439527D01*
X2200381Y435687D01*
X1866157Y1244572D01*
X1247827Y1863982D01*
X679314Y2100050D01*
X26863246Y2100050D01*
X26863246Y1299950D01*
X26905083Y1077604D01*
X27036490Y873392D01*
X27236993Y736394D01*
X27475000Y688196D01*
X27672369Y688196D01*
X27679048Y683733D01*
X28100000Y600000D01*
X29399935Y600000D01*
X29640258Y500209D01*
X30117647Y499793D01*
X30558857Y682097D01*
X30896717Y1019367D01*
X31079791Y1460258D01*
X31079792Y1462353D01*
X34149793Y1462353D01*
X34332097Y1021143D01*
X34669367Y683283D01*
X35110258Y500209D01*
X35587647Y499793D01*
X35830167Y600000D01*
X36650000Y600000D01*
X36842275Y638246D01*
X37250000Y638246D01*
X37472346Y680083D01*
X37676558Y811490D01*
X37750008Y918988D01*
X37811490Y823442D01*
X38011993Y686444D01*
X38250000Y638246D01*
X38657725Y638246D01*
X38850000Y600000D01*
X40944366Y600000D01*
X44186586Y-2642221D01*
X43724548Y-2450366D01*
X42889117Y-2449637D01*
X42117000Y-2768669D01*
X41525745Y-3358893D01*
X41205366Y-4130452D01*
X41204637Y-4965883D01*
X41523669Y-5738000D01*
X42113893Y-6329255D01*
X42885452Y-6649634D01*
X43720883Y-6650363D01*
X44493000Y-6331331D01*
X45084255Y-5741107D01*
X45404634Y-4969548D01*
X45405363Y-4134117D01*
X45213051Y-3668686D01*
X45450000Y-3905635D01*
X45450000Y-5894365D01*
X44572183Y-6772183D01*
X44333733Y-7129048D01*
X44250000Y-7550000D01*
X44250000Y-9869935D01*
X44150209Y-10110258D01*
X44149793Y-10587647D01*
X44332097Y-11028857D01*
X44669367Y-11366717D01*
X45110258Y-11549791D01*
X45587647Y-11550207D01*
X46028857Y-11367903D01*
X46366717Y-11030633D01*
X46549791Y-10589742D01*
X46550207Y-10112353D01*
X46450000Y-9869833D01*
X46450000Y-8005634D01*
X47327817Y-7127818D01*
X47504598Y-6863246D01*
X47566267Y-6770952D01*
X47650000Y-6350000D01*
X47650000Y-8100000D01*
X47733733Y-8520952D01*
X47738196Y-8527631D01*
X47738196Y-8725000D01*
X47780033Y-8947346D01*
X47911440Y-9151558D01*
X48111943Y-9288556D01*
X48349950Y-9336754D01*
X49150050Y-9336754D01*
X49372396Y-9294917D01*
X49576608Y-9163510D01*
X49713606Y-8963007D01*
X49761804Y-8725000D01*
X49761804Y-8527631D01*
X49766267Y-8520952D01*
X49850000Y-8100000D01*
X49850000Y-7397316D01*
X49869367Y-7416717D01*
X50310258Y-7599791D01*
X50787647Y-7600207D01*
X51097934Y-7471999D01*
X51036444Y-7561993D01*
X50988246Y-7800000D01*
X50988246Y-8207725D01*
X50950000Y-8400000D01*
X50988246Y-8592275D01*
X50988246Y-9000000D01*
X51030083Y-9222346D01*
X51161490Y-9426558D01*
X51268976Y-9500000D01*
X50467663Y-9500000D01*
X50338057Y-9411444D01*
X50100050Y-9363246D01*
X49299950Y-9363246D01*
X49077604Y-9405083D01*
X48873392Y-9536490D01*
X48736394Y-9736993D01*
X48688196Y-9975000D01*
X48688196Y-10172369D01*
X48683733Y-10179048D01*
X48600000Y-10600000D01*
X48683733Y-11020952D01*
X48688196Y-11027631D01*
X48688196Y-11225000D01*
X48730033Y-11447346D01*
X48861440Y-11651558D01*
X49061943Y-11788556D01*
X49299950Y-11836754D01*
X50100050Y-11836754D01*
X50322396Y-11794917D01*
X50469901Y-11700000D01*
X51268976Y-11700000D01*
X51361993Y-11763556D01*
X51600000Y-11811754D01*
X52500000Y-11811754D01*
X52722346Y-11769917D01*
X52926558Y-11638510D01*
X53063556Y-11438007D01*
X53111754Y-11200000D01*
X53111754Y-10792275D01*
X53150000Y-10600000D01*
X53111754Y-10407725D01*
X53111754Y-10000000D01*
X53069917Y-9777654D01*
X52938510Y-9573442D01*
X52831024Y-9500000D01*
X53518976Y-9500000D01*
X53611993Y-9563556D01*
X53850000Y-9611754D01*
X54750000Y-9611754D01*
X54972346Y-9569917D01*
X55081000Y-9500000D01*
X56391957Y-9500000D01*
X56450000Y-9511754D01*
X57050000Y-9511754D01*
X57272346Y-9469917D01*
X57476558Y-9338510D01*
X57613556Y-9138007D01*
X57639274Y-9011011D01*
X57766267Y-8820952D01*
X57850000Y-8400000D01*
X57766267Y-7979048D01*
X57641490Y-7792307D01*
X57619917Y-7677654D01*
X57488510Y-7473442D01*
X57288007Y-7336444D01*
X57050000Y-7288246D01*
X56450000Y-7288246D01*
X56387532Y-7300000D01*
X55081024Y-7300000D01*
X54988007Y-7236444D01*
X54750000Y-7188246D01*
X53850000Y-7188246D01*
X53627654Y-7230083D01*
X53519000Y-7300000D01*
X52831024Y-7300000D01*
X52738007Y-7236444D01*
X52500000Y-7188246D01*
X51600000Y-7188246D01*
X51426146Y-7220959D01*
X51566717Y-7080633D01*
X51667348Y-6838286D01*
X53077818Y-5427817D01*
X53230178Y-5199793D01*
X53316267Y-5070952D01*
X53400000Y-4650000D01*
X53400000Y-435687D01*
X55099619Y-435687D01*
X55433843Y-1244572D01*
X56052173Y-1863982D01*
X56860473Y-2199618D01*
X57735687Y-2200381D01*
X58544572Y-1866157D01*
X59163982Y-1247827D01*
X59499618Y-439527D01*
X59500381Y435687D01*
X59166157Y1244572D01*
X58547827Y1863982D01*
X57739527Y2199618D01*
X56864313Y2200381D01*
X56055428Y1866157D01*
X55436018Y1247827D01*
X55100382Y439527D01*
X55099619Y-435687D01*
X53400000Y-435687D01*
X53400000Y1518976D01*
X53463556Y1611993D01*
X53511754Y1850000D01*
X53511754Y2750000D01*
X53469917Y2972346D01*
X53338510Y3176558D01*
X53138007Y3313556D01*
X52900000Y3361754D01*
X52492275Y3361754D01*
X52300000Y3400000D01*
X52107725Y3361754D01*
X51700000Y3361754D01*
X51477654Y3319917D01*
X51273442Y3188510D01*
X51199992Y3081012D01*
X51138510Y3176558D01*
X50938007Y3313556D01*
X50700000Y3361754D01*
X50292275Y3361754D01*
X50100000Y3400000D01*
X49907725Y3361754D01*
X49500000Y3361754D01*
X49277654Y3319917D01*
X49073442Y3188510D01*
X48936444Y2988007D01*
X48888246Y2750000D01*
X48888246Y1850000D01*
X48930083Y1627654D01*
X49000000Y1519000D01*
X49000000Y1481000D01*
X48938510Y1576558D01*
X48738007Y1713556D01*
X48500000Y1761754D01*
X46600000Y1761754D01*
X46377654Y1719917D01*
X46173442Y1588510D01*
X46036444Y1388007D01*
X45988246Y1150000D01*
X45988246Y-850000D01*
X46030083Y-1072346D01*
X46161490Y-1276558D01*
X46361993Y-1413556D01*
X46450000Y-1431378D01*
X46450000Y-1650000D01*
X46485847Y-1830212D01*
X42177817Y2477817D01*
X42030041Y2576558D01*
X41820952Y2716267D01*
X41400000Y2800000D01*
X38850000Y2800000D01*
X38657725Y2761754D01*
X38250000Y2761754D01*
X38027654Y2719917D01*
X37823442Y2588510D01*
X37749992Y2481012D01*
X37688510Y2576558D01*
X37488007Y2713556D01*
X37250000Y2761754D01*
X36842275Y2761754D01*
X36650000Y2800000D01*
X35830065Y2800000D01*
X35589742Y2899791D01*
X35112353Y2900207D01*
X34671143Y2717903D01*
X34333283Y2380633D01*
X34150209Y1939742D01*
X34149793Y1462353D01*
X31079792Y1462353D01*
X31080207Y1937647D01*
X30897903Y2378857D01*
X30560633Y2716717D01*
X30119742Y2899791D01*
X29642353Y2900207D01*
X29399833Y2800000D01*
X28100000Y2800000D01*
X27679048Y2716267D01*
X27672369Y2711804D01*
X27475000Y2711804D01*
X27252654Y2669967D01*
X27048442Y2538560D01*
X26911444Y2338057D01*
X26863246Y2100050D01*
X679314Y2100050D01*
X439527Y2199618D01*
X-435687Y2200381D01*
X-1244572Y1866157D01*
X-1863982Y1247827D01*
X-2199618Y439527D01*
X-2200381Y-435687D01*
X-4075000Y-435687D01*
X-4075000Y-66481D01*
X-3752592Y1554374D01*
X-2872109Y2872109D01*
X-1554374Y3752592D01*
X66481Y4075000D01*
X57233519Y4075000D01*
X58854374Y3752592D01*
G36*
X18310038Y-4505673D02*
X18309723Y-4866863D01*
X18552795Y-5455143D01*
X19002489Y-5905623D01*
X19590344Y-6149722D01*
X20226863Y-6150277D01*
X20815143Y-5907205D01*
X21180242Y-5542743D01*
X21350000Y-5712798D01*
X21350000Y-8294365D01*
X19794366Y-9850000D01*
X7700000Y-9850000D01*
X7700000Y-8613756D01*
X7604849Y-8135402D01*
X7333883Y-7729873D01*
X7326591Y-7725000D01*
X15691695Y-7725000D01*
X15821100Y-8375562D01*
X16189613Y-8927082D01*
X16741133Y-9295595D01*
X17391695Y-9425000D01*
X17458305Y-9425000D01*
X18108867Y-9295595D01*
X18660387Y-8927082D01*
X19028900Y-8375562D01*
X19158305Y-7725000D01*
X19028900Y-7074438D01*
X18660387Y-6522918D01*
X18108867Y-6154405D01*
X17458305Y-6025000D01*
X17391695Y-6025000D01*
X16741133Y-6154405D01*
X16189613Y-6522918D01*
X15821100Y-7074438D01*
X15691695Y-7725000D01*
X7326591Y-7725000D01*
X6928354Y-7458907D01*
X6450000Y-7363756D01*
X5971646Y-7458907D01*
X5566117Y-7729873D01*
X5550000Y-7753994D01*
X5550000Y-7405634D01*
X7989751Y-4965883D01*
X12199637Y-4965883D01*
X12518669Y-5738000D01*
X13108893Y-6329255D01*
X13880452Y-6649634D01*
X14715883Y-6650363D01*
X15488000Y-6331331D01*
X16079255Y-5741107D01*
X16399634Y-4969548D01*
X16400363Y-4134117D01*
X16081331Y-3362000D01*
X15491107Y-2770745D01*
X14719548Y-2450366D01*
X13884117Y-2449637D01*
X13112000Y-2768669D01*
X12520745Y-3358893D01*
X12200366Y-4130452D01*
X12199637Y-4965883D01*
X7989751Y-4965883D01*
X11455635Y-1500000D01*
X15304366Y-1500000D01*
X18310038Y-4505673D01*
X18310038Y-4505673D01*
G37*
X18310038Y-4505673D02*
X18309723Y-4866863D01*
X18552795Y-5455143D01*
X19002489Y-5905623D01*
X19590344Y-6149722D01*
X20226863Y-6150277D01*
X20815143Y-5907205D01*
X21180242Y-5542743D01*
X21350000Y-5712798D01*
X21350000Y-8294365D01*
X19794366Y-9850000D01*
X7700000Y-9850000D01*
X7700000Y-8613756D01*
X7604849Y-8135402D01*
X7333883Y-7729873D01*
X7326591Y-7725000D01*
X15691695Y-7725000D01*
X15821100Y-8375562D01*
X16189613Y-8927082D01*
X16741133Y-9295595D01*
X17391695Y-9425000D01*
X17458305Y-9425000D01*
X18108867Y-9295595D01*
X18660387Y-8927082D01*
X19028900Y-8375562D01*
X19158305Y-7725000D01*
X19028900Y-7074438D01*
X18660387Y-6522918D01*
X18108867Y-6154405D01*
X17458305Y-6025000D01*
X17391695Y-6025000D01*
X16741133Y-6154405D01*
X16189613Y-6522918D01*
X15821100Y-7074438D01*
X15691695Y-7725000D01*
X7326591Y-7725000D01*
X6928354Y-7458907D01*
X6450000Y-7363756D01*
X5971646Y-7458907D01*
X5566117Y-7729873D01*
X5550000Y-7753994D01*
X5550000Y-7405634D01*
X7989751Y-4965883D01*
X12199637Y-4965883D01*
X12518669Y-5738000D01*
X13108893Y-6329255D01*
X13880452Y-6649634D01*
X14715883Y-6650363D01*
X15488000Y-6331331D01*
X16079255Y-5741107D01*
X16399634Y-4969548D01*
X16400363Y-4134117D01*
X16081331Y-3362000D01*
X15491107Y-2770745D01*
X14719548Y-2450366D01*
X13884117Y-2449637D01*
X13112000Y-2768669D01*
X12520745Y-3358893D01*
X12200366Y-4130452D01*
X12199637Y-4965883D01*
X7989751Y-4965883D01*
X11455635Y-1500000D01*
X15304366Y-1500000D01*
X18310038Y-4505673D01*
G36*
X61375000Y-95233519D02*
X61052592Y-96854374D01*
X60172109Y-98172109D01*
X58854374Y-99052592D01*
X57233519Y-99375000D01*
X46074394Y-99375000D01*
X46254594Y-99254594D01*
X46409188Y-99100000D01*
X47300000Y-99100000D01*
X47816623Y-98997237D01*
X48254594Y-98704594D01*
X48547237Y-98266623D01*
X48550000Y-98252733D01*
X48552763Y-98266623D01*
X48845406Y-98704594D01*
X49283377Y-98997237D01*
X49800000Y-99100000D01*
X50316623Y-98997237D01*
X50754594Y-98704594D01*
X51047237Y-98266623D01*
X51150000Y-97750000D01*
X51150000Y-97709188D01*
X52854594Y-96004594D01*
X52874368Y-95975000D01*
X53034271Y-95735687D01*
X55099619Y-95735687D01*
X55433843Y-96544572D01*
X56052173Y-97163982D01*
X56860473Y-97499618D01*
X57735687Y-97500381D01*
X58544572Y-97166157D01*
X59163982Y-96547827D01*
X59499618Y-95739527D01*
X59500381Y-94864313D01*
X59166157Y-94055428D01*
X58547827Y-93436018D01*
X57739527Y-93100382D01*
X56864313Y-93099619D01*
X56055428Y-93433843D01*
X55436018Y-94052173D01*
X55100382Y-94860473D01*
X55099619Y-95735687D01*
X53034271Y-95735687D01*
X53147237Y-95566623D01*
X53250000Y-95050000D01*
X53250000Y-93509188D01*
X57154594Y-89604594D01*
X57194142Y-89545406D01*
X57255278Y-89453910D01*
X60304594Y-86404594D01*
X60597238Y-85966622D01*
X60700000Y-85450000D01*
X60700000Y-45200000D01*
X60597237Y-44683377D01*
X60304594Y-44245406D01*
X58725474Y-42666286D01*
X58950000Y-42711754D01*
X59850000Y-42711754D01*
X60072346Y-42669917D01*
X60276558Y-42538510D01*
X60413556Y-42338007D01*
X60461754Y-42100000D01*
X60461754Y-41692275D01*
X60500000Y-41500000D01*
X60461754Y-41307725D01*
X60461754Y-40900000D01*
X60419917Y-40677654D01*
X60288510Y-40473442D01*
X60088007Y-40336444D01*
X59850000Y-40288246D01*
X58950000Y-40288246D01*
X58727654Y-40330083D01*
X58619000Y-40400000D01*
X57714210Y-40400000D01*
X57973267Y-40012293D01*
X58095060Y-39400000D01*
X57973267Y-38787707D01*
X57626431Y-38268629D01*
X57154347Y-37953193D01*
X57205143Y-37932205D01*
X57655623Y-37482511D01*
X57899722Y-36894656D01*
X57900277Y-36258137D01*
X57657205Y-35669857D01*
X57207511Y-35219377D01*
X56619656Y-34975278D01*
X55983137Y-34974723D01*
X55394857Y-35217795D01*
X54944377Y-35667489D01*
X54700278Y-36255344D01*
X54699723Y-36891863D01*
X54942795Y-37480143D01*
X55262094Y-37800000D01*
X55004940Y-37800000D01*
X54392647Y-37921793D01*
X53873569Y-38268629D01*
X53526733Y-38787707D01*
X53404940Y-39400000D01*
X53526733Y-40012293D01*
X53873569Y-40531371D01*
X54310436Y-40823275D01*
X54229029Y-40945109D01*
X54118654Y-41500000D01*
X54229029Y-42054891D01*
X54459623Y-42400000D01*
X53430000Y-42400000D01*
X53430000Y-41661024D01*
X53493556Y-41568007D01*
X53541754Y-41330000D01*
X53541754Y-40430000D01*
X53499917Y-40207654D01*
X53368510Y-40003442D01*
X53168007Y-39866444D01*
X52930000Y-39818246D01*
X52522275Y-39818246D01*
X52330000Y-39780000D01*
X52137725Y-39818246D01*
X51730000Y-39818246D01*
X51507654Y-39860083D01*
X51303442Y-39991490D01*
X51229992Y-40098988D01*
X51168510Y-40003442D01*
X50968007Y-39866444D01*
X50730000Y-39818246D01*
X50322275Y-39818246D01*
X50130000Y-39780000D01*
X49937725Y-39818246D01*
X49530000Y-39818246D01*
X49307654Y-39860083D01*
X49103442Y-39991490D01*
X48966444Y-40191993D01*
X48918246Y-40430000D01*
X48918246Y-41330000D01*
X48960083Y-41552346D01*
X49030000Y-41661000D01*
X49030000Y-41780000D01*
X49053870Y-41900000D01*
X48127663Y-41900000D01*
X47998057Y-41811444D01*
X47760050Y-41763246D01*
X46959950Y-41763246D01*
X46737604Y-41805083D01*
X46533392Y-41936490D01*
X46396394Y-42136993D01*
X46348196Y-42375000D01*
X46348196Y-42572369D01*
X46343733Y-42579048D01*
X46260000Y-43000000D01*
X46343733Y-43420952D01*
X46348196Y-43427631D01*
X46348196Y-43625000D01*
X46390033Y-43847346D01*
X46521440Y-44051558D01*
X46721943Y-44188556D01*
X46959950Y-44236754D01*
X47760050Y-44236754D01*
X47982396Y-44194917D01*
X48129901Y-44100000D01*
X49652337Y-44100000D01*
X49781943Y-44188556D01*
X50019950Y-44236754D01*
X50820050Y-44236754D01*
X51042396Y-44194917D01*
X51246608Y-44063510D01*
X51371506Y-43880716D01*
X51481440Y-44051558D01*
X51625514Y-44150000D01*
X51370000Y-44150000D01*
X50853377Y-44252763D01*
X50785843Y-44297888D01*
X50747604Y-44305083D01*
X50543392Y-44436490D01*
X50513974Y-44479545D01*
X50415406Y-44545406D01*
X50122763Y-44983377D01*
X50020000Y-45500000D01*
X50122763Y-46016623D01*
X50415406Y-46454594D01*
X50509504Y-46517468D01*
X50531440Y-46551558D01*
X50731943Y-46688556D01*
X50780171Y-46698323D01*
X50853377Y-46747237D01*
X51200000Y-46816185D01*
X51200000Y-48800000D01*
X49600000Y-48800000D01*
X49179048Y-48883733D01*
X49138179Y-48911041D01*
X48845437Y-49106644D01*
X49041038Y-48911043D01*
X49041041Y-48911041D01*
X49225298Y-48635281D01*
X49243564Y-48543451D01*
X49262346Y-48539917D01*
X49466558Y-48408510D01*
X49603556Y-48208007D01*
X49651754Y-47970000D01*
X49651754Y-47070000D01*
X49609917Y-46847654D01*
X49540000Y-46739000D01*
X49540000Y-45630000D01*
X49456267Y-45209048D01*
X49328548Y-45017903D01*
X49321804Y-45007810D01*
X49321804Y-44875000D01*
X49279967Y-44652654D01*
X49148560Y-44448442D01*
X48948057Y-44311444D01*
X48710050Y-44263246D01*
X47909950Y-44263246D01*
X47687604Y-44305083D01*
X47483392Y-44436490D01*
X47346394Y-44636993D01*
X47298196Y-44875000D01*
X47298196Y-45072370D01*
X47293733Y-45079049D01*
X47210001Y-45500000D01*
X47293733Y-45920951D01*
X47298196Y-45927630D01*
X47298196Y-46125000D01*
X47340000Y-46347171D01*
X47340000Y-46738976D01*
X47276444Y-46831993D01*
X47228246Y-47070000D01*
X47228246Y-47970000D01*
X47235772Y-48010000D01*
X44790005Y-48010000D01*
X44790000Y-48009999D01*
X44464719Y-48074702D01*
X44200000Y-48251582D01*
X44200000Y-45295103D01*
X44628857Y-45117903D01*
X44966717Y-44780633D01*
X45149791Y-44339742D01*
X45150207Y-43862353D01*
X44967903Y-43421143D01*
X44630633Y-43083283D01*
X44189742Y-42900209D01*
X43712353Y-42899793D01*
X43271143Y-43082097D01*
X43200000Y-43153116D01*
X43200000Y-41800000D01*
X43135298Y-41474719D01*
X42951041Y-41198959D01*
X41552258Y-39800176D01*
X41587647Y-39800207D01*
X41830167Y-39700000D01*
X44050000Y-39700000D01*
X44470952Y-39616267D01*
X44827817Y-39377817D01*
X51688246Y-32517389D01*
X51688246Y-32556119D01*
X50522183Y-33722183D01*
X50283733Y-34079048D01*
X50200000Y-34500000D01*
X50200000Y-35412312D01*
X49944377Y-35667489D01*
X49700278Y-36255344D01*
X49699723Y-36891863D01*
X49942795Y-37480143D01*
X50392489Y-37930623D01*
X50980344Y-38174722D01*
X51616863Y-38175277D01*
X52205143Y-37932205D01*
X52655623Y-37482511D01*
X52899722Y-36894656D01*
X52900277Y-36258137D01*
X52657205Y-35669857D01*
X52400000Y-35412202D01*
X52400000Y-34955634D01*
X53093881Y-34261754D01*
X53200000Y-34261754D01*
X53422346Y-34219917D01*
X53626558Y-34088510D01*
X53763556Y-33888007D01*
X53811754Y-33650000D01*
X53811754Y-33242276D01*
X53850000Y-33050000D01*
X53888246Y-33242275D01*
X53888246Y-33650000D01*
X53930083Y-33872346D01*
X54061490Y-34076558D01*
X54261993Y-34213556D01*
X54500000Y-34261754D01*
X55400000Y-34261754D01*
X55622346Y-34219917D01*
X55731000Y-34150000D01*
X55819935Y-34150000D01*
X56060258Y-34249791D01*
X56537647Y-34250207D01*
X56978857Y-34067903D01*
X57316717Y-33730633D01*
X57365718Y-33612625D01*
X57619367Y-33866717D01*
X58060258Y-34049791D01*
X58537647Y-34050207D01*
X58978857Y-33867903D01*
X59316717Y-33530633D01*
X59499791Y-33089742D01*
X59500207Y-32612353D01*
X59317903Y-32171143D01*
X58980633Y-31833283D01*
X58738287Y-31732652D01*
X58692389Y-31686754D01*
X60900000Y-31686754D01*
X61122346Y-31644917D01*
X61326558Y-31513510D01*
X61375000Y-31442613D01*
X61375000Y-95233519D01*
X61375000Y-95233519D01*
G37*
X61375000Y-95233519D02*
X61052592Y-96854374D01*
X60172109Y-98172109D01*
X58854374Y-99052592D01*
X57233519Y-99375000D01*
X46074394Y-99375000D01*
X46254594Y-99254594D01*
X46409188Y-99100000D01*
X47300000Y-99100000D01*
X47816623Y-98997237D01*
X48254594Y-98704594D01*
X48547237Y-98266623D01*
X48550000Y-98252733D01*
X48552763Y-98266623D01*
X48845406Y-98704594D01*
X49283377Y-98997237D01*
X49800000Y-99100000D01*
X50316623Y-98997237D01*
X50754594Y-98704594D01*
X51047237Y-98266623D01*
X51150000Y-97750000D01*
X51150000Y-97709188D01*
X52854594Y-96004594D01*
X52874368Y-95975000D01*
X53034271Y-95735687D01*
X55099619Y-95735687D01*
X55433843Y-96544572D01*
X56052173Y-97163982D01*
X56860473Y-97499618D01*
X57735687Y-97500381D01*
X58544572Y-97166157D01*
X59163982Y-96547827D01*
X59499618Y-95739527D01*
X59500381Y-94864313D01*
X59166157Y-94055428D01*
X58547827Y-93436018D01*
X57739527Y-93100382D01*
X56864313Y-93099619D01*
X56055428Y-93433843D01*
X55436018Y-94052173D01*
X55100382Y-94860473D01*
X55099619Y-95735687D01*
X53034271Y-95735687D01*
X53147237Y-95566623D01*
X53250000Y-95050000D01*
X53250000Y-93509188D01*
X57154594Y-89604594D01*
X57194142Y-89545406D01*
X57255278Y-89453910D01*
X60304594Y-86404594D01*
X60597238Y-85966622D01*
X60700000Y-85450000D01*
X60700000Y-45200000D01*
X60597237Y-44683377D01*
X60304594Y-44245406D01*
X58725474Y-42666286D01*
X58950000Y-42711754D01*
X59850000Y-42711754D01*
X60072346Y-42669917D01*
X60276558Y-42538510D01*
X60413556Y-42338007D01*
X60461754Y-42100000D01*
X60461754Y-41692275D01*
X60500000Y-41500000D01*
X60461754Y-41307725D01*
X60461754Y-40900000D01*
X60419917Y-40677654D01*
X60288510Y-40473442D01*
X60088007Y-40336444D01*
X59850000Y-40288246D01*
X58950000Y-40288246D01*
X58727654Y-40330083D01*
X58619000Y-40400000D01*
X57714210Y-40400000D01*
X57973267Y-40012293D01*
X58095060Y-39400000D01*
X57973267Y-38787707D01*
X57626431Y-38268629D01*
X57154347Y-37953193D01*
X57205143Y-37932205D01*
X57655623Y-37482511D01*
X57899722Y-36894656D01*
X57900277Y-36258137D01*
X57657205Y-35669857D01*
X57207511Y-35219377D01*
X56619656Y-34975278D01*
X55983137Y-34974723D01*
X55394857Y-35217795D01*
X54944377Y-35667489D01*
X54700278Y-36255344D01*
X54699723Y-36891863D01*
X54942795Y-37480143D01*
X55262094Y-37800000D01*
X55004940Y-37800000D01*
X54392647Y-37921793D01*
X53873569Y-38268629D01*
X53526733Y-38787707D01*
X53404940Y-39400000D01*
X53526733Y-40012293D01*
X53873569Y-40531371D01*
X54310436Y-40823275D01*
X54229029Y-40945109D01*
X54118654Y-41500000D01*
X54229029Y-42054891D01*
X54459623Y-42400000D01*
X53430000Y-42400000D01*
X53430000Y-41661024D01*
X53493556Y-41568007D01*
X53541754Y-41330000D01*
X53541754Y-40430000D01*
X53499917Y-40207654D01*
X53368510Y-40003442D01*
X53168007Y-39866444D01*
X52930000Y-39818246D01*
X52522275Y-39818246D01*
X52330000Y-39780000D01*
X52137725Y-39818246D01*
X51730000Y-39818246D01*
X51507654Y-39860083D01*
X51303442Y-39991490D01*
X51229992Y-40098988D01*
X51168510Y-40003442D01*
X50968007Y-39866444D01*
X50730000Y-39818246D01*
X50322275Y-39818246D01*
X50130000Y-39780000D01*
X49937725Y-39818246D01*
X49530000Y-39818246D01*
X49307654Y-39860083D01*
X49103442Y-39991490D01*
X48966444Y-40191993D01*
X48918246Y-40430000D01*
X48918246Y-41330000D01*
X48960083Y-41552346D01*
X49030000Y-41661000D01*
X49030000Y-41780000D01*
X49053870Y-41900000D01*
X48127663Y-41900000D01*
X47998057Y-41811444D01*
X47760050Y-41763246D01*
X46959950Y-41763246D01*
X46737604Y-41805083D01*
X46533392Y-41936490D01*
X46396394Y-42136993D01*
X46348196Y-42375000D01*
X46348196Y-42572369D01*
X46343733Y-42579048D01*
X46260000Y-43000000D01*
X46343733Y-43420952D01*
X46348196Y-43427631D01*
X46348196Y-43625000D01*
X46390033Y-43847346D01*
X46521440Y-44051558D01*
X46721943Y-44188556D01*
X46959950Y-44236754D01*
X47760050Y-44236754D01*
X47982396Y-44194917D01*
X48129901Y-44100000D01*
X49652337Y-44100000D01*
X49781943Y-44188556D01*
X50019950Y-44236754D01*
X50820050Y-44236754D01*
X51042396Y-44194917D01*
X51246608Y-44063510D01*
X51371506Y-43880716D01*
X51481440Y-44051558D01*
X51625514Y-44150000D01*
X51370000Y-44150000D01*
X50853377Y-44252763D01*
X50785843Y-44297888D01*
X50747604Y-44305083D01*
X50543392Y-44436490D01*
X50513974Y-44479545D01*
X50415406Y-44545406D01*
X50122763Y-44983377D01*
X50020000Y-45500000D01*
X50122763Y-46016623D01*
X50415406Y-46454594D01*
X50509504Y-46517468D01*
X50531440Y-46551558D01*
X50731943Y-46688556D01*
X50780171Y-46698323D01*
X50853377Y-46747237D01*
X51200000Y-46816185D01*
X51200000Y-48800000D01*
X49600000Y-48800000D01*
X49179048Y-48883733D01*
X49138179Y-48911041D01*
X48845437Y-49106644D01*
X49041038Y-48911043D01*
X49041041Y-48911041D01*
X49225298Y-48635281D01*
X49243564Y-48543451D01*
X49262346Y-48539917D01*
X49466558Y-48408510D01*
X49603556Y-48208007D01*
X49651754Y-47970000D01*
X49651754Y-47070000D01*
X49609917Y-46847654D01*
X49540000Y-46739000D01*
X49540000Y-45630000D01*
X49456267Y-45209048D01*
X49328548Y-45017903D01*
X49321804Y-45007810D01*
X49321804Y-44875000D01*
X49279967Y-44652654D01*
X49148560Y-44448442D01*
X48948057Y-44311444D01*
X48710050Y-44263246D01*
X47909950Y-44263246D01*
X47687604Y-44305083D01*
X47483392Y-44436490D01*
X47346394Y-44636993D01*
X47298196Y-44875000D01*
X47298196Y-45072370D01*
X47293733Y-45079049D01*
X47210001Y-45500000D01*
X47293733Y-45920951D01*
X47298196Y-45927630D01*
X47298196Y-46125000D01*
X47340000Y-46347171D01*
X47340000Y-46738976D01*
X47276444Y-46831993D01*
X47228246Y-47070000D01*
X47228246Y-47970000D01*
X47235772Y-48010000D01*
X44790005Y-48010000D01*
X44790000Y-48009999D01*
X44464719Y-48074702D01*
X44200000Y-48251582D01*
X44200000Y-45295103D01*
X44628857Y-45117903D01*
X44966717Y-44780633D01*
X45149791Y-44339742D01*
X45150207Y-43862353D01*
X44967903Y-43421143D01*
X44630633Y-43083283D01*
X44189742Y-42900209D01*
X43712353Y-42899793D01*
X43271143Y-43082097D01*
X43200000Y-43153116D01*
X43200000Y-41800000D01*
X43135298Y-41474719D01*
X42951041Y-41198959D01*
X41552258Y-39800176D01*
X41587647Y-39800207D01*
X41830167Y-39700000D01*
X44050000Y-39700000D01*
X44470952Y-39616267D01*
X44827817Y-39377817D01*
X51688246Y-32517389D01*
X51688246Y-32556119D01*
X50522183Y-33722183D01*
X50283733Y-34079048D01*
X50200000Y-34500000D01*
X50200000Y-35412312D01*
X49944377Y-35667489D01*
X49700278Y-36255344D01*
X49699723Y-36891863D01*
X49942795Y-37480143D01*
X50392489Y-37930623D01*
X50980344Y-38174722D01*
X51616863Y-38175277D01*
X52205143Y-37932205D01*
X52655623Y-37482511D01*
X52899722Y-36894656D01*
X52900277Y-36258137D01*
X52657205Y-35669857D01*
X52400000Y-35412202D01*
X52400000Y-34955634D01*
X53093881Y-34261754D01*
X53200000Y-34261754D01*
X53422346Y-34219917D01*
X53626558Y-34088510D01*
X53763556Y-33888007D01*
X53811754Y-33650000D01*
X53811754Y-33242276D01*
X53850000Y-33050000D01*
X53888246Y-33242275D01*
X53888246Y-33650000D01*
X53930083Y-33872346D01*
X54061490Y-34076558D01*
X54261993Y-34213556D01*
X54500000Y-34261754D01*
X55400000Y-34261754D01*
X55622346Y-34219917D01*
X55731000Y-34150000D01*
X55819935Y-34150000D01*
X56060258Y-34249791D01*
X56537647Y-34250207D01*
X56978857Y-34067903D01*
X57316717Y-33730633D01*
X57365718Y-33612625D01*
X57619367Y-33866717D01*
X58060258Y-34049791D01*
X58537647Y-34050207D01*
X58978857Y-33867903D01*
X59316717Y-33530633D01*
X59499791Y-33089742D01*
X59500207Y-32612353D01*
X59317903Y-32171143D01*
X58980633Y-31833283D01*
X58738287Y-31732652D01*
X58692389Y-31686754D01*
X60900000Y-31686754D01*
X61122346Y-31644917D01*
X61326558Y-31513510D01*
X61375000Y-31442613D01*
X61375000Y-95233519D01*
G36*
X52437816Y-81248820D02*
X52479653Y-81471166D01*
X52611060Y-81675378D01*
X52811563Y-81812376D01*
X53049570Y-81860574D01*
X54850430Y-81860574D01*
X55072776Y-81818737D01*
X55276988Y-81687330D01*
X55413986Y-81486827D01*
X55462184Y-81248820D01*
X55462184Y-80100000D01*
X58000000Y-80100000D01*
X58000000Y-84890812D01*
X55245406Y-87645406D01*
X55144722Y-87796090D01*
X50945406Y-91995406D01*
X50652763Y-92433377D01*
X50550000Y-92950000D01*
X50550000Y-94490812D01*
X48845406Y-96195406D01*
X48552763Y-96633377D01*
X48459526Y-97102109D01*
X48254594Y-96795406D01*
X47816623Y-96502763D01*
X47300000Y-96400000D01*
X45850000Y-96400000D01*
X45333377Y-96502763D01*
X44925525Y-96775281D01*
X44895406Y-96795406D01*
X44842369Y-96848443D01*
X44949791Y-96589742D01*
X44950207Y-96112353D01*
X44767903Y-95671143D01*
X44430633Y-95333283D01*
X43989742Y-95150209D01*
X43512353Y-95149793D01*
X43227335Y-95267560D01*
X43118510Y-95098442D01*
X42918007Y-94961444D01*
X42680000Y-94913246D01*
X41620000Y-94913246D01*
X41397654Y-94955083D01*
X41193442Y-95086490D01*
X41056444Y-95286993D01*
X41051533Y-95311243D01*
X41049917Y-95302654D01*
X40918510Y-95098442D01*
X40768193Y-94995734D01*
X40904594Y-94904594D01*
X41112204Y-94593884D01*
X41181490Y-94701558D01*
X41381993Y-94838556D01*
X41620000Y-94886754D01*
X42680000Y-94886754D01*
X42902346Y-94844917D01*
X43106558Y-94713510D01*
X43243556Y-94513007D01*
X43291754Y-94275000D01*
X43291754Y-93625000D01*
X43258826Y-93450000D01*
X46190812Y-93450000D01*
X46594573Y-93853761D01*
X46784288Y-94043807D01*
X47280290Y-94249765D01*
X47817353Y-94250234D01*
X48313715Y-94045142D01*
X48693807Y-93665712D01*
X48899765Y-93169710D01*
X48900234Y-92632647D01*
X48695142Y-92136285D01*
X48315712Y-91756193D01*
X48315146Y-91755958D01*
X47704594Y-91145406D01*
X47266623Y-90852763D01*
X46750000Y-90750000D01*
X37855611Y-90750000D01*
X37688787Y-90636014D01*
X37450780Y-90587816D01*
X36841552Y-90587816D01*
X36830574Y-90571386D01*
X34901444Y-88642256D01*
X35160312Y-88749748D01*
X35737157Y-88750251D01*
X36270286Y-88529967D01*
X36449956Y-88350610D01*
X36627569Y-88528533D01*
X37160312Y-88749748D01*
X37737157Y-88750251D01*
X38270286Y-88529967D01*
X38449956Y-88350610D01*
X38627569Y-88528533D01*
X39160312Y-88749748D01*
X39737157Y-88750251D01*
X40270286Y-88529967D01*
X40449956Y-88350610D01*
X40627569Y-88528533D01*
X41160312Y-88749748D01*
X41737157Y-88750251D01*
X42270286Y-88529967D01*
X42449956Y-88350610D01*
X42627569Y-88528533D01*
X43160312Y-88749748D01*
X43737157Y-88750251D01*
X44270286Y-88529967D01*
X44449956Y-88350610D01*
X44627569Y-88528533D01*
X45160312Y-88749748D01*
X45737157Y-88750251D01*
X46270286Y-88529967D01*
X46449956Y-88350610D01*
X46627569Y-88528533D01*
X47160312Y-88749748D01*
X47737157Y-88750251D01*
X48270286Y-88529967D01*
X48449956Y-88350610D01*
X48627569Y-88528533D01*
X49160312Y-88749748D01*
X49737157Y-88750251D01*
X50270286Y-88529967D01*
X50449956Y-88350610D01*
X50627569Y-88528533D01*
X51160312Y-88749748D01*
X51737157Y-88750251D01*
X52270286Y-88529967D01*
X52449956Y-88350610D01*
X52627569Y-88528533D01*
X53160312Y-88749748D01*
X53737157Y-88750251D01*
X54270286Y-88529967D01*
X54678533Y-88122431D01*
X54899748Y-87589688D01*
X54900251Y-87012843D01*
X54679967Y-86479714D01*
X54272431Y-86071467D01*
X53739688Y-85850252D01*
X53162843Y-85849749D01*
X52629714Y-86070033D01*
X52450044Y-86249390D01*
X52272431Y-86071467D01*
X51739688Y-85850252D01*
X51162843Y-85849749D01*
X50629714Y-86070033D01*
X50450044Y-86249390D01*
X50272431Y-86071467D01*
X49739688Y-85850252D01*
X49162843Y-85849749D01*
X48629714Y-86070033D01*
X48450044Y-86249390D01*
X48272431Y-86071467D01*
X47739688Y-85850252D01*
X47162843Y-85849749D01*
X46629714Y-86070033D01*
X46450044Y-86249390D01*
X46272431Y-86071467D01*
X45904956Y-85918877D01*
X45923346Y-85915417D01*
X46102709Y-85800000D01*
X46450000Y-85800000D01*
X46775281Y-85735298D01*
X46903000Y-85649959D01*
X47187647Y-85650207D01*
X47430167Y-85550000D01*
X48050000Y-85550000D01*
X48470952Y-85466267D01*
X48827817Y-85227817D01*
X49127817Y-84927818D01*
X49296932Y-84674719D01*
X49366267Y-84570952D01*
X49450000Y-84150000D01*
X49450000Y-83350000D01*
X49411754Y-83157725D01*
X49411754Y-82750000D01*
X49369917Y-82527654D01*
X49238510Y-82323442D01*
X49131012Y-82249992D01*
X49226558Y-82188510D01*
X49363556Y-81988007D01*
X49411754Y-81750000D01*
X49411754Y-81342275D01*
X49450000Y-81150000D01*
X49411754Y-80957725D01*
X49411754Y-80550000D01*
X49369917Y-80327654D01*
X49238510Y-80123442D01*
X49204202Y-80100000D01*
X52437816Y-80100000D01*
X52437816Y-81248820D01*
X52437816Y-81248820D01*
G37*
X52437816Y-81248820D02*
X52479653Y-81471166D01*
X52611060Y-81675378D01*
X52811563Y-81812376D01*
X53049570Y-81860574D01*
X54850430Y-81860574D01*
X55072776Y-81818737D01*
X55276988Y-81687330D01*
X55413986Y-81486827D01*
X55462184Y-81248820D01*
X55462184Y-80100000D01*
X58000000Y-80100000D01*
X58000000Y-84890812D01*
X55245406Y-87645406D01*
X55144722Y-87796090D01*
X50945406Y-91995406D01*
X50652763Y-92433377D01*
X50550000Y-92950000D01*
X50550000Y-94490812D01*
X48845406Y-96195406D01*
X48552763Y-96633377D01*
X48459526Y-97102109D01*
X48254594Y-96795406D01*
X47816623Y-96502763D01*
X47300000Y-96400000D01*
X45850000Y-96400000D01*
X45333377Y-96502763D01*
X44925525Y-96775281D01*
X44895406Y-96795406D01*
X44842369Y-96848443D01*
X44949791Y-96589742D01*
X44950207Y-96112353D01*
X44767903Y-95671143D01*
X44430633Y-95333283D01*
X43989742Y-95150209D01*
X43512353Y-95149793D01*
X43227335Y-95267560D01*
X43118510Y-95098442D01*
X42918007Y-94961444D01*
X42680000Y-94913246D01*
X41620000Y-94913246D01*
X41397654Y-94955083D01*
X41193442Y-95086490D01*
X41056444Y-95286993D01*
X41051533Y-95311243D01*
X41049917Y-95302654D01*
X40918510Y-95098442D01*
X40768193Y-94995734D01*
X40904594Y-94904594D01*
X41112204Y-94593884D01*
X41181490Y-94701558D01*
X41381993Y-94838556D01*
X41620000Y-94886754D01*
X42680000Y-94886754D01*
X42902346Y-94844917D01*
X43106558Y-94713510D01*
X43243556Y-94513007D01*
X43291754Y-94275000D01*
X43291754Y-93625000D01*
X43258826Y-93450000D01*
X46190812Y-93450000D01*
X46594573Y-93853761D01*
X46784288Y-94043807D01*
X47280290Y-94249765D01*
X47817353Y-94250234D01*
X48313715Y-94045142D01*
X48693807Y-93665712D01*
X48899765Y-93169710D01*
X48900234Y-92632647D01*
X48695142Y-92136285D01*
X48315712Y-91756193D01*
X48315146Y-91755958D01*
X47704594Y-91145406D01*
X47266623Y-90852763D01*
X46750000Y-90750000D01*
X37855611Y-90750000D01*
X37688787Y-90636014D01*
X37450780Y-90587816D01*
X36841552Y-90587816D01*
X36830574Y-90571386D01*
X34901444Y-88642256D01*
X35160312Y-88749748D01*
X35737157Y-88750251D01*
X36270286Y-88529967D01*
X36449956Y-88350610D01*
X36627569Y-88528533D01*
X37160312Y-88749748D01*
X37737157Y-88750251D01*
X38270286Y-88529967D01*
X38449956Y-88350610D01*
X38627569Y-88528533D01*
X39160312Y-88749748D01*
X39737157Y-88750251D01*
X40270286Y-88529967D01*
X40449956Y-88350610D01*
X40627569Y-88528533D01*
X41160312Y-88749748D01*
X41737157Y-88750251D01*
X42270286Y-88529967D01*
X42449956Y-88350610D01*
X42627569Y-88528533D01*
X43160312Y-88749748D01*
X43737157Y-88750251D01*
X44270286Y-88529967D01*
X44449956Y-88350610D01*
X44627569Y-88528533D01*
X45160312Y-88749748D01*
X45737157Y-88750251D01*
X46270286Y-88529967D01*
X46449956Y-88350610D01*
X46627569Y-88528533D01*
X47160312Y-88749748D01*
X47737157Y-88750251D01*
X48270286Y-88529967D01*
X48449956Y-88350610D01*
X48627569Y-88528533D01*
X49160312Y-88749748D01*
X49737157Y-88750251D01*
X50270286Y-88529967D01*
X50449956Y-88350610D01*
X50627569Y-88528533D01*
X51160312Y-88749748D01*
X51737157Y-88750251D01*
X52270286Y-88529967D01*
X52449956Y-88350610D01*
X52627569Y-88528533D01*
X53160312Y-88749748D01*
X53737157Y-88750251D01*
X54270286Y-88529967D01*
X54678533Y-88122431D01*
X54899748Y-87589688D01*
X54900251Y-87012843D01*
X54679967Y-86479714D01*
X54272431Y-86071467D01*
X53739688Y-85850252D01*
X53162843Y-85849749D01*
X52629714Y-86070033D01*
X52450044Y-86249390D01*
X52272431Y-86071467D01*
X51739688Y-85850252D01*
X51162843Y-85849749D01*
X50629714Y-86070033D01*
X50450044Y-86249390D01*
X50272431Y-86071467D01*
X49739688Y-85850252D01*
X49162843Y-85849749D01*
X48629714Y-86070033D01*
X48450044Y-86249390D01*
X48272431Y-86071467D01*
X47739688Y-85850252D01*
X47162843Y-85849749D01*
X46629714Y-86070033D01*
X46450044Y-86249390D01*
X46272431Y-86071467D01*
X45904956Y-85918877D01*
X45923346Y-85915417D01*
X46102709Y-85800000D01*
X46450000Y-85800000D01*
X46775281Y-85735298D01*
X46903000Y-85649959D01*
X47187647Y-85650207D01*
X47430167Y-85550000D01*
X48050000Y-85550000D01*
X48470952Y-85466267D01*
X48827817Y-85227817D01*
X49127817Y-84927818D01*
X49296932Y-84674719D01*
X49366267Y-84570952D01*
X49450000Y-84150000D01*
X49450000Y-83350000D01*
X49411754Y-83157725D01*
X49411754Y-82750000D01*
X49369917Y-82527654D01*
X49238510Y-82323442D01*
X49131012Y-82249992D01*
X49226558Y-82188510D01*
X49363556Y-81988007D01*
X49411754Y-81750000D01*
X49411754Y-81342275D01*
X49450000Y-81150000D01*
X49411754Y-80957725D01*
X49411754Y-80550000D01*
X49369917Y-80327654D01*
X49238510Y-80123442D01*
X49204202Y-80100000D01*
X52437816Y-80100000D01*
X52437816Y-81248820D01*
G36*
X29811490Y-78926558D02*
X29869957Y-78966507D01*
X29895406Y-79004594D01*
X30333377Y-79297237D01*
X30850000Y-79400000D01*
X33490812Y-79400000D01*
X33650000Y-79559188D01*
X33650000Y-80200000D01*
X33752763Y-80716623D01*
X33890114Y-80922183D01*
X34045406Y-81154594D01*
X34645406Y-81754594D01*
X35083377Y-82047237D01*
X35350000Y-82100272D01*
X35350000Y-82750000D01*
X35452763Y-83266623D01*
X35601535Y-83489277D01*
X35440812Y-83650000D01*
X34600000Y-83650000D01*
X34083377Y-83752763D01*
X33669886Y-84029049D01*
X33645406Y-84045406D01*
X32145406Y-85545406D01*
X31852763Y-85983377D01*
X31750000Y-86500000D01*
X31750000Y-88375292D01*
X31566623Y-88252763D01*
X31050000Y-88150000D01*
X29400000Y-88150000D01*
X28883378Y-88252762D01*
X28445406Y-88545406D01*
X27445406Y-89545406D01*
X27152763Y-89983377D01*
X27128287Y-90106425D01*
X26782308Y-89588629D01*
X26574835Y-89450000D01*
X26782308Y-89311371D01*
X27129144Y-88792293D01*
X27250937Y-88180000D01*
X27129144Y-87567707D01*
X26782308Y-87048629D01*
X26574835Y-86910000D01*
X26782308Y-86771371D01*
X27129144Y-86252293D01*
X27250937Y-85640000D01*
X27129144Y-85027707D01*
X26782308Y-84508629D01*
X26574835Y-84370000D01*
X26782308Y-84231371D01*
X27129144Y-83712293D01*
X27250937Y-83100000D01*
X27129144Y-82487707D01*
X26782308Y-81968629D01*
X26574835Y-81830000D01*
X26782308Y-81691371D01*
X27129144Y-81172293D01*
X27250937Y-80560000D01*
X27129144Y-79947707D01*
X26782308Y-79428629D01*
X26694563Y-79370000D01*
X28499184Y-79370000D01*
X28650000Y-79399999D01*
X29166622Y-79297237D01*
X29604594Y-79004594D01*
X29627775Y-78969901D01*
X29676558Y-78938510D01*
X29750008Y-78831012D01*
X29811490Y-78926558D01*
X29811490Y-78926558D01*
G37*
X29811490Y-78926558D02*
X29869957Y-78966507D01*
X29895406Y-79004594D01*
X30333377Y-79297237D01*
X30850000Y-79400000D01*
X33490812Y-79400000D01*
X33650000Y-79559188D01*
X33650000Y-80200000D01*
X33752763Y-80716623D01*
X33890114Y-80922183D01*
X34045406Y-81154594D01*
X34645406Y-81754594D01*
X35083377Y-82047237D01*
X35350000Y-82100272D01*
X35350000Y-82750000D01*
X35452763Y-83266623D01*
X35601535Y-83489277D01*
X35440812Y-83650000D01*
X34600000Y-83650000D01*
X34083377Y-83752763D01*
X33669886Y-84029049D01*
X33645406Y-84045406D01*
X32145406Y-85545406D01*
X31852763Y-85983377D01*
X31750000Y-86500000D01*
X31750000Y-88375292D01*
X31566623Y-88252763D01*
X31050000Y-88150000D01*
X29400000Y-88150000D01*
X28883378Y-88252762D01*
X28445406Y-88545406D01*
X27445406Y-89545406D01*
X27152763Y-89983377D01*
X27128287Y-90106425D01*
X26782308Y-89588629D01*
X26574835Y-89450000D01*
X26782308Y-89311371D01*
X27129144Y-88792293D01*
X27250937Y-88180000D01*
X27129144Y-87567707D01*
X26782308Y-87048629D01*
X26574835Y-86910000D01*
X26782308Y-86771371D01*
X27129144Y-86252293D01*
X27250937Y-85640000D01*
X27129144Y-85027707D01*
X26782308Y-84508629D01*
X26574835Y-84370000D01*
X26782308Y-84231371D01*
X27129144Y-83712293D01*
X27250937Y-83100000D01*
X27129144Y-82487707D01*
X26782308Y-81968629D01*
X26574835Y-81830000D01*
X26782308Y-81691371D01*
X27129144Y-81172293D01*
X27250937Y-80560000D01*
X27129144Y-79947707D01*
X26782308Y-79428629D01*
X26694563Y-79370000D01*
X28499184Y-79370000D01*
X28650000Y-79399999D01*
X29166622Y-79297237D01*
X29604594Y-79004594D01*
X29627775Y-78969901D01*
X29676558Y-78938510D01*
X29750008Y-78831012D01*
X29811490Y-78926558D01*
G36*
X58000000Y-77400000D02*
X47950000Y-77400000D01*
X47433377Y-77502763D01*
X46995406Y-77795406D01*
X46702763Y-78233377D01*
X46600000Y-78750000D01*
X46702763Y-79266623D01*
X46995406Y-79704594D01*
X47433377Y-79997237D01*
X47599610Y-80030303D01*
X47569000Y-80050000D01*
X45617663Y-80050000D01*
X45488057Y-79961444D01*
X45250050Y-79913246D01*
X44449950Y-79913246D01*
X44227604Y-79955083D01*
X44023392Y-80086490D01*
X43886394Y-80286993D01*
X43838196Y-80525000D01*
X43838196Y-80722369D01*
X43833733Y-80729048D01*
X43750000Y-81150000D01*
X43800349Y-81403121D01*
X43730633Y-81333283D01*
X43289742Y-81150209D01*
X42812353Y-81149793D01*
X42500000Y-81278854D01*
X42500000Y-81197146D01*
X42616717Y-81080633D01*
X42799791Y-80639742D01*
X42800207Y-80162353D01*
X42617903Y-79721143D01*
X42447056Y-79549997D01*
X42687647Y-79550207D01*
X42921777Y-79453467D01*
X42930033Y-79497346D01*
X43061440Y-79701558D01*
X43261943Y-79838556D01*
X43499950Y-79886754D01*
X44300050Y-79886754D01*
X44522396Y-79844917D01*
X44726608Y-79713510D01*
X44863606Y-79513007D01*
X44911804Y-79275000D01*
X44911804Y-79077630D01*
X44916267Y-79070951D01*
X44999999Y-78650000D01*
X44916267Y-78229049D01*
X44911804Y-78222370D01*
X44911804Y-78025000D01*
X44869967Y-77802654D01*
X44738560Y-77598442D01*
X44538057Y-77461444D01*
X44300050Y-77413246D01*
X44139951Y-77413246D01*
X44020952Y-77333733D01*
X43600000Y-77250000D01*
X42930065Y-77250000D01*
X42689742Y-77150209D01*
X42212353Y-77149793D01*
X41771143Y-77332097D01*
X41602946Y-77500000D01*
X40492482Y-77500000D01*
X40458007Y-77476444D01*
X40220000Y-77428246D01*
X39000000Y-77428246D01*
X38777654Y-77470083D01*
X38573442Y-77601490D01*
X38436444Y-77801993D01*
X38388246Y-78040000D01*
X38388246Y-78512011D01*
X38374719Y-78514702D01*
X38098959Y-78698959D01*
X38098957Y-78698962D01*
X37698959Y-79098959D01*
X37545754Y-79328246D01*
X36380000Y-79328246D01*
X36350000Y-79333891D01*
X36350000Y-79000000D01*
X36247237Y-78483377D01*
X35954594Y-78045406D01*
X35004594Y-77095406D01*
X34906831Y-77030083D01*
X34566623Y-76802763D01*
X34050000Y-76700000D01*
X32200000Y-76700000D01*
X32200000Y-74700000D01*
X32168174Y-74540000D01*
X32097238Y-74183378D01*
X31804594Y-73745406D01*
X31200000Y-73140812D01*
X31200000Y-68809220D01*
X35727816Y-68809220D01*
X35727816Y-71958820D01*
X35769653Y-72181166D01*
X35901060Y-72385378D01*
X36101563Y-72522376D01*
X36339570Y-72570574D01*
X38140430Y-72570574D01*
X38362776Y-72528737D01*
X38566988Y-72397330D01*
X38703986Y-72196827D01*
X38752184Y-71958820D01*
X38752184Y-70781024D01*
X38813208Y-70720000D01*
X40752226Y-70720000D01*
X40801490Y-70796558D01*
X41001993Y-70933556D01*
X41240000Y-70981754D01*
X42440000Y-70981754D01*
X42662346Y-70939917D01*
X42866558Y-70808510D01*
X43003556Y-70608007D01*
X43051754Y-70370000D01*
X43051754Y-69939727D01*
X43087237Y-69886623D01*
X43190000Y-69370000D01*
X43087237Y-68853377D01*
X43051754Y-68800273D01*
X43051754Y-68370000D01*
X43009917Y-68147654D01*
X42878510Y-67943442D01*
X42678007Y-67806444D01*
X42440000Y-67758246D01*
X41240000Y-67758246D01*
X41017654Y-67800083D01*
X40813442Y-67931490D01*
X40752966Y-68020000D01*
X38254020Y-68020000D01*
X37737397Y-68122763D01*
X37625596Y-68197466D01*
X36339570Y-68197466D01*
X36117224Y-68239303D01*
X35913012Y-68370710D01*
X35776014Y-68571213D01*
X35727816Y-68809220D01*
X31200000Y-68809220D01*
X31200000Y-66300000D01*
X31097237Y-65783377D01*
X30804594Y-65345406D01*
X29250000Y-63790812D01*
X29250000Y-62350000D01*
X29147237Y-61833377D01*
X28854594Y-61395406D01*
X28659188Y-61200000D01*
X52350000Y-61200000D01*
X52350000Y-64149171D01*
X52272431Y-64071467D01*
X51739688Y-63850252D01*
X51162843Y-63849749D01*
X50629714Y-64070033D01*
X50450044Y-64249390D01*
X50272431Y-64071467D01*
X49739688Y-63850252D01*
X49162843Y-63849749D01*
X48629714Y-64070033D01*
X48450044Y-64249390D01*
X48272431Y-64071467D01*
X47739688Y-63850252D01*
X47162843Y-63849749D01*
X46629714Y-64070033D01*
X46450044Y-64249390D01*
X46272431Y-64071467D01*
X45739688Y-63850252D01*
X45162843Y-63849749D01*
X44629714Y-64070033D01*
X44450044Y-64249390D01*
X44272431Y-64071467D01*
X43739688Y-63850252D01*
X43162843Y-63849749D01*
X42629714Y-64070033D01*
X42450044Y-64249390D01*
X42272431Y-64071467D01*
X41739688Y-63850252D01*
X41162843Y-63849749D01*
X40629714Y-64070033D01*
X40450044Y-64249390D01*
X40272431Y-64071467D01*
X39739688Y-63850252D01*
X39162843Y-63849749D01*
X38629714Y-64070033D01*
X38450044Y-64249390D01*
X38272431Y-64071467D01*
X37739688Y-63850252D01*
X37162843Y-63849749D01*
X36629714Y-64070033D01*
X36221467Y-64477569D01*
X36000252Y-65010312D01*
X35999749Y-65587157D01*
X36220033Y-66120286D01*
X36627569Y-66528533D01*
X37160312Y-66749748D01*
X37737157Y-66750251D01*
X38270286Y-66529967D01*
X38449956Y-66350610D01*
X38627569Y-66528533D01*
X39160312Y-66749748D01*
X39737157Y-66750251D01*
X40270286Y-66529967D01*
X40449956Y-66350610D01*
X40627569Y-66528533D01*
X41160312Y-66749748D01*
X41737157Y-66750251D01*
X42270286Y-66529967D01*
X42449956Y-66350610D01*
X42627569Y-66528533D01*
X43160312Y-66749748D01*
X43737157Y-66750251D01*
X44270286Y-66529967D01*
X44449956Y-66350610D01*
X44627569Y-66528533D01*
X45160312Y-66749748D01*
X45737157Y-66750251D01*
X46270286Y-66529967D01*
X46449956Y-66350610D01*
X46627569Y-66528533D01*
X47160312Y-66749748D01*
X47737157Y-66750251D01*
X48270286Y-66529967D01*
X48449956Y-66350610D01*
X48627569Y-66528533D01*
X49160312Y-66749748D01*
X49737157Y-66750251D01*
X50270286Y-66529967D01*
X50449956Y-66350610D01*
X50627569Y-66528533D01*
X51160312Y-66749748D01*
X51737157Y-66750251D01*
X52100000Y-66600328D01*
X52100000Y-67554832D01*
X51487366Y-68167466D01*
X50809506Y-68167466D01*
X50742603Y-68122763D01*
X50225980Y-68020000D01*
X47527774Y-68020000D01*
X47478510Y-67943442D01*
X47278007Y-67806444D01*
X47040000Y-67758246D01*
X45840000Y-67758246D01*
X45617654Y-67800083D01*
X45413442Y-67931490D01*
X45276444Y-68131993D01*
X45228246Y-68370000D01*
X45228246Y-68800273D01*
X45192763Y-68853377D01*
X45090000Y-69370000D01*
X45192763Y-69886623D01*
X45228246Y-69939727D01*
X45228246Y-70370000D01*
X45270083Y-70592346D01*
X45401490Y-70796558D01*
X45601993Y-70933556D01*
X45840000Y-70981754D01*
X46965990Y-70981754D01*
X47002763Y-71166623D01*
X47295406Y-71604594D01*
X47733377Y-71897237D01*
X48250000Y-72000000D01*
X48766623Y-71897237D01*
X49204594Y-71604594D01*
X49497237Y-71166623D01*
X49586076Y-70720000D01*
X49666792Y-70720000D01*
X49697816Y-70751024D01*
X49697816Y-71928820D01*
X49739653Y-72151166D01*
X49871060Y-72355378D01*
X50071563Y-72492376D01*
X50309570Y-72540574D01*
X52110430Y-72540574D01*
X52332776Y-72498737D01*
X52536988Y-72367330D01*
X52673986Y-72166827D01*
X52722184Y-71928820D01*
X52722184Y-70751024D01*
X54404594Y-69068614D01*
X54456206Y-68991371D01*
X54697237Y-68630643D01*
X54800000Y-68114020D01*
X54800000Y-65829907D01*
X54899748Y-65589688D01*
X54900251Y-65012843D01*
X54679967Y-64479714D01*
X54550000Y-64349520D01*
X54550000Y-59600000D01*
X54466267Y-59179048D01*
X54347326Y-59001041D01*
X54227818Y-58822183D01*
X52800000Y-57394366D01*
X52800000Y-56531024D01*
X52863556Y-56438007D01*
X52911754Y-56200000D01*
X52911754Y-55300000D01*
X52869917Y-55077654D01*
X52738510Y-54873442D01*
X52538007Y-54736444D01*
X52300000Y-54688246D01*
X51892275Y-54688246D01*
X51700000Y-54650000D01*
X50330065Y-54650000D01*
X50089742Y-54550209D01*
X49612353Y-54549793D01*
X49171143Y-54732097D01*
X48833283Y-55069367D01*
X48650209Y-55510258D01*
X48649793Y-55987647D01*
X48832097Y-56428857D01*
X49169367Y-56766717D01*
X49610258Y-56949791D01*
X50087647Y-56950207D01*
X50330167Y-56850000D01*
X50600000Y-56850000D01*
X50600000Y-57850000D01*
X50683733Y-58270952D01*
X50922183Y-58627817D01*
X51294366Y-59000000D01*
X43302082Y-59000000D01*
X44151041Y-58151041D01*
X44335298Y-57875281D01*
X44400000Y-57550000D01*
X44400000Y-57330167D01*
X44482097Y-57528857D01*
X44819367Y-57866717D01*
X45260258Y-58049791D01*
X45737647Y-58050207D01*
X46178857Y-57867903D01*
X46516717Y-57530633D01*
X46699791Y-57089742D01*
X46700207Y-56612353D01*
X46517903Y-56171143D01*
X46350000Y-56002946D01*
X46350000Y-55550000D01*
X46285298Y-55224719D01*
X46101041Y-54948959D01*
X45372316Y-54220234D01*
X45401041Y-54201041D01*
X46101038Y-53501043D01*
X46101041Y-53501041D01*
X46101950Y-53499680D01*
X46178857Y-53467903D01*
X46516717Y-53130633D01*
X46699791Y-52689742D01*
X46700207Y-52212353D01*
X46529826Y-51800000D01*
X48800000Y-51800000D01*
X49220952Y-51716267D01*
X49577817Y-51477817D01*
X50055635Y-51000000D01*
X51790812Y-51000000D01*
X55100000Y-54309188D01*
X55100000Y-67500000D01*
X55202763Y-68016623D01*
X55495406Y-68454594D01*
X55933377Y-68747237D01*
X56450000Y-68850000D01*
X56966623Y-68747237D01*
X57404594Y-68454594D01*
X57697237Y-68016623D01*
X57800000Y-67500000D01*
X57800000Y-53750000D01*
X57697237Y-53233377D01*
X57404594Y-52795406D01*
X53900000Y-49290812D01*
X53900000Y-48749032D01*
X54392647Y-49078207D01*
X55004940Y-49200000D01*
X56495060Y-49200000D01*
X57107353Y-49078207D01*
X57626431Y-48731371D01*
X57973267Y-48212293D01*
X58000000Y-48077898D01*
X58000000Y-77400000D01*
X58000000Y-77400000D01*
G37*
X58000000Y-77400000D02*
X47950000Y-77400000D01*
X47433377Y-77502763D01*
X46995406Y-77795406D01*
X46702763Y-78233377D01*
X46600000Y-78750000D01*
X46702763Y-79266623D01*
X46995406Y-79704594D01*
X47433377Y-79997237D01*
X47599610Y-80030303D01*
X47569000Y-80050000D01*
X45617663Y-80050000D01*
X45488057Y-79961444D01*
X45250050Y-79913246D01*
X44449950Y-79913246D01*
X44227604Y-79955083D01*
X44023392Y-80086490D01*
X43886394Y-80286993D01*
X43838196Y-80525000D01*
X43838196Y-80722369D01*
X43833733Y-80729048D01*
X43750000Y-81150000D01*
X43800349Y-81403121D01*
X43730633Y-81333283D01*
X43289742Y-81150209D01*
X42812353Y-81149793D01*
X42500000Y-81278854D01*
X42500000Y-81197146D01*
X42616717Y-81080633D01*
X42799791Y-80639742D01*
X42800207Y-80162353D01*
X42617903Y-79721143D01*
X42447056Y-79549997D01*
X42687647Y-79550207D01*
X42921777Y-79453467D01*
X42930033Y-79497346D01*
X43061440Y-79701558D01*
X43261943Y-79838556D01*
X43499950Y-79886754D01*
X44300050Y-79886754D01*
X44522396Y-79844917D01*
X44726608Y-79713510D01*
X44863606Y-79513007D01*
X44911804Y-79275000D01*
X44911804Y-79077630D01*
X44916267Y-79070951D01*
X44999999Y-78650000D01*
X44916267Y-78229049D01*
X44911804Y-78222370D01*
X44911804Y-78025000D01*
X44869967Y-77802654D01*
X44738560Y-77598442D01*
X44538057Y-77461444D01*
X44300050Y-77413246D01*
X44139951Y-77413246D01*
X44020952Y-77333733D01*
X43600000Y-77250000D01*
X42930065Y-77250000D01*
X42689742Y-77150209D01*
X42212353Y-77149793D01*
X41771143Y-77332097D01*
X41602946Y-77500000D01*
X40492482Y-77500000D01*
X40458007Y-77476444D01*
X40220000Y-77428246D01*
X39000000Y-77428246D01*
X38777654Y-77470083D01*
X38573442Y-77601490D01*
X38436444Y-77801993D01*
X38388246Y-78040000D01*
X38388246Y-78512011D01*
X38374719Y-78514702D01*
X38098959Y-78698959D01*
X38098957Y-78698962D01*
X37698959Y-79098959D01*
X37545754Y-79328246D01*
X36380000Y-79328246D01*
X36350000Y-79333891D01*
X36350000Y-79000000D01*
X36247237Y-78483377D01*
X35954594Y-78045406D01*
X35004594Y-77095406D01*
X34906831Y-77030083D01*
X34566623Y-76802763D01*
X34050000Y-76700000D01*
X32200000Y-76700000D01*
X32200000Y-74700000D01*
X32168174Y-74540000D01*
X32097238Y-74183378D01*
X31804594Y-73745406D01*
X31200000Y-73140812D01*
X31200000Y-68809220D01*
X35727816Y-68809220D01*
X35727816Y-71958820D01*
X35769653Y-72181166D01*
X35901060Y-72385378D01*
X36101563Y-72522376D01*
X36339570Y-72570574D01*
X38140430Y-72570574D01*
X38362776Y-72528737D01*
X38566988Y-72397330D01*
X38703986Y-72196827D01*
X38752184Y-71958820D01*
X38752184Y-70781024D01*
X38813208Y-70720000D01*
X40752226Y-70720000D01*
X40801490Y-70796558D01*
X41001993Y-70933556D01*
X41240000Y-70981754D01*
X42440000Y-70981754D01*
X42662346Y-70939917D01*
X42866558Y-70808510D01*
X43003556Y-70608007D01*
X43051754Y-70370000D01*
X43051754Y-69939727D01*
X43087237Y-69886623D01*
X43190000Y-69370000D01*
X43087237Y-68853377D01*
X43051754Y-68800273D01*
X43051754Y-68370000D01*
X43009917Y-68147654D01*
X42878510Y-67943442D01*
X42678007Y-67806444D01*
X42440000Y-67758246D01*
X41240000Y-67758246D01*
X41017654Y-67800083D01*
X40813442Y-67931490D01*
X40752966Y-68020000D01*
X38254020Y-68020000D01*
X37737397Y-68122763D01*
X37625596Y-68197466D01*
X36339570Y-68197466D01*
X36117224Y-68239303D01*
X35913012Y-68370710D01*
X35776014Y-68571213D01*
X35727816Y-68809220D01*
X31200000Y-68809220D01*
X31200000Y-66300000D01*
X31097237Y-65783377D01*
X30804594Y-65345406D01*
X29250000Y-63790812D01*
X29250000Y-62350000D01*
X29147237Y-61833377D01*
X28854594Y-61395406D01*
X28659188Y-61200000D01*
X52350000Y-61200000D01*
X52350000Y-64149171D01*
X52272431Y-64071467D01*
X51739688Y-63850252D01*
X51162843Y-63849749D01*
X50629714Y-64070033D01*
X50450044Y-64249390D01*
X50272431Y-64071467D01*
X49739688Y-63850252D01*
X49162843Y-63849749D01*
X48629714Y-64070033D01*
X48450044Y-64249390D01*
X48272431Y-64071467D01*
X47739688Y-63850252D01*
X47162843Y-63849749D01*
X46629714Y-64070033D01*
X46450044Y-64249390D01*
X46272431Y-64071467D01*
X45739688Y-63850252D01*
X45162843Y-63849749D01*
X44629714Y-64070033D01*
X44450044Y-64249390D01*
X44272431Y-64071467D01*
X43739688Y-63850252D01*
X43162843Y-63849749D01*
X42629714Y-64070033D01*
X42450044Y-64249390D01*
X42272431Y-64071467D01*
X41739688Y-63850252D01*
X41162843Y-63849749D01*
X40629714Y-64070033D01*
X40450044Y-64249390D01*
X40272431Y-64071467D01*
X39739688Y-63850252D01*
X39162843Y-63849749D01*
X38629714Y-64070033D01*
X38450044Y-64249390D01*
X38272431Y-64071467D01*
X37739688Y-63850252D01*
X37162843Y-63849749D01*
X36629714Y-64070033D01*
X36221467Y-64477569D01*
X36000252Y-65010312D01*
X35999749Y-65587157D01*
X36220033Y-66120286D01*
X36627569Y-66528533D01*
X37160312Y-66749748D01*
X37737157Y-66750251D01*
X38270286Y-66529967D01*
X38449956Y-66350610D01*
X38627569Y-66528533D01*
X39160312Y-66749748D01*
X39737157Y-66750251D01*
X40270286Y-66529967D01*
X40449956Y-66350610D01*
X40627569Y-66528533D01*
X41160312Y-66749748D01*
X41737157Y-66750251D01*
X42270286Y-66529967D01*
X42449956Y-66350610D01*
X42627569Y-66528533D01*
X43160312Y-66749748D01*
X43737157Y-66750251D01*
X44270286Y-66529967D01*
X44449956Y-66350610D01*
X44627569Y-66528533D01*
X45160312Y-66749748D01*
X45737157Y-66750251D01*
X46270286Y-66529967D01*
X46449956Y-66350610D01*
X46627569Y-66528533D01*
X47160312Y-66749748D01*
X47737157Y-66750251D01*
X48270286Y-66529967D01*
X48449956Y-66350610D01*
X48627569Y-66528533D01*
X49160312Y-66749748D01*
X49737157Y-66750251D01*
X50270286Y-66529967D01*
X50449956Y-66350610D01*
X50627569Y-66528533D01*
X51160312Y-66749748D01*
X51737157Y-66750251D01*
X52100000Y-66600328D01*
X52100000Y-67554832D01*
X51487366Y-68167466D01*
X50809506Y-68167466D01*
X50742603Y-68122763D01*
X50225980Y-68020000D01*
X47527774Y-68020000D01*
X47478510Y-67943442D01*
X47278007Y-67806444D01*
X47040000Y-67758246D01*
X45840000Y-67758246D01*
X45617654Y-67800083D01*
X45413442Y-67931490D01*
X45276444Y-68131993D01*
X45228246Y-68370000D01*
X45228246Y-68800273D01*
X45192763Y-68853377D01*
X45090000Y-69370000D01*
X45192763Y-69886623D01*
X45228246Y-69939727D01*
X45228246Y-70370000D01*
X45270083Y-70592346D01*
X45401490Y-70796558D01*
X45601993Y-70933556D01*
X45840000Y-70981754D01*
X46965990Y-70981754D01*
X47002763Y-71166623D01*
X47295406Y-71604594D01*
X47733377Y-71897237D01*
X48250000Y-72000000D01*
X48766623Y-71897237D01*
X49204594Y-71604594D01*
X49497237Y-71166623D01*
X49586076Y-70720000D01*
X49666792Y-70720000D01*
X49697816Y-70751024D01*
X49697816Y-71928820D01*
X49739653Y-72151166D01*
X49871060Y-72355378D01*
X50071563Y-72492376D01*
X50309570Y-72540574D01*
X52110430Y-72540574D01*
X52332776Y-72498737D01*
X52536988Y-72367330D01*
X52673986Y-72166827D01*
X52722184Y-71928820D01*
X52722184Y-70751024D01*
X54404594Y-69068614D01*
X54456206Y-68991371D01*
X54697237Y-68630643D01*
X54800000Y-68114020D01*
X54800000Y-65829907D01*
X54899748Y-65589688D01*
X54900251Y-65012843D01*
X54679967Y-64479714D01*
X54550000Y-64349520D01*
X54550000Y-59600000D01*
X54466267Y-59179048D01*
X54347326Y-59001041D01*
X54227818Y-58822183D01*
X52800000Y-57394366D01*
X52800000Y-56531024D01*
X52863556Y-56438007D01*
X52911754Y-56200000D01*
X52911754Y-55300000D01*
X52869917Y-55077654D01*
X52738510Y-54873442D01*
X52538007Y-54736444D01*
X52300000Y-54688246D01*
X51892275Y-54688246D01*
X51700000Y-54650000D01*
X50330065Y-54650000D01*
X50089742Y-54550209D01*
X49612353Y-54549793D01*
X49171143Y-54732097D01*
X48833283Y-55069367D01*
X48650209Y-55510258D01*
X48649793Y-55987647D01*
X48832097Y-56428857D01*
X49169367Y-56766717D01*
X49610258Y-56949791D01*
X50087647Y-56950207D01*
X50330167Y-56850000D01*
X50600000Y-56850000D01*
X50600000Y-57850000D01*
X50683733Y-58270952D01*
X50922183Y-58627817D01*
X51294366Y-59000000D01*
X43302082Y-59000000D01*
X44151041Y-58151041D01*
X44335298Y-57875281D01*
X44400000Y-57550000D01*
X44400000Y-57330167D01*
X44482097Y-57528857D01*
X44819367Y-57866717D01*
X45260258Y-58049791D01*
X45737647Y-58050207D01*
X46178857Y-57867903D01*
X46516717Y-57530633D01*
X46699791Y-57089742D01*
X46700207Y-56612353D01*
X46517903Y-56171143D01*
X46350000Y-56002946D01*
X46350000Y-55550000D01*
X46285298Y-55224719D01*
X46101041Y-54948959D01*
X45372316Y-54220234D01*
X45401041Y-54201041D01*
X46101038Y-53501043D01*
X46101041Y-53501041D01*
X46101950Y-53499680D01*
X46178857Y-53467903D01*
X46516717Y-53130633D01*
X46699791Y-52689742D01*
X46700207Y-52212353D01*
X46529826Y-51800000D01*
X48800000Y-51800000D01*
X49220952Y-51716267D01*
X49577817Y-51477817D01*
X50055635Y-51000000D01*
X51790812Y-51000000D01*
X55100000Y-54309188D01*
X55100000Y-67500000D01*
X55202763Y-68016623D01*
X55495406Y-68454594D01*
X55933377Y-68747237D01*
X56450000Y-68850000D01*
X56966623Y-68747237D01*
X57404594Y-68454594D01*
X57697237Y-68016623D01*
X57800000Y-67500000D01*
X57800000Y-53750000D01*
X57697237Y-53233377D01*
X57404594Y-52795406D01*
X53900000Y-49290812D01*
X53900000Y-48749032D01*
X54392647Y-49078207D01*
X55004940Y-49200000D01*
X56495060Y-49200000D01*
X57107353Y-49078207D01*
X57626431Y-48731371D01*
X57973267Y-48212293D01*
X58000000Y-48077898D01*
X58000000Y-77400000D01*
G36*
X-1299791Y-36510258D02*
X-1300207Y-36987647D01*
X-1200000Y-37230167D01*
X-1200000Y-52600000D01*
X-1116267Y-53020952D01*
X-950000Y-53269788D01*
X-950000Y-53400000D01*
X-885298Y-53725281D01*
X-701041Y-54001041D01*
X747918Y-55450000D01*
X148959Y-56048959D01*
X-35298Y-56324719D01*
X-100000Y-56650000D01*
X-100000Y-61247918D01*
X-652080Y-61799998D01*
X-887647Y-61799793D01*
X-1328857Y-61982097D01*
X-1619619Y-62272351D01*
X-1682097Y-62121143D01*
X-1725000Y-62078165D01*
X-1725000Y-36703858D01*
X-1135327Y-36114185D01*
X-1299791Y-36510258D01*
X-1299791Y-36510258D01*
G37*
X-1299791Y-36510258D02*
X-1300207Y-36987647D01*
X-1200000Y-37230167D01*
X-1200000Y-52600000D01*
X-1116267Y-53020952D01*
X-950000Y-53269788D01*
X-950000Y-53400000D01*
X-885298Y-53725281D01*
X-701041Y-54001041D01*
X747918Y-55450000D01*
X148959Y-56048959D01*
X-35298Y-56324719D01*
X-100000Y-56650000D01*
X-100000Y-61247918D01*
X-652080Y-61799998D01*
X-887647Y-61799793D01*
X-1328857Y-61982097D01*
X-1619619Y-62272351D01*
X-1682097Y-62121143D01*
X-1725000Y-62078165D01*
X-1725000Y-36703858D01*
X-1135327Y-36114185D01*
X-1299791Y-36510258D01*
G36*
X61375000Y-26705149D02*
X61338510Y-26648442D01*
X61138007Y-26511444D01*
X60900000Y-26463246D01*
X57900000Y-26463246D01*
X57677654Y-26505083D01*
X57473442Y-26636490D01*
X57336444Y-26836993D01*
X57288246Y-27075000D01*
X57288246Y-30282612D01*
X57077817Y-30072183D01*
X56987736Y-30011993D01*
X56720952Y-29833733D01*
X56300000Y-29750000D01*
X55731024Y-29750000D01*
X55638007Y-29686444D01*
X55400000Y-29638246D01*
X54500000Y-29638246D01*
X54277654Y-29680083D01*
X54169000Y-29750000D01*
X53531024Y-29750000D01*
X53438007Y-29686444D01*
X53200000Y-29638246D01*
X52300000Y-29638246D01*
X52077654Y-29680083D01*
X51969000Y-29750000D01*
X51800000Y-29750000D01*
X51379048Y-29833733D01*
X51242878Y-29924719D01*
X51022182Y-30072183D01*
X50311754Y-30782611D01*
X50311754Y-27075000D01*
X50269917Y-26852654D01*
X50138510Y-26648442D01*
X49938007Y-26511444D01*
X49700000Y-26463246D01*
X46700000Y-26463246D01*
X46477654Y-26505083D01*
X46273442Y-26636490D01*
X46136444Y-26836993D01*
X46088246Y-27075000D01*
X46088246Y-28133405D01*
X46000000Y-27919833D01*
X46000000Y-26305634D01*
X46255635Y-26050000D01*
X53425000Y-26050000D01*
X53845952Y-25966267D01*
X54202817Y-25727817D01*
X56255672Y-23674962D01*
X56616863Y-23675277D01*
X57205143Y-23432205D01*
X57655623Y-22982511D01*
X57899722Y-22394656D01*
X57900277Y-21758137D01*
X57657205Y-21169857D01*
X57207511Y-20719377D01*
X56619656Y-20475278D01*
X55983137Y-20474723D01*
X55394857Y-20717795D01*
X54944377Y-21167489D01*
X54700278Y-21755344D01*
X54699961Y-22119405D01*
X52969366Y-23850000D01*
X45800000Y-23850000D01*
X45379048Y-23933733D01*
X45022182Y-24172183D01*
X44122183Y-25072183D01*
X43883733Y-25429048D01*
X43800000Y-25850000D01*
X43800000Y-27919935D01*
X43700209Y-28160258D01*
X43699793Y-28637647D01*
X43882097Y-29078857D01*
X44219367Y-29416717D01*
X44660258Y-29599791D01*
X45137647Y-29600207D01*
X45578857Y-29417903D01*
X45916717Y-29080633D01*
X46088246Y-28667545D01*
X46088246Y-31075000D01*
X46130083Y-31297346D01*
X46261490Y-31501558D01*
X46461993Y-31638556D01*
X46700000Y-31686754D01*
X49407611Y-31686754D01*
X44765649Y-36328717D01*
X44617903Y-35971143D01*
X44482618Y-35835621D01*
X44493000Y-35831331D01*
X45084255Y-35241107D01*
X45404634Y-34469548D01*
X45405363Y-33634117D01*
X45086331Y-32862000D01*
X44496107Y-32270745D01*
X43724548Y-31950366D01*
X42889117Y-31949637D01*
X42117000Y-32268669D01*
X41525745Y-32858893D01*
X41213337Y-33611255D01*
X40601041Y-32998959D01*
X40379457Y-32850901D01*
X40908867Y-32745595D01*
X41460387Y-32377082D01*
X41828900Y-31825562D01*
X41958305Y-31175000D01*
X41828900Y-30524438D01*
X41460387Y-29972918D01*
X40908867Y-29604405D01*
X40258305Y-29475000D01*
X40191695Y-29475000D01*
X39541133Y-29604405D01*
X38989613Y-29972918D01*
X38621100Y-30524438D01*
X38491695Y-31175000D01*
X38621100Y-31825562D01*
X38989613Y-32377082D01*
X39541133Y-32745595D01*
X39563278Y-32750000D01*
X38250005Y-32750000D01*
X38250000Y-32749999D01*
X37936528Y-32812353D01*
X37924719Y-32814702D01*
X37648959Y-32998959D01*
X37648957Y-32998962D01*
X36648959Y-33998959D01*
X36464702Y-34274719D01*
X36400000Y-34600000D01*
X36400000Y-38764420D01*
X36263287Y-38707652D01*
X34450000Y-36894366D01*
X34450000Y-36155065D01*
X34549791Y-35914742D01*
X34550207Y-35437353D01*
X34367903Y-34996143D01*
X34030633Y-34658283D01*
X33589742Y-34475209D01*
X33112353Y-34474793D01*
X32671143Y-34657097D01*
X32333283Y-34994367D01*
X32150209Y-35435258D01*
X32149793Y-35912647D01*
X32250000Y-36155167D01*
X32250000Y-37350000D01*
X32333733Y-37770952D01*
X32453508Y-37950207D01*
X32572183Y-38127817D01*
X34707726Y-40263361D01*
X34807097Y-40503857D01*
X35144367Y-40841717D01*
X35585258Y-41024791D01*
X36062647Y-41025207D01*
X36400000Y-40885816D01*
X36400000Y-41400000D01*
X36464702Y-41725281D01*
X36648959Y-42001041D01*
X39500000Y-44852082D01*
X39500000Y-45597919D01*
X36248959Y-48848959D01*
X36064702Y-49124719D01*
X36000000Y-49450000D01*
X36000000Y-51452941D01*
X35975000Y-51477897D01*
X35975000Y-44400000D01*
X35947798Y-44263246D01*
X35900783Y-44026883D01*
X35689429Y-43710571D01*
X35600156Y-43621298D01*
X35600207Y-43562353D01*
X35417903Y-43121143D01*
X35080633Y-42783283D01*
X34639742Y-42600209D01*
X34162353Y-42599793D01*
X33721143Y-42782097D01*
X33383283Y-43119367D01*
X33200209Y-43560258D01*
X33199793Y-44037647D01*
X33382097Y-44478857D01*
X33719367Y-44816717D01*
X34025000Y-44943627D01*
X34025000Y-51827723D01*
X33983283Y-51869367D01*
X33800209Y-52310258D01*
X33799793Y-52787647D01*
X33928854Y-53100000D01*
X29962484Y-53100000D01*
X30049791Y-52889742D01*
X30050207Y-52412353D01*
X29867903Y-51971143D01*
X29530633Y-51633283D01*
X29089742Y-51450209D01*
X28612353Y-51449793D01*
X28171143Y-51632097D01*
X28153209Y-51650000D01*
X17647059Y-51650000D01*
X17480633Y-51483283D01*
X17039742Y-51300209D01*
X16562353Y-51299793D01*
X16121143Y-51482097D01*
X15783283Y-51819367D01*
X15600209Y-52260258D01*
X15599793Y-52737647D01*
X15749514Y-53100000D01*
X12102082Y-53100000D01*
X11551041Y-52548959D01*
X11275281Y-52364702D01*
X10950000Y-52300000D01*
X4250000Y-52300000D01*
X3924719Y-52364702D01*
X3648959Y-52548959D01*
X1950000Y-54247918D01*
X838869Y-53136787D01*
X916267Y-53020952D01*
X1000000Y-52600000D01*
X1000000Y-47133246D01*
X1160258Y-47199791D01*
X1637647Y-47200207D01*
X2078857Y-47017903D01*
X2247054Y-46850000D01*
X6295412Y-46850000D01*
X6017857Y-46964684D01*
X5665919Y-47316007D01*
X5475217Y-47775269D01*
X5474783Y-48272550D01*
X5664684Y-48732143D01*
X6016007Y-49084081D01*
X6475269Y-49274783D01*
X6972550Y-49275217D01*
X7432143Y-49085316D01*
X7784081Y-48733993D01*
X7974783Y-48274731D01*
X7975174Y-47827255D01*
X8548957Y-48401038D01*
X8548959Y-48401041D01*
X10148959Y-50001041D01*
X10424719Y-50185298D01*
X10750000Y-50250001D01*
X10750005Y-50250000D01*
X18102941Y-50250000D01*
X18269367Y-50416717D01*
X18710258Y-50599791D01*
X19187647Y-50600207D01*
X19628857Y-50417903D01*
X19966717Y-50080633D01*
X20149791Y-49639742D01*
X20150207Y-49162353D01*
X19967903Y-48721143D01*
X19647321Y-48400000D01*
X29800000Y-48400000D01*
X30125281Y-48335298D01*
X30253000Y-48249959D01*
X30537647Y-48250207D01*
X30978857Y-48067903D01*
X31316717Y-47730633D01*
X31499791Y-47289742D01*
X31500207Y-46812353D01*
X31317903Y-46371143D01*
X30980633Y-46033283D01*
X30539742Y-45850209D01*
X30062353Y-45849793D01*
X29621143Y-46032097D01*
X29283283Y-46369367D01*
X29145992Y-46700000D01*
X24791722Y-46700000D01*
X24899791Y-46439742D01*
X24900207Y-45962353D01*
X24717903Y-45521143D01*
X24380633Y-45183283D01*
X23939742Y-45000209D01*
X23462353Y-44999793D01*
X23219833Y-45100000D01*
X21980167Y-45100000D01*
X22178857Y-45017903D01*
X22516717Y-44680633D01*
X22699791Y-44239742D01*
X22700207Y-43762353D01*
X22600000Y-43519833D01*
X22600000Y-38405634D01*
X23945659Y-37059976D01*
X23800209Y-37410258D01*
X23799793Y-37887647D01*
X23900000Y-38130167D01*
X23900000Y-39044365D01*
X23072183Y-39872183D01*
X22833733Y-40229048D01*
X22750000Y-40650000D01*
X22750000Y-41719935D01*
X22650209Y-41960258D01*
X22649793Y-42437647D01*
X22832097Y-42878857D01*
X23169367Y-43216717D01*
X23610258Y-43399791D01*
X24087647Y-43400207D01*
X24528857Y-43217903D01*
X24866717Y-42880633D01*
X25049791Y-42439742D01*
X25050207Y-41962353D01*
X24950000Y-41719833D01*
X24950000Y-41105634D01*
X25777818Y-40277817D01*
X26016268Y-39920951D01*
X26100000Y-39500000D01*
X26100000Y-39250000D01*
X28769935Y-39250000D01*
X29010258Y-39349791D01*
X29487647Y-39350207D01*
X29928857Y-39167903D01*
X30266717Y-38830633D01*
X30449791Y-38389742D01*
X30450207Y-37912353D01*
X30267903Y-37471143D01*
X29930633Y-37133283D01*
X29489742Y-36950209D01*
X29012353Y-36949793D01*
X28769833Y-37050000D01*
X26050486Y-37050000D01*
X26017903Y-36971143D01*
X25680633Y-36633283D01*
X25239742Y-36450209D01*
X24762353Y-36449793D01*
X24410431Y-36595204D01*
X24867817Y-36137818D01*
X25026026Y-35901041D01*
X25106267Y-35780952D01*
X25190000Y-35360000D01*
X25190000Y-23537647D01*
X36149793Y-23537647D01*
X36332097Y-23978857D01*
X36669367Y-24316717D01*
X37110258Y-24499791D01*
X37587647Y-24500207D01*
X37830167Y-24400000D01*
X40869935Y-24400000D01*
X41110258Y-24499791D01*
X41587647Y-24500207D01*
X42028857Y-24317903D01*
X42366717Y-23980633D01*
X42549791Y-23539742D01*
X42550207Y-23062353D01*
X42367903Y-22621143D01*
X42030633Y-22283283D01*
X41589742Y-22100209D01*
X41112353Y-22099793D01*
X40869833Y-22200000D01*
X37830065Y-22200000D01*
X37589742Y-22100209D01*
X37112353Y-22099793D01*
X36671143Y-22282097D01*
X36333283Y-22619367D01*
X36150209Y-23060258D01*
X36149793Y-23537647D01*
X25190000Y-23537647D01*
X25190000Y-23515634D01*
X27805635Y-20900000D01*
X52950000Y-20900000D01*
X53370952Y-20816267D01*
X53727817Y-20577817D01*
X61375000Y-12930635D01*
X61375000Y-26705149D01*
X61375000Y-26705149D01*
G37*
X61375000Y-26705149D02*
X61338510Y-26648442D01*
X61138007Y-26511444D01*
X60900000Y-26463246D01*
X57900000Y-26463246D01*
X57677654Y-26505083D01*
X57473442Y-26636490D01*
X57336444Y-26836993D01*
X57288246Y-27075000D01*
X57288246Y-30282612D01*
X57077817Y-30072183D01*
X56987736Y-30011993D01*
X56720952Y-29833733D01*
X56300000Y-29750000D01*
X55731024Y-29750000D01*
X55638007Y-29686444D01*
X55400000Y-29638246D01*
X54500000Y-29638246D01*
X54277654Y-29680083D01*
X54169000Y-29750000D01*
X53531024Y-29750000D01*
X53438007Y-29686444D01*
X53200000Y-29638246D01*
X52300000Y-29638246D01*
X52077654Y-29680083D01*
X51969000Y-29750000D01*
X51800000Y-29750000D01*
X51379048Y-29833733D01*
X51242878Y-29924719D01*
X51022182Y-30072183D01*
X50311754Y-30782611D01*
X50311754Y-27075000D01*
X50269917Y-26852654D01*
X50138510Y-26648442D01*
X49938007Y-26511444D01*
X49700000Y-26463246D01*
X46700000Y-26463246D01*
X46477654Y-26505083D01*
X46273442Y-26636490D01*
X46136444Y-26836993D01*
X46088246Y-27075000D01*
X46088246Y-28133405D01*
X46000000Y-27919833D01*
X46000000Y-26305634D01*
X46255635Y-26050000D01*
X53425000Y-26050000D01*
X53845952Y-25966267D01*
X54202817Y-25727817D01*
X56255672Y-23674962D01*
X56616863Y-23675277D01*
X57205143Y-23432205D01*
X57655623Y-22982511D01*
X57899722Y-22394656D01*
X57900277Y-21758137D01*
X57657205Y-21169857D01*
X57207511Y-20719377D01*
X56619656Y-20475278D01*
X55983137Y-20474723D01*
X55394857Y-20717795D01*
X54944377Y-21167489D01*
X54700278Y-21755344D01*
X54699961Y-22119405D01*
X52969366Y-23850000D01*
X45800000Y-23850000D01*
X45379048Y-23933733D01*
X45022182Y-24172183D01*
X44122183Y-25072183D01*
X43883733Y-25429048D01*
X43800000Y-25850000D01*
X43800000Y-27919935D01*
X43700209Y-28160258D01*
X43699793Y-28637647D01*
X43882097Y-29078857D01*
X44219367Y-29416717D01*
X44660258Y-29599791D01*
X45137647Y-29600207D01*
X45578857Y-29417903D01*
X45916717Y-29080633D01*
X46088246Y-28667545D01*
X46088246Y-31075000D01*
X46130083Y-31297346D01*
X46261490Y-31501558D01*
X46461993Y-31638556D01*
X46700000Y-31686754D01*
X49407611Y-31686754D01*
X44765649Y-36328717D01*
X44617903Y-35971143D01*
X44482618Y-35835621D01*
X44493000Y-35831331D01*
X45084255Y-35241107D01*
X45404634Y-34469548D01*
X45405363Y-33634117D01*
X45086331Y-32862000D01*
X44496107Y-32270745D01*
X43724548Y-31950366D01*
X42889117Y-31949637D01*
X42117000Y-32268669D01*
X41525745Y-32858893D01*
X41213337Y-33611255D01*
X40601041Y-32998959D01*
X40379457Y-32850901D01*
X40908867Y-32745595D01*
X41460387Y-32377082D01*
X41828900Y-31825562D01*
X41958305Y-31175000D01*
X41828900Y-30524438D01*
X41460387Y-29972918D01*
X40908867Y-29604405D01*
X40258305Y-29475000D01*
X40191695Y-29475000D01*
X39541133Y-29604405D01*
X38989613Y-29972918D01*
X38621100Y-30524438D01*
X38491695Y-31175000D01*
X38621100Y-31825562D01*
X38989613Y-32377082D01*
X39541133Y-32745595D01*
X39563278Y-32750000D01*
X38250005Y-32750000D01*
X38250000Y-32749999D01*
X37936528Y-32812353D01*
X37924719Y-32814702D01*
X37648959Y-32998959D01*
X37648957Y-32998962D01*
X36648959Y-33998959D01*
X36464702Y-34274719D01*
X36400000Y-34600000D01*
X36400000Y-38764420D01*
X36263287Y-38707652D01*
X34450000Y-36894366D01*
X34450000Y-36155065D01*
X34549791Y-35914742D01*
X34550207Y-35437353D01*
X34367903Y-34996143D01*
X34030633Y-34658283D01*
X33589742Y-34475209D01*
X33112353Y-34474793D01*
X32671143Y-34657097D01*
X32333283Y-34994367D01*
X32150209Y-35435258D01*
X32149793Y-35912647D01*
X32250000Y-36155167D01*
X32250000Y-37350000D01*
X32333733Y-37770952D01*
X32453508Y-37950207D01*
X32572183Y-38127817D01*
X34707726Y-40263361D01*
X34807097Y-40503857D01*
X35144367Y-40841717D01*
X35585258Y-41024791D01*
X36062647Y-41025207D01*
X36400000Y-40885816D01*
X36400000Y-41400000D01*
X36464702Y-41725281D01*
X36648959Y-42001041D01*
X39500000Y-44852082D01*
X39500000Y-45597919D01*
X36248959Y-48848959D01*
X36064702Y-49124719D01*
X36000000Y-49450000D01*
X36000000Y-51452941D01*
X35975000Y-51477897D01*
X35975000Y-44400000D01*
X35947798Y-44263246D01*
X35900783Y-44026883D01*
X35689429Y-43710571D01*
X35600156Y-43621298D01*
X35600207Y-43562353D01*
X35417903Y-43121143D01*
X35080633Y-42783283D01*
X34639742Y-42600209D01*
X34162353Y-42599793D01*
X33721143Y-42782097D01*
X33383283Y-43119367D01*
X33200209Y-43560258D01*
X33199793Y-44037647D01*
X33382097Y-44478857D01*
X33719367Y-44816717D01*
X34025000Y-44943627D01*
X34025000Y-51827723D01*
X33983283Y-51869367D01*
X33800209Y-52310258D01*
X33799793Y-52787647D01*
X33928854Y-53100000D01*
X29962484Y-53100000D01*
X30049791Y-52889742D01*
X30050207Y-52412353D01*
X29867903Y-51971143D01*
X29530633Y-51633283D01*
X29089742Y-51450209D01*
X28612353Y-51449793D01*
X28171143Y-51632097D01*
X28153209Y-51650000D01*
X17647059Y-51650000D01*
X17480633Y-51483283D01*
X17039742Y-51300209D01*
X16562353Y-51299793D01*
X16121143Y-51482097D01*
X15783283Y-51819367D01*
X15600209Y-52260258D01*
X15599793Y-52737647D01*
X15749514Y-53100000D01*
X12102082Y-53100000D01*
X11551041Y-52548959D01*
X11275281Y-52364702D01*
X10950000Y-52300000D01*
X4250000Y-52300000D01*
X3924719Y-52364702D01*
X3648959Y-52548959D01*
X1950000Y-54247918D01*
X838869Y-53136787D01*
X916267Y-53020952D01*
X1000000Y-52600000D01*
X1000000Y-47133246D01*
X1160258Y-47199791D01*
X1637647Y-47200207D01*
X2078857Y-47017903D01*
X2247054Y-46850000D01*
X6295412Y-46850000D01*
X6017857Y-46964684D01*
X5665919Y-47316007D01*
X5475217Y-47775269D01*
X5474783Y-48272550D01*
X5664684Y-48732143D01*
X6016007Y-49084081D01*
X6475269Y-49274783D01*
X6972550Y-49275217D01*
X7432143Y-49085316D01*
X7784081Y-48733993D01*
X7974783Y-48274731D01*
X7975174Y-47827255D01*
X8548957Y-48401038D01*
X8548959Y-48401041D01*
X10148959Y-50001041D01*
X10424719Y-50185298D01*
X10750000Y-50250001D01*
X10750005Y-50250000D01*
X18102941Y-50250000D01*
X18269367Y-50416717D01*
X18710258Y-50599791D01*
X19187647Y-50600207D01*
X19628857Y-50417903D01*
X19966717Y-50080633D01*
X20149791Y-49639742D01*
X20150207Y-49162353D01*
X19967903Y-48721143D01*
X19647321Y-48400000D01*
X29800000Y-48400000D01*
X30125281Y-48335298D01*
X30253000Y-48249959D01*
X30537647Y-48250207D01*
X30978857Y-48067903D01*
X31316717Y-47730633D01*
X31499791Y-47289742D01*
X31500207Y-46812353D01*
X31317903Y-46371143D01*
X30980633Y-46033283D01*
X30539742Y-45850209D01*
X30062353Y-45849793D01*
X29621143Y-46032097D01*
X29283283Y-46369367D01*
X29145992Y-46700000D01*
X24791722Y-46700000D01*
X24899791Y-46439742D01*
X24900207Y-45962353D01*
X24717903Y-45521143D01*
X24380633Y-45183283D01*
X23939742Y-45000209D01*
X23462353Y-44999793D01*
X23219833Y-45100000D01*
X21980167Y-45100000D01*
X22178857Y-45017903D01*
X22516717Y-44680633D01*
X22699791Y-44239742D01*
X22700207Y-43762353D01*
X22600000Y-43519833D01*
X22600000Y-38405634D01*
X23945659Y-37059976D01*
X23800209Y-37410258D01*
X23799793Y-37887647D01*
X23900000Y-38130167D01*
X23900000Y-39044365D01*
X23072183Y-39872183D01*
X22833733Y-40229048D01*
X22750000Y-40650000D01*
X22750000Y-41719935D01*
X22650209Y-41960258D01*
X22649793Y-42437647D01*
X22832097Y-42878857D01*
X23169367Y-43216717D01*
X23610258Y-43399791D01*
X24087647Y-43400207D01*
X24528857Y-43217903D01*
X24866717Y-42880633D01*
X25049791Y-42439742D01*
X25050207Y-41962353D01*
X24950000Y-41719833D01*
X24950000Y-41105634D01*
X25777818Y-40277817D01*
X26016268Y-39920951D01*
X26100000Y-39500000D01*
X26100000Y-39250000D01*
X28769935Y-39250000D01*
X29010258Y-39349791D01*
X29487647Y-39350207D01*
X29928857Y-39167903D01*
X30266717Y-38830633D01*
X30449791Y-38389742D01*
X30450207Y-37912353D01*
X30267903Y-37471143D01*
X29930633Y-37133283D01*
X29489742Y-36950209D01*
X29012353Y-36949793D01*
X28769833Y-37050000D01*
X26050486Y-37050000D01*
X26017903Y-36971143D01*
X25680633Y-36633283D01*
X25239742Y-36450209D01*
X24762353Y-36449793D01*
X24410431Y-36595204D01*
X24867817Y-36137818D01*
X25026026Y-35901041D01*
X25106267Y-35780952D01*
X25190000Y-35360000D01*
X25190000Y-23537647D01*
X36149793Y-23537647D01*
X36332097Y-23978857D01*
X36669367Y-24316717D01*
X37110258Y-24499791D01*
X37587647Y-24500207D01*
X37830167Y-24400000D01*
X40869935Y-24400000D01*
X41110258Y-24499791D01*
X41587647Y-24500207D01*
X42028857Y-24317903D01*
X42366717Y-23980633D01*
X42549791Y-23539742D01*
X42550207Y-23062353D01*
X42367903Y-22621143D01*
X42030633Y-22283283D01*
X41589742Y-22100209D01*
X41112353Y-22099793D01*
X40869833Y-22200000D01*
X37830065Y-22200000D01*
X37589742Y-22100209D01*
X37112353Y-22099793D01*
X36671143Y-22282097D01*
X36333283Y-22619367D01*
X36150209Y-23060258D01*
X36149793Y-23537647D01*
X25190000Y-23537647D01*
X25190000Y-23515634D01*
X27805635Y-20900000D01*
X52950000Y-20900000D01*
X53370952Y-20816267D01*
X53727817Y-20577817D01*
X61375000Y-12930635D01*
X61375000Y-26705149D01*
M02*
