G04 #@! TF.FileFunction,Soldermask,Top*
%FSLAX46Y46*%
G04 Gerber Fmt 4.6, Leading zero omitted, Abs format (unit mm)*
G04 Created by KiCad (PCBNEW 4.0.0-rc1-stable) date 20.6.2016 15:05:58*
%MOMM*%
G01*
G04 APERTURE LIST*
%ADD10C,0.150000*%
%ADD11O,2.600000X2.600000*%
%ADD12R,2.127200X2.432000*%
%ADD13O,2.127200X2.432000*%
%ADD14C,2.400000*%
%ADD15C,3.400000*%
%ADD16C,3.600000*%
%ADD17R,1.600000X1.300000*%
%ADD18R,1.300000X1.600000*%
%ADD19R,3.549600X2.200860*%
%ADD20R,1.900000X2.600000*%
%ADD21R,2.300000X2.400000*%
%ADD22C,2.300000*%
%ADD23C,1.900000*%
%ADD24R,1.600000X2.400000*%
%ADD25R,1.500000X2.400000*%
%ADD26R,1.400000X2.400000*%
%ADD27C,1.700000*%
%ADD28C,2.100000*%
%ADD29R,1.650000X1.000000*%
%ADD30R,4.190000X1.600000*%
%ADD31R,1.800000X1.850000*%
%ADD32R,1.000000X1.400000*%
%ADD33R,1.250000X1.350000*%
%ADD34O,4.400000X2.400000*%
%ADD35R,1.050000X1.800000*%
%ADD36R,1.000000X0.900000*%
%ADD37C,2.000000*%
%ADD38R,1.400000X1.400000*%
%ADD39R,1.400000X2.600000*%
%ADD40O,3.800000X2.400000*%
%ADD41O,2.400000X2.100000*%
%ADD42O,1.700000X2.900000*%
%ADD43R,3.400000X4.400000*%
%ADD44R,1.400000X0.650000*%
%ADD45R,0.675000X1.400000*%
G04 APERTURE END LIST*
D10*
D11*
X40225000Y-31175000D03*
X17425000Y-31175000D03*
X40225000Y-7725000D03*
D12*
X25025000Y-7175000D03*
D13*
X27565000Y-7175000D03*
X30105000Y-7175000D03*
X32645000Y-7175000D03*
D11*
X17425000Y-7725000D03*
D14*
X37690000Y-4550000D03*
X35150000Y-4550000D03*
X32610000Y-4550000D03*
X30070000Y-4550000D03*
X27530000Y-4550000D03*
X24990000Y-4550000D03*
X22450000Y-4550000D03*
D15*
X43305000Y-34050000D03*
X14300000Y-34050000D03*
X43305000Y-4550000D03*
X14300000Y-4550000D03*
D14*
X19910000Y-4550000D03*
D16*
X57300000Y-95300000D03*
X0Y-95300000D03*
X57300000Y0D03*
X0Y0D03*
D17*
X60300000Y-65300000D03*
X58100000Y-65300000D03*
X16150000Y-39850000D03*
X18350000Y-39850000D03*
D18*
X2350000Y-88500000D03*
X2350000Y-90700000D03*
D17*
X38450000Y-47700000D03*
X36250000Y-47700000D03*
X38450000Y-50350000D03*
X36250000Y-50350000D03*
X29925000Y-30525000D03*
X32125000Y-30525000D03*
X31050000Y-54050000D03*
X33250000Y-54050000D03*
D19*
X27374020Y-42800000D03*
X31625980Y-42800000D03*
D18*
X35475000Y-10775000D03*
X35475000Y-8575000D03*
D17*
X37980000Y-92120000D03*
X35780000Y-92120000D03*
D20*
X31000000Y1700000D03*
X34200000Y1700000D03*
D21*
X47550000Y150000D03*
D22*
X50090000Y150000D03*
D18*
X4400000Y-36250000D03*
X4400000Y-34050000D03*
D23*
X13950000Y-84800000D03*
X15950000Y-84800000D03*
X17950000Y-84800000D03*
X49550000Y-92900000D03*
X47550000Y-92900000D03*
D18*
X24975000Y-35875000D03*
X24975000Y-33675000D03*
X27425000Y-35875000D03*
X27425000Y-33675000D03*
X34875000Y-33475000D03*
X34875000Y-35675000D03*
D17*
X28200000Y-47700000D03*
X26000000Y-47700000D03*
X28200000Y-50550000D03*
X26000000Y-50550000D03*
D18*
X43900000Y-74600000D03*
X43900000Y-76800000D03*
D17*
X20450000Y-78050000D03*
X18250000Y-78050000D03*
X40560000Y-92120000D03*
X42760000Y-92120000D03*
D18*
X6650000Y-36250000D03*
X6650000Y-34050000D03*
D24*
X52870000Y-4850000D03*
X52870000Y-13750000D03*
X55410000Y-13750000D03*
X57950000Y-13750000D03*
X55410000Y-4850000D03*
D25*
X57950000Y-4850000D03*
D26*
X-825000Y-39825000D03*
X675000Y-39825000D03*
X2175000Y-39825000D03*
X3675000Y-39825000D03*
X5175000Y-39825000D03*
X6675000Y-39825000D03*
X8175000Y-39825000D03*
X9675000Y-39825000D03*
X11175000Y-39825000D03*
X12675000Y-39825000D03*
X12675000Y-55825000D03*
X11175000Y-55825000D03*
X9675000Y-55825000D03*
X8175000Y-55825000D03*
X6675000Y-55825000D03*
X5175000Y-55825000D03*
X3675000Y-55825000D03*
X2175000Y-55825000D03*
X675000Y-55825000D03*
X-825000Y-55825000D03*
D27*
X6725000Y-48025000D03*
D28*
X35450000Y-87300000D03*
X37450000Y-87300000D03*
X39450000Y-87300000D03*
X41450000Y-87300000D03*
X43450000Y-87300000D03*
X45450000Y-87300000D03*
X47450000Y-87300000D03*
X49450000Y-87300000D03*
X51450000Y-87300000D03*
X53450000Y-87300000D03*
X35450000Y-65300000D03*
X37450000Y-65300000D03*
X45450000Y-65300000D03*
X43450000Y-65300000D03*
X41450000Y-65300000D03*
X39450000Y-65300000D03*
X47450000Y-65300000D03*
X49450000Y-65300000D03*
X51450000Y-65300000D03*
X53450000Y-65300000D03*
D29*
X48000000Y-52450000D03*
X48000000Y-53550000D03*
X48000000Y-54650000D03*
X48000000Y-55750000D03*
X48000000Y-56850000D03*
X48000000Y-57950000D03*
X48000000Y-59050000D03*
X48000000Y-60150000D03*
D30*
X50505000Y-61600000D03*
D31*
X49750000Y-50825000D03*
D32*
X51000000Y-50600000D03*
D33*
X51975000Y-51525000D03*
D34*
X6800000Y-67860000D03*
X6800000Y-70400000D03*
X6800000Y-72940000D03*
X6800000Y-80560000D03*
X6800000Y-78020000D03*
X6800000Y-75480000D03*
X6800000Y-83100000D03*
X6800000Y-85640000D03*
X6800000Y-88180000D03*
X6800000Y-90720000D03*
X6800000Y-93260000D03*
X6800000Y-95800000D03*
X24600000Y-67860000D03*
X24600000Y-70400000D03*
X24600000Y-72940000D03*
X24600000Y-75480000D03*
X24600000Y-78020000D03*
X24600000Y-80560000D03*
X24600000Y-83100000D03*
X24600000Y-85640000D03*
X24600000Y-88180000D03*
X24600000Y-90720000D03*
X24600000Y-93260000D03*
X24600000Y-95800000D03*
D35*
X30225000Y-35675000D03*
X31175000Y-35675000D03*
X32125000Y-35675000D03*
X30225000Y-33675000D03*
X32125000Y-33675000D03*
X31175000Y-33675000D03*
D36*
X36100000Y-42550000D03*
X36100000Y-44450000D03*
X38500000Y-42550000D03*
X38500000Y-43500000D03*
X38500000Y-44450000D03*
D37*
X3220000Y-18510000D03*
X3220000Y-26110000D03*
D38*
X-825000Y-58775000D03*
D39*
X-2325000Y-60275000D03*
X675000Y-60275000D03*
D40*
X55750000Y-47600000D03*
D41*
X55750000Y-43500000D03*
X55750000Y-41500000D03*
X55750000Y-45500000D03*
D40*
X55750000Y-39400000D03*
D17*
X16150000Y-42200000D03*
X18350000Y-42200000D03*
D42*
X6450000Y-9250000D03*
X4450000Y-9250000D03*
X2450000Y-9250000D03*
X450000Y-9250000D03*
D43*
X59400000Y-29075000D03*
D14*
X56300000Y-22075000D03*
X51300000Y-22075000D03*
X56300000Y-36575000D03*
X53800000Y-36575000D03*
X51300000Y-36575000D03*
D43*
X48200000Y-29075000D03*
D17*
X44575000Y-17700000D03*
X42375000Y-17700000D03*
X44575000Y-24350000D03*
X42375000Y-24350000D03*
D18*
X42950000Y-40775000D03*
X42950000Y-38575000D03*
X45200000Y-40775000D03*
X45200000Y-38575000D03*
X47475000Y-38575000D03*
X47475000Y-40775000D03*
D17*
X42350000Y-19950000D03*
X44550000Y-19950000D03*
X42350000Y-22200000D03*
X44550000Y-22200000D03*
D44*
X30890000Y-50350000D03*
X30890000Y-49850000D03*
X33090000Y-49850000D03*
X33080000Y-50350000D03*
D45*
X31740000Y-48980000D03*
X32240000Y-48980000D03*
X31240000Y-48980000D03*
D44*
X33090000Y-49350000D03*
X30890000Y-50850000D03*
X33080000Y-50850000D03*
D45*
X31740000Y-51220000D03*
X32240000Y-51220000D03*
D17*
X16150000Y-37750000D03*
X18350000Y-37750000D03*
M02*
