M48
;DRILL file {KiCad 4.0.0-rc1-stable} date 30.3.2016 9:55:02
;FORMAT={2:4/ absolute / inch / suppress leading zeros}
FMAT,2
INCH,TZ
T1C0.020
T2C0.024
T3C0.028
T4C0.031
T5C0.035
T6C0.039
T7C0.039
T8C0.040
T9C0.047
T10C0.063
T11C0.075
T12C0.102
T13C0.126
%
G90
G05
M72
T1
X-1102Y-10453
X-1083Y-16909
X-787Y-24272
X-256Y-12697
X276Y-26772
X846Y-14980
X1260Y-31555
X1713Y-24272
X1890Y-26772
X1988Y-12224
X2097Y-7992
X2756Y-11378
X2992Y-6713
X3681Y-16043
X3819Y-5886
X4236Y-24870
X4268Y-25740
X4272Y-37146
X4390Y-9862
X4484Y-21421
X4626Y-19331
X4823Y-35531
X4827Y-23685
X5492Y-8760
X5846Y-16594
X6142Y-5394
X6161Y-22835
X6201Y-36201
X6437Y-14744
X6634Y-16437
X6795Y-21390
X6799Y-23157
X6965Y-15299
X6998Y-3356
X7138Y-26874
X7461Y-6496
X7717Y-10177
X8395Y-10138
X8524Y-13996
X9252Y-13996
X9642Y-14823
X10374Y-15488
X10827Y-22622
X11614Y-18366
X11614Y-19055
X11638Y-14913
X11791Y-31831
X11850Y-34059
X11890Y-32697
X11890Y-37953
X12079Y-17193
X12209Y-15512
X12579Y-2913
X12598Y-22047
X12606Y-16610
X12618Y-18976
X12657Y-7874
X12717Y-10965
X12854Y-37787
X12894Y-35394
X13474Y-11880
X13677Y-15512
X14154Y-10965
X14360Y-7874
X14370Y-8622
X14382Y-14957
X14657Y-26756
X14724Y-27638
X14728Y-28366
X14728Y-29161
X15512Y-12343
X15618Y-18953
X16024Y-11831
X16791Y-4311
X17520Y-9252
X18197Y-32701
X18465Y-37531
X18484Y-12894
X19642Y-32339
X19783Y-33071
X19933Y-27378
X19933Y-34587
X20098Y-30472
X20689Y-413
X20906Y-38504
X21083Y-32559
X21618Y-33764
X22402Y-13504
X22618Y-2028
X22618Y-11673
X22618Y-12677
X23189Y-24016
X23583Y-35846
T2
X2465Y-1398
X2965Y-1398
X3465Y-1398
X19055Y-6299
X19555Y-6299
X20055Y-6299
T3
X-1102Y-27776
X-1102Y-28563
X-1102Y-29350
X-1102Y-30138
X-1102Y-30925
X-1102Y-31713
X-1102Y-32500
X-1102Y-33287
X-1102Y-34075
X-1102Y-34862
X2657Y-36654
X3445Y-36654
X7559Y-27776
X7559Y-28563
X7559Y-29350
X7559Y-30138
X7559Y-30925
X7559Y-31713
X7559Y-32500
X7559Y-33287
X7559Y-34075
X7559Y-34862
T4
X256Y-2933
X256Y-5492
T5
X21969Y-27047
X21969Y-27835
X21969Y-28622
T6
X7858Y-1811
X8858Y-1811
X9858Y-1811
X10858Y-1811
X11858Y-1811
X12858Y-1811
X13858Y-1811
X14858Y-1811
T7
X21575Y-3232
X21575Y-4232
T8
X2638Y-33622
X3638Y-33622
X4638Y-33622
T9
X4980Y-18445
X9488Y-26756
X9488Y-27756
X9488Y-28756
X9488Y-29756
X9488Y-30756
X9488Y-31756
X9488Y-32756
X9488Y-33756
X9488Y-34756
X9488Y-35756
X9488Y-36756
X9488Y-37756
X16496Y-26756
X16496Y-27756
X16496Y-28756
X16496Y-29756
X16496Y-30756
X16496Y-31756
X16496Y-32756
X16496Y-33756
X16496Y-34756
X16496Y-35756
X16496Y-36756
X16496Y-37756
X18957Y-16929
X20925Y-14961
X20925Y-18898
X21909Y-14961
X21909Y-18898
T10
X21969Y-26220
X21969Y-29449
T11
X13858Y-20394
X13858Y-22244
X13858Y-24094
X18858Y-21260
X18858Y-23228
T12
X5650Y-1811
X5650Y-13425
X17069Y-1811
X17069Y-13425
T13
X0Y0
X0Y-37520
X22559Y0
X22559Y-37520
T2
X19134Y-14961G85X18780Y-14961
G05
X19134Y-15945G85X18780Y-15945
G05
X19134Y-17913G85X18780Y-17913
G05
X19134Y-18898G85X18780Y-18898
G05
X20925Y-17106G85X20925Y-16752
G05
T0
M30
