G04 #@! TF.FileFunction,Soldermask,Bot*
%FSLAX46Y46*%
G04 Gerber Fmt 4.6, Leading zero omitted, Abs format (unit mm)*
G04 Created by KiCad (PCBNEW 4.0.0-rc1-stable) date 30.3.2016 9:53:03*
%MOMM*%
G01*
G04 APERTURE LIST*
%ADD10C,0.150000*%
%ADD11O,4.400000X2.400000*%
%ADD12R,2.400000X2.300000*%
%ADD13C,2.300000*%
%ADD14C,3.600000*%
%ADD15O,4.400000X1.900000*%
%ADD16C,2.800000*%
%ADD17O,1.900000X4.400000*%
%ADD18C,2.000000*%
%ADD19C,2.100000*%
%ADD20O,3.800000X2.400000*%
%ADD21O,2.400000X2.100000*%
%ADD22C,2.400000*%
%ADD23C,4.775000*%
%ADD24C,1.900000*%
%ADD25R,2.127200X2.432000*%
%ADD26O,2.127200X2.432000*%
%ADD27R,1.300000X1.600000*%
%ADD28R,1.600000X1.300000*%
%ADD29O,1.299160X1.901140*%
%ADD30C,4.200000*%
%ADD31C,1.700000*%
G04 APERTURE END LIST*
D10*
D11*
X24100000Y-67960000D03*
X24100000Y-70500000D03*
X24100000Y-73040000D03*
X24100000Y-80660000D03*
X24100000Y-78120000D03*
X24100000Y-75580000D03*
X24100000Y-83200000D03*
X24100000Y-85740000D03*
X24100000Y-88280000D03*
X24100000Y-90820000D03*
X24100000Y-93360000D03*
X24100000Y-95900000D03*
X41900000Y-67960000D03*
X41900000Y-70500000D03*
X41900000Y-73040000D03*
X41900000Y-75580000D03*
X41900000Y-78120000D03*
X41900000Y-80660000D03*
X41900000Y-83200000D03*
X41900000Y-85740000D03*
X41900000Y-88280000D03*
X41900000Y-90820000D03*
X41900000Y-93360000D03*
X41900000Y-95900000D03*
D12*
X54800000Y-10750000D03*
D13*
X54800000Y-8210000D03*
D14*
X57300000Y-95300000D03*
X0Y-95300000D03*
X57300000Y0D03*
D15*
X48150000Y-38000000D03*
X48150000Y-40500000D03*
X48150000Y-45500000D03*
D16*
X53150000Y-38000000D03*
X55650000Y-38000000D03*
X55650000Y-48000000D03*
X53150000Y-48000000D03*
X48150000Y-43000000D03*
D17*
X53150000Y-43000000D03*
D15*
X48150000Y-48000000D03*
D18*
X650000Y-7450000D03*
X650000Y-13950000D03*
D19*
X19200000Y-88550000D03*
X19200000Y-86550000D03*
X19200000Y-84550000D03*
X19200000Y-82550000D03*
X19200000Y-80550000D03*
X19200000Y-78550000D03*
X19200000Y-76550000D03*
X19200000Y-72550000D03*
X19200000Y-70550000D03*
X-2800000Y-88550000D03*
X-2800000Y-86550000D03*
X-2800000Y-78550000D03*
X-2800000Y-80550000D03*
X-2800000Y-82550000D03*
X-2800000Y-84550000D03*
X-2800000Y-76550000D03*
X-2800000Y-74550000D03*
X-2800000Y-72550000D03*
X-2800000Y-70550000D03*
D14*
X0Y0D03*
D20*
X55800000Y-74800000D03*
D21*
X55800000Y-70700000D03*
X55800000Y-68700000D03*
X55800000Y-72700000D03*
D20*
X55800000Y-66600000D03*
D22*
X37740000Y-4600000D03*
X35200000Y-4600000D03*
X32660000Y-4600000D03*
X30120000Y-4600000D03*
X27580000Y-4600000D03*
X25040000Y-4600000D03*
X22500000Y-4600000D03*
D23*
X43355000Y-34100000D03*
X14350000Y-34100000D03*
X43355000Y-4600000D03*
X14350000Y-4600000D03*
D22*
X19960000Y-4600000D03*
D24*
X8750000Y-93100000D03*
X6750000Y-93100000D03*
D25*
X6700000Y-85400000D03*
D26*
X9240000Y-85400000D03*
X11780000Y-85400000D03*
D27*
X3250000Y-85400000D03*
X3250000Y-83200000D03*
D28*
X53550000Y-84000000D03*
X51350000Y-84000000D03*
D29*
X49670000Y-16000000D03*
X50940000Y-16000000D03*
X48400000Y-16000000D03*
D30*
X47900000Y-54000000D03*
X47900000Y-59000000D03*
X35200000Y-61200000D03*
X35200000Y-51800000D03*
X35200000Y-56500000D03*
D31*
X12650000Y-46850000D03*
D29*
X7530000Y-3550000D03*
X6260000Y-3550000D03*
X8800000Y-3550000D03*
M02*
